<?xml version="1.0" encoding="utf-8"?><svg width="40" height="25.69" viewBox="0 0 780 501" xmlns="http://www.w3.org/2000/svg"><title>discover</title><g fill="none" fill-rule="evenodd"><path d="M54.992 0C24.627 0 0 24.63 0 55.004v390.992C0 476.376 24.62 501 54.992 501h670.016C755.373 501 780 476.37 780 445.996V55.004C780 24.624 755.38 0 725.008 0H54.992z" fill="#4D4D4D"/><path d="M415.13 161.213c30.94 0 56.022 23.58 56.022 52.71v.032c0 29.13-25.08 52.742-56.02 52.742-30.94 0-56.023-23.613-56.023-52.742v-.033c0-29.13 25.08-52.71 56.02-52.71zm-87.978.68c8.837 0 16.248 1.784 25.268 6.09v22.75c-8.544-7.862-15.955-11.153-25.756-11.153-19.264 0-34.414 15.015-34.414 34.05 0 20.075 14.68 34.196 35.37 34.196 9.312 0 16.586-3.12 24.8-10.857v22.76c-9.34 4.14-16.91 5.777-25.756 5.777-31.278 0-55.582-22.596-55.582-51.737 0-28.825 24.95-51.877 56.07-51.877zm-97.113.627c11.544 0 22.11 3.72 30.94 10.994l-10.747 13.248c-5.35-5.646-10.41-8.028-16.564-8.028-8.854 0-15.3 4.745-15.3 10.99 0 5.353 3.62 8.187 15.943 12.48 23.365 8.045 30.29 15.177 30.29 30.927 0 19.195-14.976 32.555-36.32 32.555-15.63 0-26.994-5.795-36.458-18.872l13.268-12.03c4.73 8.61 12.622 13.222 22.42 13.222 9.163 0 15.947-5.952 15.947-13.984 0-4.163-2.054-7.733-6.157-10.257-2.066-1.195-6.158-2.977-14.2-5.647-19.29-6.538-25.91-13.527-25.91-27.185 0-16.224 14.214-28.41 32.846-28.41zm234.72 1.728h22.44l28.083 66.592 28.446-66.592h22.265L520.5 265.934h-11.05l-44.69-101.686zm-397.347.152h30.15c33.312 0 56.534 20.382 56.534 49.64 0 14.59-7.104 28.697-19.118 38.058-10.11 7.9-21.627 11.445-37.575 11.445h-29.99V164.4zm96.135 0h20.54v99.143h-20.54V164.4zm411.733 0h58.253v16.8H595.81v22.005h36.335v16.79H595.81v26.763h37.725v16.785h-58.252V164.4zm71.86 0h30.455c23.69 0 37.265 10.71 37.265 29.272 0 15.18-8.513 25.14-23.985 28.105l33.148 41.766h-25.26l-28.43-39.828h-2.677v39.828H647.14V164.4zm20.515 15.616v30.025h6.002c13.117 0 20.07-5.36 20.07-15.326 0-9.648-6.955-14.697-19.746-14.697h-6.325zM87.94 181.2v65.558h5.51c13.274 0 21.657-2.394 28.11-7.88 7.104-5.955 11.377-15.465 11.377-24.98 0-9.5-4.273-18.725-11.376-24.68-6.783-5.78-14.835-8.02-28.11-8.02h-5.51z" fill="#FFF"/><path d="M779.982 288.36c-26.05 18.332-221.077 149.34-558.754 212.624H724.99c30.365 0 54.992-24.63 54.992-55.004V288.36z" fill="#F47216"/></g></svg>