<?xml version="1.0" standalone="no"?> <!DOCTYPE svg PUBLIC "-//W3C//DTD SVG 1.0//EN" "http://www.w3.org/TR/2001/REC-SVG-20010904/DTD/svg10.dtd" > <svg xmlns="http://www.w3.org/2000/svg" width="100%" height="100%">
<defs >
<font id="clearsans-bolditalic" horiz-adv-x="1197" ><font-face
    font-family="Clear Sans"
    units-per-em="2048"
    panose-1="2 11 8 3 3 2 2 9 3 4"
    ascent="2206"
    descent="-563"
    alphabetic="0" />
<missing-glyph horiz-adv-x="1024" d="M57 1362H1030V0H57V1362ZM545 768L874 1266H213L545 768ZM156 186Q156 186 170 207T207 262T259 341T320 433Q392 542 485 682L156 1178V186ZM602 682L934 184V1178L602 682ZM545 594L213 98H874L545 594Z" />
<glyph unicode=" " glyph-name="space" horiz-adv-x="543" />
<glyph unicode="!" glyph-name="exclam" horiz-adv-x="571" d="M375 440H164L332 1384H606L375 440ZM373 197Q373 163 365 130T342 70Q317 25 276 6T170 -14Q98 -14 68 9T37 80Q37 108 43 137T61 195Q83 247 123 270T236 293Q307 293 340 271T373 197Z" />
<glyph unicode="&quot;" glyph-name="quotedbl" horiz-adv-x="956" d="M829 772H649L733 1384H1004L829 772ZM410 772H229L315 1384H584L410 772Z" />
<glyph unicode="#" glyph-name="numbersign" horiz-adv-x="1307" d="M1026 821L963 563H1200L1155 383H918L821 0H641L739 383H508L412 0H231L330 383H90L135 563H373L438 821H199L244 1001H483L582 1386H760L664 1001H893L991 1386H1169L1073 1001H1309L1264
821H1026ZM616 821L553 563H782L848 821H616Z" />
<glyph unicode="$" glyph-name="dollar" horiz-adv-x="1255" d="M860 1296Q923 1285 973 1265T1064 1218T1134 1156T1188 1083L983 946Q955 991 913 1024T811 1075L752 799Q843 770 905 736T1005 661T1060 570T1077 459Q1077 367 1042 297T943 177T791 99T598
63L557 -133H393L434 66Q365 74 307 95T204 146T128 213T82 291L299 430Q322 374 366 337T479 285L549 610Q454 641 393 673T297 745T249 835T236 950Q236 1007 260 1068T340 1180T482 1266T696 1307L721 1413H885L860 1296ZM821 424Q821 444 817 461T801 494T764
525T700 557L643 285Q676 289 708 299T765 326T805 367T821 424ZM489 967Q489 949 493 934T509 904T543 876T600 850L649 1083Q606 1078 576 1067T527 1041T498 1006T489 967Z" />
<glyph unicode="%" glyph-name="percent" horiz-adv-x="2120" d="M446 -55L1495 1434H1729L678 -55H446ZM485 508Q394 508 332 530T233 594T179 691T162 815Q162 839 165 873T176 947T195 1030T223 1116Q277 1260 375 1331T629 1403Q722 1403 785 1381T888 1319T944
1220T961 1090Q961 1047 951 994T926 888T893 788T858 711Q826 655 787 616T702 553T602 519T485 508ZM502 688Q547 688 583 709T651 788Q685 855 704 936T723 1096Q723 1133 716 1157T694 1196T661 1217T616 1223Q567 1223 528 1195T459 1094Q433 1029 416 957T399
811Q399 743 425 716T502 688ZM1544 -31Q1452 -31 1391 -9T1291 55T1237 152T1221 276Q1221 300 1224 334T1235 409T1254 492T1282 578Q1336 721 1434 792T1688 864Q1781 864 1844 842T1946 780T2002 681T2019 551Q2019 508 2010 455T1985 349T1952 249T1917 172Q1885
116 1846 78T1761 15T1661 -20T1544 -31ZM1561 150Q1583 150 1603 154T1642 170T1678 201T1710 250Q1744 316 1763 397T1782 557Q1782 594 1775 618T1753 657T1720 678T1675 684Q1626 684 1586 656T1518 555Q1492 490 1475 419T1458 272Q1458 204 1484 177T1561
150Z" />
<glyph unicode="&amp;" glyph-name="ampersand" horiz-adv-x="1292" d="M49 313Q49 382 74 444T149 565T267 679T426 788Q401 833 385 867T358 934T343 999T338 1073Q338 1140 362 1201T437 1310T562 1385T739 1413Q827 1413 891 1393T996 1339T1057 1257T1077
1155Q1077 1096 1058 1044T999 941T894 839T739 733L903 440Q941 491 976 551T1047 682L1243 604Q1198 502 1142 411T1016 244L1153 0H872L825 84Q739 31 644 1T440 -29Q244 -29 147 59T49 313ZM461 180Q529 180 594 200T721 262L528 610Q407 535 352 468T297 326Q297
290 309 263T344 218T396 190T461 180ZM582 1073Q582 1039 593 1006T629 930L637 913Q695 950 733 979T794 1033T826 1083T836 1137Q836 1179 809 1201T725 1223Q690 1223 664 1212T619 1180T592 1132T582 1073Z" />
<glyph unicode="&apos;" glyph-name="quotesingle" horiz-adv-x="539" d="M410 772H229L315 1384H584L410 772Z" />
<glyph unicode="(" glyph-name="parenleft" horiz-adv-x="840" d="M326 -395Q264 -307 219 -223T146 -51T104 129T90 330Q90 493 135 656T263 972T463 1264T725 1522H1012Q874 1411 751 1279T534 996T387 679T332 334Q332 223 351 125T407 -62T493 -233T604 -395H326Z" />
<glyph unicode=")" glyph-name="parenright" horiz-adv-x="840" d="M530 1522Q592 1433 637 1349T710 1178T752 997T766 797Q766 633 721 471T593 155T393 -138T131 -395H-156Q-18 -284 105 -152T322 131T469 448T524 793Q524 903 505 1001T449 1188T363 1360T252
1522H530Z" />
<glyph unicode="*" glyph-name="asterisk" horiz-adv-x="893" d="M848 829L618 1004L573 733H401L469 993L209 844L141 997L434 1130L190 1274L299 1419L522 1260L567 1520H739L672 1260L932 1409L1004 1255L707 1120L954 977L848 829Z" />
<glyph unicode="+" glyph-name="plus" horiz-adv-x="1427" d="M838 479V2H633V479H154V684H633V1163H838V684H1315V479H838Z" />
<glyph unicode="," glyph-name="comma" horiz-adv-x="571" d="M-31 -293Q0 -253 27 -211T77 -131T115 -61T137 -10Q39 -4 39 84Q39 139 61 197Q81 247 122 276T242 305Q310 305 339 274T369 186Q369 124 348 62T297 -61Q263 -131 222 -190T141 -293H-31Z" />
<glyph unicode="-" glyph-name="hyphen" horiz-adv-x="770" d="M53 399L106 653H717L664 399H53Z" />
<glyph unicode="." glyph-name="period" horiz-adv-x="571" d="M373 203Q373 172 366 139T342 74Q317 27 276 7T170 -14Q98 -14 69 11T39 84Q39 113 46 145T66 207Q87 258 127 281T238 305Q310 305 341 280T373 203Z" />
<glyph unicode="/" glyph-name="slash" horiz-adv-x="1016" d="M74 -299H-184L864 1520H1126L74 -299Z" />
<glyph unicode="0" glyph-name="zero" horiz-adv-x="1255" d="M1227 944Q1227 888 1219 818T1193 672T1152 516T1096 362Q1048 248 988 173T858 52T706 -12T535 -31Q420 -31 337 -4T201 79T122 222T96 430Q96 486 104 551T126 686T162 827T209 967Q255 1087 315
1172T448 1310T609 1388T797 1413Q1020 1413 1123 1295T1227 944ZM846 477Q884 583 911 702T938 942Q938 1006 927 1049T894 1120T840 1159T764 1171Q706 1171 663 1153T585 1099T523 1011T471 889Q434 787 410 670T385 416Q385 357 396 318T428 255T483 221T561
211Q604 211 643 223T719 266T786 348T846 477Z" />
<glyph unicode="1" glyph-name="one" horiz-adv-x="1255" d="M461 0L657 928H330L371 1118Q468 1124 538 1139T659 1184T749 1263T821 1384H1032L739 0H461Z" />
<glyph unicode="2" glyph-name="two" horiz-adv-x="1180" d="M-6 0L43 236Q125 296 216 364T394 501T557 634T686 752Q714 779 744 813T800 884T843 960T860 1038Q860 1098 825 1130T719 1163Q668 1163 626 1151T548 1117T483 1069T428 1012L244 1184Q289 1238
341 1280T455 1352T589 1397T748 1413Q844 1413 919 1393T1046 1331T1125 1225T1153 1071Q1153 1012 1134 953T1081 837T1004 728T909 629Q861 584 800 534T673 435T545 340T430 258H1020L967 0H-6Z" />
<glyph unicode="3" glyph-name="three" horiz-adv-x="1180" d="M446 844H551Q597 844 647 855T738 891T807 951T834 1038Q834 1063 826 1085T800 1125T753 1151T682 1161Q597 1161 528 1129T408 1038L227 1208Q273 1258 324 1296T436 1360T566 1399T721 1413Q929
1413 1027 1329T1126 1085Q1126 1030 1105 977T1042 877T934 793T780 733Q832 724 877 701T954 642T1005 558T1024 451Q1024 341 988 253T878 102T692 5T426 -29Q334 -29 261 -12T133 35T44 106T-6 195L233 350Q258 293 313 258T461 223Q534 223 585 241T668 289T716
357T731 434Q731 522 678 562T516 602H395L446 844Z" />
<glyph unicode="4" glyph-name="four" horiz-adv-x="1255" d="M944 229L897 0H633L680 229H-2L53 489L907 1384H1190L995 471H1161L1110 229H944ZM846 1004L330 471H731L846 1004Z" />
<glyph unicode="5" glyph-name="five" horiz-adv-x="1180" d="M1079 543Q1079 471 1066 410T1028 296T972 202T903 125Q822 51 703 11T428 -29Q253 -29 146 30T-20 199L227 356Q249 294 304 259T449 223Q529 223 592 242T698 299Q718 317 734 341T762 392T780
447T786 502Q786 587 740 631T590 676Q550 676 512 670T441 654T382 630T338 602H145L391 1384H1184L1128 1126H557L477 883Q521 900 572 911T692 922Q881 922 980 825T1079 543Z" />
<glyph unicode="6" glyph-name="six" horiz-adv-x="1180" d="M518 -29Q300 -29 195 80T90 389Q90 502 117 623T184 870Q232 1014 294 1116T434 1285T608 1382T819 1413Q942 1413 1032 1382T1194 1282L1006 1079Q986 1101 965 1118T920 1147T866 1165T799 1171Q733
1171 681 1148T588 1079T514 967T455 817Q530 865 597 889T743 913Q912 913 1005 823T1098 553Q1098 436 1059 330T946 145T764 18T518 -29ZM547 213Q607 213 655 236T738 300T792 393T811 508Q811 541 802 571T772 624T720 660T641 674Q603 674 568 667T501 649T445
624T401 598Q392 556 384 507T375 408Q375 369 383 334T410 271T463 229T547 213Z" />
<glyph unicode="7" glyph-name="seven" horiz-adv-x="1255" d="M520 0H199L920 1126H238L293 1384H1311L1274 1212L520 0Z" />
<glyph unicode="8" glyph-name="eight" horiz-adv-x="1180" d="M864 733Q910 707 948 679T1014 613T1057 527T1073 410Q1073 318 1034 238T921 99T740 6T496 -29Q383 -29 298 -9T155 53T68 161T39 319Q39 443 125 550T379 735Q340 757 310 782T259 841T228 916T217
1012Q217 1087 248 1159T344 1287T511 1378T754 1413Q1184 1413 1184 1081Q1184 1031 1168 986T1115 898T1016 815T864 733ZM655 836Q691 850 735 870T816 918T879 984T905 1071Q905 1097 896 1119T865 1158T811 1183T731 1192Q667 1192 622 1178T548 1140T506
1084T492 1016Q492 998 497 977T519 934T568 887T655 836ZM612 631Q539 600 485 570T394 506T340 429T322 332Q322 270 370 233T520 195Q583 195 633 210T719 252T774 320T793 412Q793 446 782 475T749 531T692 581T612 631Z" />
<glyph unicode="9" glyph-name="nine" horiz-adv-x="1180" d="M731 1413Q949 1413 1054 1304T1159 995Q1159 883 1132 761T1065 514Q1018 370 956 268T816 99T641 2T430 -29Q307 -29 217 2T55 102L244 305Q282 262 329 238T451 213Q517 213 569 236T662 305T735
417T795 567Q719 520 652 496T506 471Q337 471 245 561T152 831Q152 949 191 1054T304 1239T486 1366T731 1413ZM702 1171Q642 1171 594 1148T511 1084T457 991T438 877Q438 844 447 814T477 761T529 725T608 711Q647 711 682 718T749 736T805 761T848 786Q857
828 865 877T874 977Q874 1016 866 1051T839 1113T786 1155T702 1171Z" />
<glyph unicode=":" glyph-name="colon" horiz-adv-x="571" d="M373 203Q373 172 366 139T342 74Q317 27 276 7T170 -14Q98 -14 69 11T39 84Q39 113 46 145T66 207Q87 258 127 281T238 305Q310 305 341 280T373 203ZM530 946Q530 915 524 882T500 817Q475 771 434
750T328 729Q255 729 226 754T197 827Q197 856 204 888T223 950Q245 1001 285 1025T395 1049Q468 1049 499 1024T530 946Z" />
<glyph unicode=";" glyph-name="semicolon" horiz-adv-x="571" d="M530 946Q530 915 524 882T500 817Q475 771 434 750T328 729Q255 729 226 754T197 827Q197 856 204 888T223 950Q245 1001 285 1025T395 1049Q468 1049 499 1024T530 946ZM-31 -293Q0 -253 27
-211T77 -131T115 -61T137 -10Q39 -4 39 84Q39 139 61 197Q81 247 122 276T242 305Q310 305 339 274T369 186Q369 124 348 62T297 -61Q263 -131 222 -190T141 -293H-31Z" />
<glyph unicode="&lt;" glyph-name="less" horiz-adv-x="1427" d="M152 481V684L1315 1163V938L449 584L1315 229V4L152 481Z" />
<glyph unicode="=" glyph-name="equal" horiz-adv-x="1427" d="M162 725V930H1323V725H162ZM162 233V438H1323V233H162Z" />
<glyph unicode="&gt;" glyph-name="greater" horiz-adv-x="1427" d="M152 4V229L1018 584L152 938V1163L1315 684V481L152 4Z" />
<glyph unicode="?" glyph-name="question" horiz-adv-x="1051" d="M301 420L362 700Q486 752 570 794T707 877T781 960T803 1053Q803 1113 765 1142T639 1171Q595 1171 559 1161T491 1132T430 1085T371 1020L170 1163Q218 1228 270 1275T381 1353T509 1398T657
1413Q874 1413 985 1336T1096 1092Q1096 1006 1061 934T962 799T806 682T602 578L567 420H301ZM549 197Q549 163 541 130T518 70Q493 25 452 6T346 -14Q274 -14 244 9T213 80Q213 108 220 137T238 195Q259 247 299 270T412 293Q483 293 516 271T549 197Z" />
<glyph unicode="@" glyph-name="at" horiz-adv-x="1911" d="M1839 698Q1839 612 1823 529T1776 369T1698 229T1591 117T1458 43T1298 16Q1201 16 1147 56T1079 168Q1001 108 929 76T774 43Q689 43 631 69T538 143T487 254T471 393Q471 428 477 471T494 561T523
652T561 737Q597 804 645 856T750 946T874 1002T1014 1022Q1076 1022 1125 1005T1227 952L1235 993H1446L1298 297Q1292 265 1292 246Q1294 215 1311 208T1350 201Q1413 201 1466 243T1557 355T1616 513T1638 692Q1638 820 1604 920T1501 1090T1324 1195T1071 1231Q950
1231 845 1199T652 1110T495 973T379 797T306 593T281 369Q281 251 318 159T424 4T594 -93T823 -127Q884 -127 939 -125T1049 -118T1159 -104T1274 -82V-262Q1152 -290 1028 -299T782 -309Q621 -309 492 -266T271 -137T130 76T80 371Q80 502 110 630T198 875T341
1089T538 1260T786 1372T1081 1413Q1255 1413 1395 1370T1633 1238T1785 1015T1839 698ZM1184 758Q1092 827 1004 827Q917 827 857 789T754 664Q739 632 727 598T707 530T694 465T690 408Q690 360 697 329T719 279T759 252T819 244Q859 244 895 252T966 276T1034
313T1102 362L1184 758Z" />
<glyph unicode="A" glyph-name="A" horiz-adv-x="1311" d="M-82 0L657 1384H1018L1174 0H901L870 281H352L201 0H-82ZM481 528H844L784 1100L481 528Z" />
<glyph unicode="B" glyph-name="B" horiz-adv-x="1272" d="M905 745Q968 737 1020 715T1108 656T1165 572T1186 463Q1186 364 1149 280T1041 133T865 35T625 0H37L330 1384H782Q904 1384 990 1369T1131 1320T1211 1231T1237 1094Q1237 1035 1219 980T1161 879T1058
798T905 745ZM659 842Q706 842 755 850T846 880T913 937T940 1028Q940 1057 930 1078T895 1112T830 1132T731 1139H555L492 842H659ZM555 250Q583 250 619 251T692 257T764 275T827 309T872 366T889 451Q889 494 875 522T829 566T747 589T625 596H438L367 250H555Z"
/>
<glyph unicode="C" glyph-name="C" horiz-adv-x="1284" d="M1178 229Q1127 172 1067 125T936 43T781 -10T598 -29Q343 -29 216 97T88 494Q88 542 93 601T112 727T147 862T201 999Q241 1082 298 1157T433 1289T609 1379T831 1413Q932 1413 1011 1394T1151 1340T1255
1256T1329 1145L1085 995Q1063 1042 1038 1074T982 1126T911 1154T819 1163Q754 1163 701 1145T605 1093T528 1013T471 911Q445 852 428 794T401 683T386 583T381 498Q381 420 399 367T449 281T523 235T612 221Q670 221 719 230T812 261T897 317T983 399L1178 229Z"
/>
<glyph unicode="D" glyph-name="D" horiz-adv-x="1286" d="M1268 922Q1268 867 1262 803T1244 671T1211 534T1163 400T1096 277T1010 174Q958 126 895 93T760 39T606 9T438 0H25L317 1384H711Q849 1384 953 1361T1127 1283T1232 1141T1268 922ZM461 258Q523 258
575 262T670 276T749 304T813 350Q852 389 883 455T936 597T969 753T981 897Q981 964 963 1008T908 1078T815 1115T684 1126H539L354 258H461Z" />
<glyph unicode="E" glyph-name="E" horiz-adv-x="1126" d="M37 0L330 1384H1210L1157 1135H553L492 840H1001L948 590H438L367 258H971L918 0H37Z" />
<glyph unicode="F" glyph-name="F" horiz-adv-x="1081" d="M551 1126L487 827H987L936 578H436L313 0H37L330 1384H1202L1147 1126H551Z" />
<glyph unicode="G" glyph-name="G" horiz-adv-x="1386" d="M1143 999Q1103 1081 1032 1122T866 1163Q779 1163 718 1143T611 1084T532 990T467 864Q446 816 431 766T406 666T392 572T387 487Q387 413 400 362T446 280T531 235T662 221Q733 221 799 238T926 287L971
494H707L760 743H1303L1171 131Q1062 60 929 16T639 -29Q502 -29 400 -1T231 87T130 242T96 471Q96 579 120 700T197 940Q240 1037 296 1123T433 1273T625 1375T891 1413Q983 1413 1057 1398T1192 1351T1299 1273T1386 1165L1143 999Z" />
<glyph unicode="H" glyph-name="H" horiz-adv-x="1380" d="M848 0L973 588H438L313 0H37L330 1384H606L492 846H1026L1141 1384H1417L1124 0H848Z" />
<glyph unicode="I" glyph-name="I" horiz-adv-x="854" d="M643 0H-10L35 217H223L426 1167H238L283 1384H936L891 1167H702L500 217H688L643 0Z" />
<glyph unicode="J" glyph-name="J" horiz-adv-x="905" d="M723 377Q702 274 664 198T565 70T421 -6T223 -31Q148 -31 73 -17T-63 23L43 266Q77 248 127 234T233 219Q286 219 323 229T386 266T430 338T463 453L659 1384H936L723 377Z" />
<glyph unicode="K" glyph-name="K" horiz-adv-x="1255" d="M793 0L535 594L416 481L313 0H37L330 1384H606L500 881L1020 1384H1372L741 782L1116 0H793Z" />
<glyph unicode="L" glyph-name="L" horiz-adv-x="1018" d="M37 0L330 1384H606L367 258H936L883 0H37Z" />
<glyph unicode="M" glyph-name="M" horiz-adv-x="1634" d="M1110 0L1307 930L858 352H698L500 930L303 0H37L330 1384H633L848 727L1343 1384H1669L1376 0H1110Z" />
<glyph unicode="N" glyph-name="N" horiz-adv-x="1382" d="M809 0L516 989L307 0H37L330 1384H672L948 451L1147 1384H1419L1126 0H809Z" />
<glyph unicode="O" glyph-name="O" horiz-adv-x="1337" d="M594 -29Q455 -29 359 8T202 111T115 267T88 463Q88 519 93 580T111 705T142 834T188 961Q230 1058 286 1141T418 1284T592 1379T815 1413Q933 1413 1026 1381T1185 1285T1284 1124T1319 897Q1319 829
1303 730T1253 520Q1214 394 1156 293T1017 120T831 10T594 -29ZM375 485Q375 414 388 364T430 283T501 236T604 221Q674 221 731 245T833 314T914 423T975 567Q1001 648 1015 730T1030 879Q1030 1029 975 1096T795 1163Q733 1163 683 1145T591 1090T515 1002T453
883Q433 835 418 784T394 681T380 580T375 485Z" />
<glyph unicode="P" glyph-name="P" horiz-adv-x="1214" d="M1239 1036Q1239 971 1229 901T1193 763T1125 635T1020 528T872 455T674 428H403L313 0H37L330 1384H838Q935 1384 1009 1366T1135 1306T1212 1198T1239 1036ZM649 674Q741 674 799 699T889 769T934 872T946
999Q946 1072 905 1105T766 1139H555L457 674H649Z" />
<glyph unicode="Q" glyph-name="Q" horiz-adv-x="1337" d="M797 -348Q690 -348 618 -323T501 -253T437 -146T418 -8Q329 13 266 56T164 160T106 298T88 463Q88 519 93 580T111 705T142 834T188 961Q227 1053 284 1135T418 1279T594 1377T815 1413Q933 1413 1026
1381T1185 1285T1284 1124T1319 897Q1319 829 1304 730T1253 520Q1224 431 1179 344T1069 183T917 57T719 -16Q720 -40 726 -59T747 -90T788 -110T854 -117Q876 -117 903 -115T959 -108T1015 -98T1063 -86L1077 -313Q1050 -322 1012 -328T934 -339T858 -346T797
-348ZM375 485Q375 414 388 364T430 283T501 236T604 221Q679 221 738 248T844 322T923 431T979 561Q1005 642 1017 724T1030 879Q1030 1029 975 1096T795 1163Q731 1163 679 1141T584 1081T508 992T451 883Q431 835 417 784T393 681T380 580T375 485Z" />
<glyph unicode="R" glyph-name="R" horiz-adv-x="1257" d="M807 0L584 524H424L313 0H37L330 1384H813Q930 1384 1014 1367T1151 1310T1230 1203T1255 1040Q1255 995 1245 945T1216 846T1167 750T1100 666Q1050 618 989 590T868 549L1116 0H807ZM678 770Q761 770
812 784T895 829Q912 846 924 868T945 915T958 964T963 1010Q963 1046 954 1070T925 1110T871 1132T788 1139H555L475 770H678Z" />
<glyph unicode="S" glyph-name="S" horiz-adv-x="1204" d="M250 395Q268 357 290 326T346 271T425 234T537 221Q592 221 642 233T730 266T790 317T813 381Q813 418 808 443T776 492T697 538T547 594Q456 624 388 656T273 733T204 837T180 981Q180 1062 216 1140T324
1278T499 1376T741 1413Q912 1413 1030 1352T1229 1167L981 999Q961 1038 936 1068T878 1120T801 1152T700 1163Q651 1163 610 1153T538 1122T490 1074T473 1008Q473 974 487 950T530 905T606 867T717 829Q823 796 897 757T1019 668T1087 556T1108 416Q1108 317
1066 235T946 95T759 4T516 -29Q312 -29 183 36T0 229L250 395Z" />
<glyph unicode="T" glyph-name="T" horiz-adv-x="1180" d="M856 1126L618 0H342L580 1126H162L217 1384H1329L1274 1126H856Z" />
<glyph unicode="U" glyph-name="U" horiz-adv-x="1409" d="M1268 551Q1233 385 1177 274T1041 95T854 -2T612 -31Q379 -31 258 69T137 383Q137 420 142 476T164 602L330 1384H606L440 598Q428 544 423 491T418 399Q418 348 432 314T474 258T543 228T637 219Q707
219 763 235T864 293T942 407T999 594L1167 1384H1444L1268 551Z" />
<glyph unicode="V" glyph-name="V" horiz-adv-x="1219" d="M659 0H334L209 1384H473L559 340L1083 1384H1374L659 0Z" />
<glyph unicode="W" glyph-name="W" horiz-adv-x="1796" d="M1292 0H1010L977 915L553 0H274L225 1384H494L520 475L934 1384H1208L1241 475L1657 1384H1937L1292 0Z" />
<glyph unicode="X" glyph-name="X" horiz-adv-x="1260" d="M-80 0L524 721L233 1384H530L719 926L1094 1384H1415L825 696L1120 0H825L629 492L240 0H-80Z" />
<glyph unicode="Y" glyph-name="Y" horiz-adv-x="1163" d="M721 528L610 0H332L442 522L201 1384H485L627 795L1020 1384H1329L721 528Z" />
<glyph unicode="Z" glyph-name="Z" horiz-adv-x="1124" d="M-39 0L8 238L803 1126H227L283 1384H1206L1159 1157L354 258H983L930 0H-39Z" />
<glyph unicode="[" glyph-name="bracketleft" horiz-adv-x="750" d="M-43 -395L354 1489H893L850 1282H547L233 -188H537L494 -395H-43Z" />
<glyph unicode="\" glyph-name="backslash" horiz-adv-x="1016" d="M614 -299L311 1520H553L854 -299H614Z" />
<glyph unicode="]" glyph-name="bracketright" horiz-adv-x="750" d="M-133 -395L-90 -188H211L524 1282H221L264 1489H803L403 -395H-133Z" />
<glyph unicode="^" glyph-name="asciicircum" horiz-adv-x="1184" d="M915 649L745 1167L354 649H147L698 1384H868L1106 649H915Z" />
<glyph unicode="_" glyph-name="underscore" horiz-adv-x="1024" d="M-166 -256L-143 -154H901L879 -256H-166Z" />
<glyph unicode="`" glyph-name="grave" horiz-adv-x="1024" d="M639 1208L412 1569H711L829 1208H639Z" />
<glyph unicode="a" glyph-name="a" horiz-adv-x="1192" d="M66 344Q66 423 81 508T128 674T205 829T312 958T448 1046T614 1079Q707 1079 776 1051T893 971L909 1049H1159L940 0H729L735 129Q683 85 639 55T553 5T471 -22T385 -31Q310 -31 251 -10T151 56T88 173T66
344ZM848 758Q832 776 810 793T762 823T707 844T647 852Q594 852 551 830T473 771T413 685T370 584T345 479T336 381Q336 285 368 241T469 197Q508 197 547 209T624 239T696 281T758 326L848 758Z" />
<glyph unicode="b" glyph-name="b" horiz-adv-x="1192" d="M231 0H33L348 1489H600L489 965Q525 992 565 1013T644 1048T722 1071T795 1079Q875 1079 937 1058T1041 992T1106 876T1128 705Q1128 632 1116 558T1080 414T1022 278T946 156Q877 65 783 17T567 -31Q470
-31 401 3T283 94L231 0ZM346 291Q362 273 384 256T432 226T487 205T547 197Q596 197 649 222T748 309Q771 340 791 382T826 471T849 569T858 668Q858 763 824 807T705 852Q673 852 639 844T572 823T506 790T446 750L346 291Z" />
<glyph unicode="c" glyph-name="c" horiz-adv-x="1038" d="M911 150Q872 107 824 74T721 17T606 -19T483 -31Q370 -31 291 -3T163 79T91 214T68 399Q68 457 81 530T122 678T197 826T309 954T463 1044T664 1079Q739 1079 798 1068T905 1033T989 976T1053 895L840
762Q812 809 769 831T651 854Q592 854 546 831T465 770T405 683T364 583T341 482T334 393Q334 347 341 310T369 248T423 209T510 195Q578 195 636 222T743 299L911 150Z" />
<glyph unicode="d" glyph-name="d" horiz-adv-x="1192" d="M66 344Q66 417 78 491T114 635T172 771T248 893Q317 984 411 1031T627 1079Q710 1079 778 1051T893 971L1004 1489H1253L940 0H709L729 102Q648 40 564 5T399 -31Q319 -31 257 -10T153 56T88 173T66
344ZM446 739Q423 707 403 666T368 577T345 480T336 381Q336 286 370 242T489 197Q520 197 555 205T624 226T691 259T752 299L848 758Q832 776 810 793T762 823T707 844T647 852Q598 852 545 827T446 739Z" />
<glyph unicode="e" glyph-name="e" horiz-adv-x="1120" d="M338 457Q333 434 332 412T330 371Q330 278 377 237T514 195Q605 195 668 221T784 295L928 131Q889 93 848 63T755 12T639 -20T492 -31Q376 -31 295 0T163 85T89 212T66 369Q66 502 106 630T227 872Q260
918 303 956T401 1021T521 1064T662 1079Q767 1079 843 1055T968 985T1041 870T1065 715Q1065 693 1061 658T1051 590L1024 457H338ZM805 635Q810 660 812 680T815 721Q815 798 779 836T651 874Q582 874 535 850T453 782Q430 753 411 714T379 635H805Z" />
<glyph unicode="f" glyph-name="f" horiz-adv-x="647" d="M842 1266Q810 1280 779 1287T713 1294Q642 1294 605 1262T551 1151L528 1049H737L694 844H485L307 0H53L231 844H102L145 1049H274L297 1151Q315 1238 346 1306T427 1422T549 1495T723 1520Q786 1520
840 1510T934 1485L842 1266Z" />
<glyph unicode="g" glyph-name="g" horiz-adv-x="1192" d="M944 20Q922 -85 882 -163T773 -292T603 -369T356 -395Q293 -395 233 -389T120 -371T21 -343T-59 -305L57 -94Q123 -129 203 -149T371 -170Q449 -170 505 -159T598 -124T658 -61T692 31L711 117Q676 91
639 70T564 33T490 9T420 0Q328 0 262 23T154 96T92 221T72 403Q72 485 88 567T137 724T218 864T330 976T472 1051T643 1079Q684 1079 723 1069T798 1042T862 1002T913 950L967 1049H1161L944 20ZM846 758Q804 806 754 829T639 852Q589 852 547 832T472 778T414
700T373 607T348 509T340 416Q340 365 347 329T372 271T418 238T489 227Q548 227 614 250T756 330L846 758Z" />
<glyph unicode="h" glyph-name="h" horiz-adv-x="1192" d="M694 0L817 578Q828 632 835 675T842 756Q842 808 818 830T748 852Q710 852 670 839T589 805T509 757T432 700L285 0H33L348 1489H600L477 913Q516 947 559 977T649 1030T747 1066T852 1079Q923 1079
971 1059T1049 1004T1091 924T1104 829Q1104 783 1098 737T1085 662L946 0H694Z" />
<glyph unicode="i" glyph-name="i" horiz-adv-x="539" d="M33 0L254 1049H506L285 0H33ZM295 1300Q295 1321 302 1349T327 1404T379 1448T463 1466Q531 1466 559 1441T588 1372Q588 1348 580 1319T553 1264T501 1221T418 1204Q383 1204 359 1210T321 1229T301
1260T295 1300Z" />
<glyph unicode="j" glyph-name="j" horiz-adv-x="551" d="M289 -45Q269 -139 235 -205T150 -314T29 -375T-135 -395Q-152 -395 -178 -393T-233 -388T-291 -379T-344 -365L-244 -141Q-212 -155 -177 -162T-100 -170Q-63 -170 -39 -159T1 -122T28 -58T51 37L266
1049H520L289 -45ZM309 1300Q309 1321 316 1349T341 1404T393 1448T477 1466Q545 1466 573 1441T602 1372Q602 1348 594 1319T567 1264T515 1221T432 1204Q397 1204 373 1210T335 1229T315 1260T309 1300Z" />
<glyph unicode="k" glyph-name="k" horiz-adv-x="1077" d="M668 0L483 442L352 326L285 0H33L348 1489H600L424 655L836 1049H1145L670 602L944 0H668Z" />
<glyph unicode="l" glyph-name="l" horiz-adv-x="539" d="M33 0L348 1489H600L285 0H33Z" />
<glyph unicode="m" glyph-name="m" horiz-adv-x="1755" d="M1255 0L1386 618Q1397 669 1402 705T1407 768Q1407 813 1384 832T1321 852Q1292 852 1258 840T1188 808T1116 759T1044 700L897 0H643L774 618Q785 669 790 704T795 754Q795 777 792 795T780 826T754
845T709 852Q677 852 642 839T569 804T497 755T432 700L285 0H33L254 1049H506L477 913Q564 992 650 1035T823 1079Q935 1079 996 1033T1063 891Q1117 936 1165 971T1257 1030T1342 1066T1425 1079Q1497 1079 1544 1062T1620 1013T1661 938T1673 844Q1673 807 1669
766T1653 678L1509 0H1255Z" />
<glyph unicode="n" glyph-name="n" horiz-adv-x="1192" d="M694 0L817 578Q828 632 835 675T842 762Q842 810 819 831T752 852Q713 852 672 839T589 805T509 757T432 700L285 0H33L254 1049H506L477 913Q516 947 559 977T648 1030T744 1066T846 1079Q919 1079
968 1059T1048 1004T1091 924T1104 829Q1104 783 1098 737T1085 662L946 0H694Z" />
<glyph unicode="o" glyph-name="o" horiz-adv-x="1165" d="M68 381Q68 435 77 503T109 643T169 786T262 915Q337 994 437 1036T680 1079Q775 1079 852 1053T984 973T1068 838T1098 649Q1098 600 1087 533T1052 393T987 248T887 117Q845 75 802 47T710 2T605 -23T481
-31Q369 -31 291 -2T163 80T91 210T68 381ZM334 377Q334 334 343 300T372 243T426 208T508 195Q573 195 622 221T711 291Q738 323 761 368T800 461T825 557T834 643Q834 745 789 799T649 854Q586 854 536 826T449 752Q423 719 402 674T365 579T342 477T334 377Z"
/>
<glyph unicode="p" glyph-name="p" horiz-adv-x="1192" d="M201 -395H-49L254 1049H485L465 946Q546 1008 630 1043T795 1079Q875 1079 937 1058T1041 992T1106 876T1128 705Q1128 642 1116 563T1077 402T1006 243T900 104T755 6T567 -31Q484 -31 416 -3T301 78L201
-395ZM346 291Q362 273 384 256T432 226T487 205T547 197Q600 197 643 219T721 278T781 364T824 464T849 569T858 668Q858 763 824 807T705 852Q673 852 639 844T570 823T503 790T442 750L346 291Z" />
<glyph unicode="q" glyph-name="q" horiz-adv-x="1192" d="M702 84Q656 51 616 29T539 -6T468 -25T399 -31Q319 -31 257 -10T153 59T88 182T66 365Q66 436 81 516T125 676T200 828T304 957T439 1046T604 1079Q704 1079 780 1049T913 950L967 1049H1161L856 -395H604L702
84ZM848 758Q832 776 810 793T762 823T707 844T647 852Q585 852 539 827T457 761T399 669T362 565T342 465T336 381Q336 286 370 242T489 197Q520 197 555 205T624 226T691 259T752 299L848 758Z" />
<glyph unicode="r" glyph-name="r" horiz-adv-x="823" d="M819 795Q805 803 779 810T719 817Q650 817 580 782T428 682L285 0H33L254 1049H506L475 899Q560 980 638 1022T791 1065Q809 1065 828 1063T865 1058T897 1051T920 1042L819 795Z" />
<glyph unicode="s" glyph-name="s" horiz-adv-x="1006" d="M211 287Q229 255 251 235T301 202T359 185T424 180Q533 180 582 212T631 295Q631 316 625 332T598 364T541 393T442 424Q353 447 295 475T201 540T152 623T137 727Q137 797 166 861T252 973T394 1050T592
1079Q730 1079 827 1037T993 899L776 762Q750 811 696 839T567 868Q521 868 489 858T435 833T405 801T395 768Q395 746 400 729T423 698T470 671T551 645Q648 620 713 591T817 524T872 441T889 334Q889 256 858 190T767 74T617 -3T410 -31Q322 -31 257 -19T142
16T58 73T-6 152L211 287Z" />
<glyph unicode="t" glyph-name="t" horiz-adv-x="725" d="M600 0Q552 -15 493 -23T387 -31Q312 -31 259 -14T171 36T122 114T106 217Q106 246 110 278T123 348L227 844H98L141 1049H270L334 1341H588L524 1049H764L721 844H481L377 350Q372 327 370 308T367 272Q367
221 388 202T444 182Q480 182 522 188T600 207V0Z" />
<glyph unicode="u" glyph-name="u" horiz-adv-x="1192" d="M500 1049L377 471Q366 417 360 376T354 303Q354 243 376 220T444 197Q483 197 523 209T605 243T685 291T762 348L909 1049H1161L940 0H688L717 135Q678 101 635 71T547 19T454 -17T358 -31Q281 -31 230
-11T147 44T103 124T90 219Q90 266 96 312T109 387L248 1049H500Z" />
<glyph unicode="v" glyph-name="v" horiz-adv-x="1020" d="M514 0H281L137 1049H383L467 348L831 1049H1104L514 0Z" />
<glyph unicode="w" glyph-name="w" horiz-adv-x="1534" d="M1122 0H891L801 668L428 0H197L137 1049H389L406 373L778 1049H969L1061 379L1356 1049H1618L1122 0Z" />
<glyph unicode="x" glyph-name="x" horiz-adv-x="1057" d="M637 0L489 338L225 0H-78L385 547L147 1049H422L565 723L834 1049H1137L670 516L918 0H637Z" />
<glyph unicode="y" glyph-name="y" horiz-adv-x="1063" d="M-117 -141Q-76 -157 -37 -163T35 -170Q63 -170 90 -161T145 -128T202 -67T266 27L303 88L137 1049H389L492 373L879 1049H1149L469 -72Q418 -157 370 -218T269 -318T152 -376T6 -395Q-42 -395 -96 -385T-205
-358L-117 -141Z" />
<glyph unicode="z" glyph-name="z" horiz-adv-x="911" d="M-53 0L-16 188L590 844H135L178 1049H950L911 862L303 205H786L743 0H-53Z" />
<glyph unicode="{" glyph-name="braceleft" horiz-adv-x="897" d="M573 -395Q398 -395 318 -328T238 -129Q238 -84 244 -45T258 33L283 152Q289 181 294 214T299 281Q299 362 259 407T125 453H86L133 674H172Q236 674 282 692T363 748T420 842T459 975L487 1114Q509
1215 543 1291T630 1418T760 1494T944 1520H1049L1006 1313H965Q908 1313 868 1302T799 1265T752 1199T721 1100L686 934Q651 770 575 677T362 555Q404 540 436 516T492 461T527 392T539 313Q539 281 533 243T522 178L492 25Q487 -1 482 -26T477 -82Q477 -136 512
-162T610 -188H686L643 -395H573Z" />
<glyph unicode="|" glyph-name="bar" horiz-adv-x="801" d="M336 -395V1520H575V-395H336Z" />
<glyph unicode="}" glyph-name="braceright" horiz-adv-x="897" d="M332 1520Q507 1520 587 1452T668 1253Q668 1208 662 1169T647 1092L623 973Q616 944 611 911T606 844Q606 762 646 717T780 672H819L772 451H733Q669 451 623 433T542 377T485 283T446 150L418
10Q396 -91 362 -167T275 -293T145 -369T-39 -395H-143L-100 -188H-59Q-2 -188 38 -177T107 -140T154 -75T184 25L219 190Q254 355 330 448T543 569Q501 584 469 608T414 663T379 732T367 811Q367 843 372 881T383 946L414 1100Q419 1126 423 1150T428 1206Q428
1260 393 1286T295 1313H219L262 1520H332Z" />
<glyph unicode="~" glyph-name="asciitilde" horiz-adv-x="1358" d="M203 809Q264 854 314 879T403 916T470 930T516 932Q589 932 650 908T765 853T868 799T967 774Q1045 774 1126 812T1303 922L1255 700Q1217 673 1178 650T1101 608T1024 580T948 569Q871 569
808 593T689 648T586 702T492 727Q447 727 403 715T317 682T233 635T154 580L203 809Z" />
</font>
</defs>
</svg>
