<?xml version="1.0" standalone="no"?> <!DOCTYPE svg PUBLIC "-//W3C//DTD SVG 1.0//EN" "http://www.w3.org/TR/2001/REC-SVG-20010904/DTD/svg10.dtd" > <svg xmlns="http://www.w3.org/2000/svg" width="100%" height="100%">
<defs >
<font id="clearsans-bold" horiz-adv-x="1216" ><font-face
    font-family="Clear Sans"
    units-per-em="2048"
    panose-1="2 11 8 3 3 2 2 2 3 4"
    ascent="2206"
    descent="-563"
    alphabetic="0" />
<missing-glyph horiz-adv-x="1022" d="M25 1362H997V0H25V1362ZM512 768L842 1266H180L512 768ZM123 186L453 682L123 1178V186ZM569 682L901 184V1178L569 682ZM512 594L180 98H842L512 594Z" />
<glyph unicode=" " glyph-name="space" horiz-adv-x="492" />
<glyph unicode="!" glyph-name="exclam" horiz-adv-x="584" d="M401 440H186L152 1384H432L401 440ZM455 139Q455 53 416 20T291 -14Q197 -14 163 23T129 139Q129 221 165 257T291 293Q383 293 419 258T455 139Z" />
<glyph unicode="&quot;" glyph-name="quotedbl" horiz-adv-x="977" d="M795 772H610L565 1384H840L795 772ZM367 772H182L137 1384H412L367 772Z" />
<glyph unicode="#" glyph-name="numbersign" horiz-adv-x="1405" d="M1055 821L985 563H1217V383H938L834 0H641L745 383H498L393 0H201L305 383H72V563H352L422 821H188V1001H471L575 1386H768L664 1001H911L1016 1386H1208L1104 1001H1333V821H1055ZM614 821L545
563H793L862 821H614Z" />
<glyph unicode="$" glyph-name="dollar" horiz-adv-x="1280" d="M1169 430Q1169 264 1058 172T741 63V-133H561V59Q251 91 123 291L328 430Q365 381 427 336T561 283V598Q397 639 315 684T190 797T147 956Q147 1116 258 1203T561 1307V1413H741V1307Q885 1296
988 1238T1151 1083L958 946Q924 993 868 1033T741 1083V803Q932 753 1010 707T1128 595T1169 430ZM561 1087Q496 1083 455 1055T414 971Q414 932 444 903T561 850V1087ZM903 408Q903 459 869 491T741 553V281Q815 289 859 322T903 408Z" />
<glyph unicode="%" glyph-name="percent" horiz-adv-x="2163" d="M1681 -31Q1496 -31 1393 83T1290 414Q1290 633 1390 748T1681 864Q1874 864 1974 748T2075 414Q2075 198 1973 84T1681 -31ZM590 -51L1337 1436H1575L825 -51H590ZM479 518Q294 518 191 632T88
963Q88 1184 189 1298T479 1413Q671 1413 771 1297T872 963Q872 747 771 633T479 518ZM1681 150Q1762 150 1795 213T1829 414Q1829 511 1813 572T1768 658T1681 684Q1603 684 1570 620T1536 414Q1536 262 1573 206T1681 150ZM479 698Q559 698 593 761T627 963Q627
1099 595 1166T479 1233Q401 1233 368 1169T334 963Q334 811 371 755T479 698Z" />
<glyph unicode="&amp;" glyph-name="ampersand" horiz-adv-x="1417" d="M1049 0L977 86Q905 37 819 4T604 -29Q367 -29 230 80T92 373Q92 504 149 590T381 784Q322 856 280 932T238 1085Q238 1245 344 1329T647 1413Q812 1413 918 1339T1024 1130Q1024 1058 993
994T908 874T743 745L1006 436Q1070 523 1108 666L1335 614Q1284 403 1159 258L1376 0H1049ZM764 1128Q764 1169 730 1196T641 1223Q571 1223 536 1189T500 1096Q500 1055 523 1015T594 922Q659 965 697 999T750 1060T764 1128ZM526 612Q432 553 395 498T358 371Q358
281 425 231T608 180Q737 180 834 256L526 612Z" />
<glyph unicode="&apos;" glyph-name="quotesingle" horiz-adv-x="549" d="M367 772H182L137 1384H412L367 772Z" />
<glyph unicode="(" glyph-name="parenleft" horiz-adv-x="856" d="M522 -395Q113 38 113 561Q113 1089 522 1522H815Q598 1317 478 1084T358 561Q358 272 478 41T815 -395H522Z" />
<glyph unicode=")" glyph-name="parenright" horiz-adv-x="856" d="M41 -395Q258 -190 378 41T498 561Q498 850 378 1083T41 1522H334Q743 1089 743 561Q743 38 334 -395H41Z" />
<glyph unicode="*" glyph-name="asterisk" horiz-adv-x="911" d="M791 834L532 993L543 733H369L381 993L121 834L31 983L313 1124L31 1270L121 1419L379 1260L369 1520H543L530 1260L791 1419L881 1268L598 1126L881 983L791 834Z" />
<glyph unicode="+" glyph-name="plus" horiz-adv-x="1427" d="M817 479V2H612V479H133V684H612V1163H817V684H1294V479H817Z" />
<glyph unicode="," glyph-name="comma" horiz-adv-x="584" d="M145 -293Q186 -224 217 -142T254 -10Q188 -6 159 32T129 145Q129 219 164 262T295 305Q455 305 455 125Q455 2 413 -109T322 -293H145Z" />
<glyph unicode="-" glyph-name="hyphen" horiz-adv-x="786" d="M82 399V653H705V399H82Z" />
<glyph unicode="." glyph-name="period" horiz-adv-x="584" d="M455 145Q455 59 416 23T291 -14Q197 -14 163 27T129 145Q129 227 165 266T291 305Q383 305 419 267T455 145Z" />
<glyph unicode="/" glyph-name="slash" horiz-adv-x="1036" d="M242 -299H-12L678 1520H934L242 -299Z" />
<glyph unicode="0" glyph-name="zero" horiz-adv-x="1280" d="M1180 692Q1180 319 1049 144T639 -31Q362 -31 231 144T100 690Q100 1061 231 1237T639 1413Q918 1413 1049 1238T1180 692ZM889 692Q889 940 829 1055T639 1171Q510 1171 451 1055T391 690Q391 442
450 327T639 211Q768 211 828 327T889 692Z" />
<glyph unicode="1" glyph-name="one" horiz-adv-x="1280" d="M584 0V928H248V1118Q392 1127 465 1152T582 1232T651 1384H866V0H584Z" />
<glyph unicode="2" glyph-name="two" horiz-adv-x="1204" d="M106 0V236Q269 373 403 498T610 705T723 863T764 1022Q764 1087 715 1125T580 1163Q487 1163 428 1120T330 1018L102 1178Q187 1305 303 1359T594 1413Q808 1413 931 1313T1055 1032Q1055 899 1007
799T869 604T646 395T481 258H1100V0H106Z" />
<glyph unicode="3" glyph-name="three" horiz-adv-x="1204" d="M1055 389Q1055 176 916 74T532 -29Q358 -29 238 34T66 195L293 350Q330 293 385 258T535 223Q655 223 709 269T764 410Q764 602 510 602H387V844H494Q621 844 679 894T737 1024Q737 1083 695 1122T557
1161Q461 1161 404 1131T305 1038L80 1196Q162 1307 278 1360T578 1413Q717 1413 820 1370T977 1249T1030 1073Q1030 802 750 733Q887 724 971 630T1055 389Z" />
<glyph unicode="4" glyph-name="four" horiz-adv-x="1280" d="M1028 229V0H758V229H63V489L739 1384H1028V471H1198V229H1028ZM758 1014L338 471H758V1014Z" />
<glyph unicode="5" glyph-name="five" horiz-adv-x="1204" d="M1100 455Q1100 229 956 100T539 -29Q200 -29 49 199L274 358Q351 223 535 223Q811 223 811 461Q811 561 739 618T537 676Q399 676 328 602H131L213 1384H1022V1126H438L410 883Q505 922 621 922Q843
922 971 803T1100 455Z" />
<glyph unicode="6" glyph-name="six" horiz-adv-x="1204" d="M623 -29Q373 -29 237 136T100 608Q100 1000 247 1206T676 1413Q943 1413 1071 1300L911 1083Q862 1126 807 1148T676 1171Q541 1171 480 1079T401 817Q481 871 544 892T696 913Q891 913 1005 794T1120
449Q1120 227 986 99T623 -29ZM625 213Q719 213 778 263T838 442Q838 548 779 611T621 674Q543 674 484 649T393 598Q393 445 416 373T489 257T625 213Z" />
<glyph unicode="7" glyph-name="seven" horiz-adv-x="1280" d="M631 0H315L825 1126H113V1384H1151V1212L631 0Z" />
<glyph unicode="8" glyph-name="eight" horiz-adv-x="1204" d="M1118 375Q1118 183 985 77T602 -29Q356 -29 220 72T84 375Q84 498 153 590T340 735Q228 790 173 868T117 1038Q117 1221 245 1317T602 1413Q825 1413 955 1320T1085 1040Q1085 978 1056 925T979
829T836 733Q951 677 1006 628T1089 516T1118 375ZM809 1036Q809 1102 761 1147T602 1192Q483 1192 438 1147T393 1042Q393 997 413 966T479 901T602 836Q719 887 764 936T809 1036ZM836 375Q836 461 779 518T602 631Q475 575 421 518T367 373Q367 295 423 245T602
195Q725 195 780 247T836 375Z" />
<glyph unicode="9" glyph-name="nine" horiz-adv-x="1204" d="M274 301Q375 213 530 213Q763 213 803 567Q743 526 681 499T530 471Q317 471 201 591T84 936Q84 1152 217 1282T571 1413Q842 1413 973 1244T1104 776Q1104 390 958 181T530 -29Q252 -29 117 86L274
301ZM584 711Q662 711 721 736T811 786Q811 997 756 1084T575 1171Q477 1171 421 1111T365 942Q365 837 423 774T584 711Z" />
<glyph unicode=":" glyph-name="colon" horiz-adv-x="584" d="M455 889Q455 803 416 766T291 729Q197 729 163 770T129 889Q129 971 165 1010T291 1049Q383 1049 419 1011T455 889ZM455 145Q455 59 416 23T291 -14Q197 -14 163 27T129 145Q129 227 165 266T291
305Q383 305 419 267T455 145Z" />
<glyph unicode=";" glyph-name="semicolon" horiz-adv-x="584" d="M455 889Q455 803 416 766T291 729Q197 729 163 770T129 889Q129 971 165 1010T291 1049Q383 1049 419 1011T455 889ZM455 125Q455 2 413 -109T322 -293H145Q186 -224 217 -142T254 -10Q188 -6
159 32T129 145Q129 219 164 262T295 305Q455 305 455 125Z" />
<glyph unicode="&lt;" glyph-name="less" horiz-adv-x="1427" d="M131 481V684L1294 1163V938L428 584L1294 229V4L131 481Z" />
<glyph unicode="=" glyph-name="equal" horiz-adv-x="1427" d="M133 725V930H1294V725H133ZM133 233V438H1294V233H133Z" />
<glyph unicode="&gt;" glyph-name="greater" horiz-adv-x="1427" d="M131 4V229L997 584L131 938V1163L1294 684V481L131 4Z" />
<glyph unicode="?" glyph-name="question" horiz-adv-x="1071" d="M332 399V700Q495 768 567 812T674 905T709 1018Q709 1171 512 1171Q422 1171 368 1136T268 1026L35 1165Q104 1288 219 1350T510 1413Q748 1413 873 1315T999 1038Q999 939 959 862T844 722T604
578V399H332ZM635 139Q635 53 596 20T471 -14Q377 -14 343 23T309 139Q309 221 345 257T471 293Q563 293 599 257T635 139Z" />
<glyph unicode="@" glyph-name="at" horiz-adv-x="1950" d="M1845 569Q1845 400 1800 277T1665 85T1440 16Q1341 16 1276 43T1182 141Q1041 43 899 43Q772 43 684 102T550 268T504 518Q504 749 617 885T932 1022Q1045 1022 1163 952V993H1378V297Q1378 231 1400
216T1452 201Q1516 201 1558 247T1622 375T1645 561Q1645 889 1477 1060T991 1231Q796 1231 638 1143T393 899T305 551Q305 344 389 190T627 -45T987 -127Q1110 -127 1215 -118T1436 -82L1475 -262Q1285 -309 985 -309Q725 -309 525 -205T215 97T104 553Q104 792
218 989T537 1300T989 1413Q1391 1413 1618 1190T1845 569ZM1161 758Q1047 827 963 827Q846 827 786 755T725 520Q725 377 780 311T938 244Q1027 244 1161 336V758Z" />
<glyph unicode="A" glyph-name="A" horiz-adv-x="1337" d="M27 0L485 1384H852L1311 0H1022L930 281H397L307 0H27ZM477 528H850L664 1100L477 528Z" />
<glyph unicode="B" glyph-name="B" horiz-adv-x="1298" d="M1210 401Q1210 193 1067 97T670 0H150V1384H639Q905 1384 1020 1307T1135 1061Q1135 932 1073 852T877 745Q1051 721 1130 635T1210 401ZM850 999Q850 1078 792 1108T612 1139H432V842H604Q729 842 789
877T850 999ZM922 426Q922 519 859 557T623 596H432V250H575Q740 250 802 266T893 320T922 426Z" />
<glyph unicode="C" glyph-name="C" horiz-adv-x="1333" d="M1276 229Q1187 96 1058 34T739 -29Q96 -29 96 692Q96 1061 259 1237T729 1413Q932 1413 1060 1345T1255 1165L1036 995Q988 1067 948 1099T857 1147T735 1163Q565 1163 476 1055T387 692Q387 455 470
338T737 221Q860 221 928 268T1053 393L1276 229Z" />
<glyph unicode="D" glyph-name="D" horiz-adv-x="1313" d="M1227 692Q1227 442 1158 290T950 69T559 0H137V1384H555Q800 1384 944 1313T1158 1092T1227 692ZM936 694Q936 875 901 962T780 1088T528 1126H420V258H528Q695 258 779 296T900 425T936 694Z" />
<glyph unicode="E" glyph-name="E" horiz-adv-x="1149" d="M150 0V1384H1049V1135H432V840H952V590H432V258H1049V0H150Z" />
<glyph unicode="F" glyph-name="F" horiz-adv-x="1104" d="M432 1126V827H942V578H432V0H150V1384H1040V1126H432Z" />
<glyph unicode="G" glyph-name="G" horiz-adv-x="1415" d="M1065 995Q1012 1081 936 1122T745 1163Q556 1163 472 1042T387 680Q387 442 470 332T739 221Q879 221 997 279V494H727V743H1280V131Q1184 59 1042 15T748 -29Q424 -29 260 140T96 680Q96 1413 741 1413Q929
1413 1069 1350T1282 1165L1065 995Z" />
<glyph unicode="H" glyph-name="H" horiz-adv-x="1409" d="M977 0V588H432V0H150V1384H432V846H977V1384H1260V0H977Z" />
<glyph unicode="I" glyph-name="I" horiz-adv-x="872" d="M770 0H102V217H295V1167H102V1384H770V1167H578V217H770V0Z" />
<glyph unicode="J" glyph-name="J" horiz-adv-x="924" d="M770 377Q770 158 660 64T313 -31Q262 -31 171 -16T20 23L106 274Q138 257 208 238T319 219Q393 219 426 239T473 309T487 453V1384H770V377Z" />
<glyph unicode="K" glyph-name="K" horiz-adv-x="1280" d="M899 0L516 578L432 481V0H150V1384H432V844L885 1384H1214L698 788L1251 0H899Z" />
<glyph unicode="L" glyph-name="L" horiz-adv-x="1038" d="M150 0V1384H432V258H1014V0H150Z" />
<glyph unicode="M" glyph-name="M" horiz-adv-x="1667" d="M1245 0V930L913 352H750L422 930V0H150V1384H475L836 727L1200 1384H1518V0H1245Z" />
<glyph unicode="N" glyph-name="N" horiz-adv-x="1411" d="M930 0L426 989V0H150V1384H516L985 451V1384H1262V0H930Z" />
<glyph unicode="O" glyph-name="O" horiz-adv-x="1364" d="M1278 692Q1278 331 1126 151T682 -29Q375 -29 231 160T86 692Q86 1036 230 1224T682 1413Q991 1413 1134 1225T1278 692ZM987 692Q987 938 918 1050T682 1163Q516 1163 447 1051T377 692Q377 446 447
334T682 221Q848 221 917 333T987 692Z" />
<glyph unicode="P" glyph-name="P" horiz-adv-x="1239" d="M1161 920Q1161 670 1044 549T662 428H432V0H150V1384H670Q905 1384 1033 1275T1161 920ZM870 918Q870 1035 806 1087T573 1139H432V674H547Q702 674 761 695T845 768T870 918Z" />
<glyph unicode="Q" glyph-name="Q" horiz-adv-x="1364" d="M1282 -313Q1248 -324 1164 -336T1004 -348Q605 -348 543 -18Q330 14 208 187T86 692Q86 1038 230 1225T684 1413Q991 1413 1134 1225T1278 692Q1278 81 850 -14Q860 -68 893 -92T1012 -117Q1057 -117
1116 -108T1217 -86L1282 -313ZM987 692Q987 938 918 1050T684 1163Q514 1163 446 1051T377 692Q377 446 446 334T684 221Q852 221 919 335T987 692Z" />
<glyph unicode="R" glyph-name="R" horiz-adv-x="1284" d="M928 0L575 524H432V0H150V1384H653Q920 1384 1043 1288T1167 973Q1167 796 1093 691T881 557L1251 0H928ZM881 961Q881 1067 828 1103T651 1139H432V770H639Q734 770 785 788T858 844T881 961Z" />
<glyph unicode="S" glyph-name="S" horiz-adv-x="1229" d="M1145 401Q1145 193 1009 82T606 -29Q422 -29 287 32T66 229L283 395Q331 327 374 293T476 240T612 221Q727 221 791 260T856 381Q856 427 834 458T766 511T610 563Q502 592 407 621T242 698T132 816T92
995Q92 1192 225 1302T606 1413Q965 1413 1114 1167L899 999Q842 1087 771 1125T602 1163Q504 1163 443 1128T381 1016Q381 949 445 914T668 842Q756 819 842 793T995 719T1104 596T1145 401Z" />
<glyph unicode="T" glyph-name="T" horiz-adv-x="1204" d="M743 1126V0H461V1126H35V1384H1169V1126H743Z" />
<glyph unicode="U" glyph-name="U" horiz-adv-x="1438" d="M1288 578Q1288 253 1156 111T719 -31Q417 -31 284 109T150 578V1384H432V598Q432 457 459 376T545 257T717 219Q878 219 942 304T1006 594V1384H1288V578Z" />
<glyph unicode="V" glyph-name="V" horiz-adv-x="1243" d="M786 0H453L27 1384H313L625 352L936 1384H1217L786 0Z" />
<glyph unicode="W" glyph-name="W" horiz-adv-x="1833" d="M1432 0H1143L911 915L678 0H393L43 1384H324L545 481L774 1384H1053L1284 475L1511 1384H1790L1432 0Z" />
<glyph unicode="X" glyph-name="X" horiz-adv-x="1286" d="M29 0L492 694L41 1384H362L649 918L946 1384H1257L803 700L1255 0H938L641 477L340 0H29Z" />
<glyph unicode="Y" glyph-name="Y" horiz-adv-x="1188" d="M735 528V0H451V522L18 1384H326L596 805L872 1384H1169L735 528Z" />
<glyph unicode="Z" glyph-name="Z" horiz-adv-x="1147" d="M72 0V238L707 1126H102V1384H1044V1157L403 258H1061V0H72Z" />
<glyph unicode="[" glyph-name="bracketleft" horiz-adv-x="764" d="M154 -395V1489H702V1282H393V-188H702V-395H154Z" />
<glyph unicode="\" glyph-name="backslash" horiz-adv-x="1036" d="M795 -299L102 1520H358L1049 -299H795Z" />
<glyph unicode="]" glyph-name="bracketright" horiz-adv-x="764" d="M61 -395V-188H371V1282H61V1489H610V-395H61Z" />
<glyph unicode="^" glyph-name="asciicircum" horiz-adv-x="1300" d="M958 594L651 1151L342 594H123L557 1384H743L1178 594H958Z" />
<glyph unicode="_" glyph-name="underscore" horiz-adv-x="1024" d="M-10 -256V-154H1034V-256H-10Z" />
<glyph unicode="`" glyph-name="grave" horiz-adv-x="1044" d="M494 1208L195 1569H510L698 1208H494Z" />
<glyph unicode="a" glyph-name="a" horiz-adv-x="1139" d="M764 0V109Q611 -31 436 -31Q262 -31 173 60T84 295Q84 407 129 480T264 594T522 653L743 674V721Q743 809 690 841T535 874Q451 874 391 846T301 766L100 895Q153 984 266 1031T539 1079Q784 1079 892
994T1001 713V0H764ZM743 487L612 475Q473 463 412 422T350 299Q350 227 390 201T496 174Q543 174 610 203T743 287V487Z" />
<glyph unicode="b" glyph-name="b" horiz-adv-x="1217" d="M1124 532Q1124 271 1015 120T702 -31Q622 -31 528 5T377 98L342 0H145V1489H403V965Q545 1079 717 1079Q928 1079 1026 934T1124 532ZM858 528Q858 690 807 771T643 852Q580 852 516 823T403 750V291Q446
254 507 226T627 197Q738 197 798 281T858 528Z" />
<glyph unicode="c" glyph-name="c" horiz-adv-x="1059" d="M1012 150Q952 61 854 15T606 -31Q352 -31 222 107T92 518Q92 783 218 931T596 1079Q731 1079 836 1035T997 899L805 762Q770 809 723 831T602 854Q470 854 414 773T358 522Q358 352 415 274T612 195Q672
195 722 212T817 287L1012 150Z" />
<glyph unicode="d" glyph-name="d" horiz-adv-x="1217" d="M834 0V102Q762 41 682 5T500 -31Q302 -31 197 112T92 516Q92 783 207 931T532 1079Q606 1079 684 1049T813 971V1489H1071V0H834ZM813 758Q772 795 712 823T588 852Q484 852 421 763T358 520Q358 369
409 283T569 197Q633 197 699 226T813 299V758Z" />
<glyph unicode="e" glyph-name="e" horiz-adv-x="1143" d="M358 457Q365 317 426 256T618 195Q694 195 751 214T852 287L1044 150Q981 59 881 14T606 -31Q347 -31 220 105T92 516Q92 1079 596 1079Q820 1079 937 953T1055 584V457H358ZM799 635Q799 874 590 874Q521
874 477 851T407 781T365 635H799Z" />
<glyph unicode="f" glyph-name="f" horiz-adv-x="659" d="M698 1270Q626 1294 559 1294Q483 1294 455 1263T426 1151V1049H639V844H426V0H168V844H35V1049H168V1151Q168 1346 264 1433T555 1520Q646 1520 748 1495L698 1270Z" />
<glyph unicode="g" glyph-name="g" horiz-adv-x="1217" d="M1071 20Q1071 -190 942 -292T528 -395Q293 -395 117 -305L193 -94Q356 -170 528 -170Q688 -170 750 -124T813 31V117Q685 0 504 0Q312 0 202 138T92 535Q92 697 143 820T294 1011T535 1079Q618 1079
701 1043T840 950L874 1049H1071V20ZM813 758Q707 852 582 852Q488 852 423 766T358 539Q358 379 415 303T565 227Q693 227 813 330V758Z" />
<glyph unicode="h" glyph-name="h" horiz-adv-x="1217" d="M821 0V578Q821 744 790 798T680 852Q565 852 403 700V0H145V1489H403V913Q485 995 578 1037T760 1079Q936 1079 1007 980T1079 700V0H821Z" />
<glyph unicode="i" glyph-name="i" horiz-adv-x="549" d="M418 1335Q418 1262 382 1233T272 1204Q190 1204 161 1238T131 1335Q131 1405 163 1435T272 1466Q350 1466 384 1437T418 1335ZM145 0V1049H403V0H145Z" />
<glyph unicode="j" glyph-name="j" horiz-adv-x="563" d="M432 1335Q432 1262 396 1233T287 1204Q205 1204 175 1238T145 1335Q145 1405 177 1435T287 1466Q365 1466 398 1437T432 1335ZM418 -45Q418 -233 334 -314T59 -395Q16 -395 -54 -386T-162 -365L-106 -141Q-33
-170 45 -170Q123 -170 141 -122T160 37V1049H418V-45Z" />
<glyph unicode="k" glyph-name="k" horiz-adv-x="1100" d="M784 0L504 434L403 326V0H145V1489H403V637L756 1049H1055L659 608L1077 0H784Z" />
<glyph unicode="l" glyph-name="l" horiz-adv-x="549" d="M145 0V1489H403V0H145Z" />
<glyph unicode="m" glyph-name="m" horiz-adv-x="1790" d="M1395 0V618Q1395 711 1384 763T1351 833T1276 852Q1217 852 1151 808T1028 700V0H770V618Q770 720 761 765T729 831T651 852Q603 852 540 816T403 700V0H145V1049H403V913Q475 991 554 1035T729 1079Q860
1079 922 1034T1008 901Q1098 991 1176 1035T1360 1079Q1513 1079 1583 992T1653 700V0H1395Z" />
<glyph unicode="n" glyph-name="n" horiz-adv-x="1217" d="M821 0V578Q821 742 792 797T680 852Q565 852 403 700V0H145V1049H403V913Q485 995 578 1037T760 1079Q921 1079 1000 991T1079 700V0H821Z" />
<glyph unicode="o" glyph-name="o" horiz-adv-x="1190" d="M1098 522Q1098 260 977 115T596 -31Q92 -31 92 522Q92 788 213 933T596 1079Q856 1079 977 934T1098 522ZM831 522Q831 695 777 774T596 854Q470 854 414 773T358 522Q358 354 413 275T596 195Q721 195
776 273T831 522Z" />
<glyph unicode="p" glyph-name="p" horiz-adv-x="1217" d="M1124 532Q1124 363 1073 234T927 37T700 -31Q526 -31 403 78V-395H145V1049H383V946Q455 1008 534 1043T717 1079Q916 1079 1020 939T1124 532ZM858 528Q858 681 805 766T647 852Q584 852 518 823T403
750V291Q444 254 504 226T629 197Q735 197 796 287T858 528Z" />
<glyph unicode="q" glyph-name="q" horiz-adv-x="1217" d="M813 -395V84Q672 -31 500 -31Q302 -31 197 109T92 516Q92 782 206 930T530 1079Q625 1079 708 1039T840 950L874 1049H1071V-395H813ZM813 758Q766 801 706 826T588 852Q484 852 421 763T358 520Q358
367 408 282T569 197Q633 197 699 226T813 299V758Z" />
<glyph unicode="r" glyph-name="r" horiz-adv-x="840" d="M778 797Q738 817 672 817Q600 817 536 783T403 682V0H145V1049H403V899Q469 971 545 1018T715 1065Q795 1065 829 1044L778 797Z" />
<glyph unicode="s" glyph-name="s" horiz-adv-x="1026" d="M946 299Q946 195 894 121T745 8T524 -31Q195 -31 76 152L268 287Q315 223 376 202T508 180Q692 180 692 287Q692 334 640 359T477 412Q268 458 183 542T98 760Q98 899 204 989T518 1079Q659 1079 766
1034T932 899L739 762Q670 868 514 868Q434 868 393 841T352 770Q352 729 389 705T535 653Q714 609 790 566T906 458T946 299Z" />
<glyph unicode="t" glyph-name="t" horiz-adv-x="739" d="M725 0Q621 -31 506 -31Q324 -31 244 51T164 317V844H31V1049H164V1341H422V1049H666V844H422V350Q422 252 452 217T539 182Q610 182 680 211L725 0Z" />
<glyph unicode="u" glyph-name="u" horiz-adv-x="1217" d="M813 0V135Q745 62 647 16T457 -31Q279 -31 208 67T137 348V1049H395V471Q395 360 408 301T450 220T537 197Q652 197 813 348V1049H1071V0H813Z" />
<glyph unicode="v" glyph-name="v" horiz-adv-x="1040" d="M637 0H399L27 1049H291L524 358L756 1049H1014L637 0Z" />
<glyph unicode="w" glyph-name="w" horiz-adv-x="1565" d="M1257 0H1022L786 668L549 0H313L27 1049H295L457 373L692 1049H887L1124 379L1280 1049H1538L1257 0Z" />
<glyph unicode="x" glyph-name="x" horiz-adv-x="1079" d="M743 0L535 334L317 0H31L393 518L37 1049H338L547 717L762 1049H1047L686 532L1049 0H743Z" />
<glyph unicode="y" glyph-name="y" horiz-adv-x="1085" d="M35 -141Q119 -170 186 -170Q244 -170 288 -135T379 10L406 72L27 1049H295L543 379L797 1049H1059L608 -72Q553 -207 501 -272T380 -366T205 -395Q91 -395 -20 -365L35 -141Z" />
<glyph unicode="z" glyph-name="z" horiz-adv-x="930" d="M57 0V188L547 844H70V1049H856V862L365 205H872V0H57Z" />
<glyph unicode="{" glyph-name="braceleft" horiz-adv-x="915" d="M784 -395Q563 -395 467 -292T371 10V152Q371 293 312 373T141 453H102V674H141Q252 674 311 751T371 975V1114Q371 1311 466 1415T784 1520H854V1313H813Q696 1313 653 1265T610 1100V934Q610
797 546 703T371 561Q479 522 544 424T610 190V25Q610 -92 653 -140T813 -188H854V-395H784Z" />
<glyph unicode="|" glyph-name="bar" horiz-adv-x="801" d="M281 -395V1520H520V-395H281Z" />
<glyph unicode="}" glyph-name="braceright" horiz-adv-x="915" d="M61 -395V-188H102Q219 -188 262 -140T305 25V190Q305 326 370 424T545 561Q434 608 370 702T305 934V1100Q305 1217 262 1265T102 1313H61V1520H131Q354 1520 449 1416T545 1114V975Q545 829
604 752T774 674H813V453H774Q664 453 605 373T545 152V10Q545 -188 449 -291T131 -395H61Z" />
<glyph unicode="~" glyph-name="asciitilde" horiz-adv-x="1386" d="M143 809Q199 856 249 882T344 920T461 932Q526 932 589 908T711 853T825 799T932 774Q1012 774 1086 812T1243 922V700Q1176 647 1102 608T936 569Q864 569 799 593T673 648T558 702T457 727Q365
727 287 682T143 580V809Z" />
</font>
</defs>
</svg>
