<?xml version="1.0" standalone="no"?> <!DOCTYPE svg PUBLIC "-//W3C//DTD SVG 1.0//EN" "http://www.w3.org/TR/2001/REC-SVG-20010904/DTD/svg10.dtd" > <svg xmlns="http://www.w3.org/2000/svg" width="100%" height="100%">
<defs >
<font id="clearsans-light" horiz-adv-x="1165" ><font-face
    font-family="Clear Sans Light"
    units-per-em="2048"
    panose-1="2 11 3 3 3 2 2 2 3 4"
    ascent="2206"
    descent="-563"
    alphabetic="0" />
<missing-glyph horiz-adv-x="1024" d="M25 1362H997V0H25V1362ZM512 768L842 1266H180L512 768ZM123 186Q123 186 137 207T174 262T227 341T288 433Q360 542 453 682L123 1178V186ZM569 682L901 184V1178L569 682ZM512 594L180 98H842L512 594Z" />
<glyph unicode=" " glyph-name="space" horiz-adv-x="539" />
<glyph unicode="!" glyph-name="exclam" horiz-adv-x="541" d="M326 379H219L195 1384H344L326 379ZM371 78Q371 25 346 6T268 -14Q239 -14 220 -8T189 10T173 39T168 78Q168 127 191 148T268 170Q325 170 348 148T371 78Z" />
<glyph unicode="&quot;" glyph-name="quotedbl" horiz-adv-x="892" d="M326 932H232L197 1452H363L326 932ZM658 932H564L529 1452H695L658 932Z" />
<glyph unicode="#" glyph-name="numbersign" horiz-adv-x="1466" d="M1059 891L952 492H1231V397H924L817 0H715L819 397H483L377 0H276L381 397H119V492H408L516 891H236V987H541L645 1384H748L643 987H979L1085 1384H1188L1083 987H1348V891H1059ZM618 891L508
492H848L956 891H618Z" />
<glyph unicode="$" glyph-name="dollar" horiz-adv-x="1255" d="M1077 416Q1077 335 1047 274T966 172T844 108T694 82V-133H592V82Q509 86 446 110T336 168T256 244T199 324L305 385Q321 353 345 321T404 262T485 216T592 190V666Q492 687 423 716T310 785T247
875T227 987Q227 1049 248 1105T313 1206T427 1277T592 1309V1413H694V1309Q766 1305 823 1288T926 1242T1007 1173T1071 1081L963 1022Q944 1059 920 1090T863 1145T788 1183T694 1202V764Q772 746 842 721T964 656T1046 558T1077 416ZM592 1202Q526 1198 481
1181T408 1137T368 1072T356 989Q356 941 376 908T429 852T504 814T592 788V1202ZM948 414Q948 502 887 556T694 643V190Q742 193 787 207T868 247T926 315T948 414Z" />
<glyph unicode="%" glyph-name="percent" horiz-adv-x="2052" d="M1573 -31Q1479 -31 1412 -4T1302 78T1239 215T1219 408Q1219 632 1309 739T1573 846Q1754 846 1840 734T1927 408Q1927 -31 1573 -31ZM565 -51L1364 1436H1489L688 -51H565ZM477 537Q292 537 208
644T123 975Q123 1199 213 1306T477 1413Q658 1413 746 1299T834 975Q834 757 746 647T477 537ZM1573 72Q1636 72 1678 92T1747 155T1785 260T1796 408Q1796 475 1788 535T1756 641T1688 714T1573 741Q1508 741 1465 720T1397 657T1361 553T1350 408Q1350 323 1360
260T1396 155T1465 93T1573 72ZM477 639Q541 639 584 660T653 723T690 828T702 975Q702 1041 694 1101T661 1208T593 1281T477 1309Q412 1309 369 1288T301 1224T266 1120T256 975Q256 889 266 826T302 721T369 659T477 639Z" />
<glyph unicode="&amp;" glyph-name="ampersand" horiz-adv-x="1430" d="M1155 0L1051 123Q1012 91 969 64T875 16T766 -17T635 -29Q518 -29 430 -1T281 78T191 199T160 352Q160 424 178 478T237 581T343 675T500 776Q456 827 424 871T369 956T337 1034T326 1108Q326
1260 415 1336T678 1413Q759 1413 819 1393T920 1337T981 1253T1001 1151Q1001 1089 980 1035T920 931T822 838T690 750L1061 311Q1103 364 1140 438T1202 608L1323 578Q1295 462 1246 368T1143 215L1327 0H1155ZM868 1149Q868 1183 856 1212T820 1262T758 1295T672
1307Q603 1307 561 1288T497 1240T467 1177T459 1112Q459 1052 499 989T614 840Q686 880 735 919T813 997T855 1073T868 1149ZM578 686Q487 632 432 591T347 513T307 438T297 352Q297 287 323 238T396 154T504 102T639 84Q747 84 830 121T973 215L578 686Z" />
<glyph unicode="&apos;" glyph-name="quotesingle" horiz-adv-x="561" d="M328 932H233L197 1452H362L328 932Z" />
<glyph unicode="(" glyph-name="parenleft" horiz-adv-x="766" d="M518 -395Q427 -284 362 -175T254 50T191 291T170 561Q170 705 191 834T256 1081T364 1307T518 1518H664Q569 1424 500 1314T384 1082T316 829T293 561Q293 426 315 301T382 57T498 -173T664 -395H518Z" />
<glyph unicode=")" glyph-name="parenright" horiz-adv-x="797" d="M131 -395Q324 -182 413 54T502 561Q502 836 412 1078T131 1518H276Q364 1416 430 1308T540 1082T605 835T627 561Q627 414 605 287T539 44T430 -180T276 -395H131Z" />
<glyph unicode="*" glyph-name="asterisk" horiz-adv-x="967" d="M799 938L524 1098L528 825H436L440 1098L168 938L123 1016L408 1171L123 1327L168 1405L440 1247L436 1520H528L524 1247L799 1405L844 1327L557 1171L844 1016L799 938Z" />
<glyph unicode="+" glyph-name="plus" horiz-adv-x="1427" d="M766 528V51H655V528H178V639H655V1120H766V639H1247V528H766Z" />
<glyph unicode="," glyph-name="comma" horiz-adv-x="541" d="M186 -272Q206 -250 221 -218T247 -151T263 -80T268 -14Q213 -14 193 8T172 78Q172 124 194 147T268 170Q369 170 369 55Q369 -1 359 -52T333 -147T298 -223T262 -272H186Z" />
<glyph unicode="-" glyph-name="hyphen" horiz-adv-x="848" d="M113 463V590H735V463H113Z" />
<glyph unicode="." glyph-name="period" horiz-adv-x="541" d="M369 78Q369 25 344 6T268 -14Q213 -14 193 9T172 78Q172 126 194 148T268 170Q322 170 345 149T369 78Z" />
<glyph unicode="/" glyph-name="slash" horiz-adv-x="952" d="M139 -299H18L745 1520H868L139 -299Z" />
<glyph unicode="0" glyph-name="zero" horiz-adv-x="1255" d="M1118 688Q1118 320 999 145T627 -31Q501 -31 409 11T256 142T167 366T137 686Q137 871 166 1006T256 1230T408 1360T627 1403Q753 1403 845 1361T998 1230T1088 1007T1118 688ZM973 688Q973 845 952
957T888 1142T780 1249T627 1284Q536 1284 471 1249T363 1141T301 954T281 686Q281 530 302 417T365 231T473 123T627 88Q715 88 780 123T888 231T952 418T973 688Z" />
<glyph unicode="1" glyph-name="one" horiz-adv-x="1255" d="M631 0V1128Q603 1098 565 1075T483 1036T392 1012T297 1004V1116Q377 1120 439 1143T546 1202T621 1286T666 1384H764V0H631Z" />
<glyph unicode="2" glyph-name="two" horiz-adv-x="1180" d="M156 0V143Q232 207 316 284T482 441T634 597T754 735Q800 797 830 865T860 1022Q860 1089 839 1140T779 1224T689 1275T575 1292Q463 1292 388 1244T266 1110L152 1178Q170 1213 201 1254T284 1330T409
1389T582 1413Q667 1413 744 1392T879 1325T971 1205T1006 1026Q1006 967 994 915T960 816T906 723T834 631Q791 583 742 531T631 417T490 284T309 123H1051V0H156Z" />
<glyph unicode="3" glyph-name="three" horiz-adv-x="1180" d="M1008 397Q1008 291 976 212T883 79T732 -2T528 -29Q467 -29 406 -16T290 22T191 83T121 164L227 236Q248 205 279 179T349 133T432 102T524 90Q611 90 675 108T781 164T843 263T864 406Q864 542
780 612T512 682H420V801H496Q573 801 636 818T745 868T815 950T840 1063Q840 1180 766 1236T559 1292Q448 1292 372 1249T244 1124L131 1196Q156 1238 193 1277T283 1346T406 1394T567 1413Q677 1413 755 1387T884 1316T959 1211T983 1081Q983 944 913 865T709
750Q773 744 827 719T922 649T985 542T1008 397Z" />
<glyph unicode="4" glyph-name="four" horiz-adv-x="1255" d="M920 346V0H788V346H66V479L809 1384H920V465H1120V346H920ZM788 1171L203 465H788V1171Z" />
<glyph unicode="5" glyph-name="five" horiz-adv-x="1180" d="M1016 436Q1016 328 986 242T896 95T749 3T547 -29Q472 -29 408 -14T293 28T203 89T143 162L254 238Q272 209 301 182T367 135T448 102T543 90Q630 90 692 116T794 187T853 295T872 432Q872 512 848
568T781 661T680 714T553 731Q479 731 415 712T297 657H225L299 1384H981V1262H410L362 797Q384 808 412 817T471 833T530 844T586 848Q685 848 764 822T900 744T986 615T1016 436Z" />
<glyph unicode="6" glyph-name="six" horiz-adv-x="1180" d="M606 -29Q478 -30 389 15T242 148T159 368T133 670Q133 823 163 958T256 1194T419 1354T659 1413Q769 1413 852 1379T1006 1270L918 1169Q890 1199 862 1222T803 1261T735 1285T655 1294Q565 1294 498
1255T385 1146T314 977T281 762Q309 781 347 800T431 836T529 862T637 872Q731 872 808 848T940 773T1025 641T1055 449Q1055 335 1025 246T938 96T798 3T606 -29ZM608 90Q687 90 745 115T840 185T896 296T915 442Q915 531 893 591T830 687T732 738T604 754Q565
754 522 746T437 725T354 693T281 653Q281 490 303 382T367 209T469 117T608 90Z" />
<glyph unicode="7" glyph-name="seven" horiz-adv-x="1255" d="M551 0H401L944 1262H152V1384H1081V1255L551 0Z" />
<glyph unicode="8" glyph-name="eight" horiz-adv-x="1180" d="M1061 346Q1061 252 1029 182T937 65T789 -5T592 -29Q356 -29 239 67T121 346Q121 486 203 580T449 737Q384 768 330 798T238 867T178 953T156 1069Q156 1145 182 1208T263 1317T399 1388T592 1413Q805
1413 915 1326T1026 1071Q1026 998 1000 945T931 852T838 784T737 735Q809 701 869 666T971 587T1037 484T1061 346ZM889 1067Q889 1119 872 1162T818 1235T725 1283T592 1300Q514 1300 458 1284T365 1237T311 1166T293 1073Q293 1034 306 1001T353 936T446 871T598
797Q671 824 725 852T816 912T871 981T889 1067ZM924 346Q924 404 905 449T845 532T742 604T594 678Q511 648 448 615T343 542T280 454T258 344Q258 224 340 154T592 84Q762 84 843 154T924 346Z" />
<glyph unicode="9" glyph-name="nine" horiz-adv-x="1180" d="M244 221Q271 191 300 167T362 126T433 99T518 90Q612 90 680 129T795 238T865 406T897 623Q868 603 830 583T747 547T650 521T543 510Q448 510 371 534T238 611T153 743T123 936Q123 1050 153 1138T241
1288T382 1381T573 1413Q702 1413 792 1368T938 1236T1019 1020T1044 725Q1044 621 1032 525T992 344T923 192T823 74T687 -2T514 -29Q395 -29 308 11T156 123L244 221ZM573 631Q612 631 655 639T741 660T824 691T899 729Q899 864 883 969T828 1147T726 1256T571
1294Q492 1294 434 1269T338 1198T281 1087T262 942Q262 852 284 792T348 697T447 646T573 631Z" />
<glyph unicode=":" glyph-name="colon" horiz-adv-x="541" d="M369 956Q369 904 344 884T268 864Q213 864 193 888T172 956Q172 1006 194 1027T268 1049Q322 1049 345 1028T369 956ZM369 78Q369 25 344 6T268 -14Q213 -14 193 9T172 78Q172 126 194 148T268 170Q322
170 345 149T369 78Z" />
<glyph unicode=";" glyph-name="semicolon" horiz-adv-x="541" d="M369 956Q369 904 344 884T268 864Q213 864 193 888T172 956Q172 1006 194 1027T268 1049Q322 1049 345 1028T369 956ZM369 55Q369 -1 359 -52T333 -147T298 -223T262 -272H186Q206 -250 221 -218T247
-151T263 -80T268 -14Q213 -14 193 8T172 78Q172 124 194 147T268 170Q321 170 345 142T369 55Z" />
<glyph unicode="&lt;" glyph-name="less" horiz-adv-x="1427" d="M180 543V631L1247 1085V965L350 586L1247 209V88L180 543Z" />
<glyph unicode="=" glyph-name="equal" horiz-adv-x="1427" d="M178 756V866H1247V756H178ZM178 305V416H1247V305H178Z" />
<glyph unicode="&gt;" glyph-name="greater" horiz-adv-x="1427" d="M180 88V209L1077 586L180 965V1085L1247 631V543L180 88Z" />
<glyph unicode="?" glyph-name="question" horiz-adv-x="1036" d="M367 352V623Q473 677 548 725T672 823T743 926T766 1047Q766 1103 748 1148T692 1225T601 1274T475 1292Q416 1292 371 1281T292 1250T234 1205T195 1153L86 1225Q107 1264 142 1298T226 1357T336
1398T473 1413Q566 1413 645 1391T783 1325T875 1214T909 1057Q909 972 880 905T797 780T666 670T494 565V352H367ZM532 78Q532 25 508 6T430 -14Q401 -14 382 -8T351 10T335 39T330 78Q330 127 353 148T430 170Q487 170 509 149T532 78Z" />
<glyph unicode="@" glyph-name="at" horiz-adv-x="1927" d="M1815 580Q1815 475 1796 374T1733 194T1618 65T1442 16Q1389 16 1350 25T1283 53T1239 102T1214 176Q1140 116 1062 80T905 43Q802 43 733 84T621 192T560 343T541 514Q541 628 566 721T642 881T769
984T950 1020Q992 1020 1030 1010T1103 986T1163 955T1208 924V991H1337V252Q1337 215 1343 191T1363 151T1398 130T1448 123Q1513 123 1559 161T1636 262T1680 406T1694 575Q1694 743 1651 878T1520 1108T1300 1254T987 1305Q877 1305 780 1279T600 1205T454 1089T344
938T274 756T250 551Q250 373 302 233T450 -4T681 -152T983 -203Q1102 -203 1205 -192T1399 -160L1425 -270Q1380 -280 1327 -287T1217 -299T1100 -306T981 -309Q793 -309 636 -251T367 -83T192 187T129 553Q129 676 158 788T241 995T372 1168T544 1299T750 1383T985
1413Q1186 1413 1341 1356T1601 1190T1761 928T1815 580ZM1206 811Q1182 828 1153 844T1091 874T1027 896T965 905Q884 905 828 879T738 803T688 681T672 518Q672 453 683 390T722 276T800 194T926 162Q963 162 1000 173T1074 203T1143 244T1206 287V811Z" />
<glyph unicode="A" glyph-name="A" horiz-adv-x="1264" d="M63 0L543 1384H717L1200 0H1053L918 399H340L205 0H63ZM381 522H874L627 1253L381 522Z" />
<glyph unicode="B" glyph-name="B" horiz-adv-x="1257" d="M1130 408Q1130 301 1096 224T997 97T835 24T614 0H199V1384H594Q719 1384 804 1365T941 1306T1015 1209T1038 1073Q1038 1006 1024 955T983 865T916 800T825 756Q890 747 946 723T1043 656T1107 552T1130
408ZM897 1042Q897 1105 880 1147T824 1216T721 1253T563 1264H334V791H555Q732 791 814 850T897 1042ZM987 408Q987 494 959 545T879 625T755 661T592 670H334V123H553Q655 123 735 134T872 175T957 262T987 408Z" />
<glyph unicode="C" glyph-name="C" horiz-adv-x="1315" d="M1225 246Q1192 187 1150 137T1050 50T915 -8T733 -29Q431 -29 288 152T145 692Q145 866 179 1000T284 1226T464 1365T725 1413Q822 1413 898 1394T1031 1340T1131 1256T1206 1147L1090 1073Q1064 1121
1032 1160T957 1229T857 1274T725 1290Q607 1290 524 1251T389 1135T313 947T289 692Q289 548 313 437T390 250T527 134T731 94Q815 94 876 114T982 166T1056 237T1110 317L1225 246Z" />
<glyph unicode="D" glyph-name="D" horiz-adv-x="1282" d="M1147 692Q1147 489 1106 356T984 143T785 32T512 0H186V1384H510Q673 1384 792 1349T991 1233T1108 1020T1147 692ZM1001 694Q1001 851 975 959T889 1135T733 1232T498 1262H322V123H498Q634 123 730
151T886 247T973 423T1001 694Z" />
<glyph unicode="E" glyph-name="E" horiz-adv-x="1155" d="M199 0V1384H1018V1262H334V795H922V672H334V123H1018V0H199Z" />
<glyph unicode="F" glyph-name="F" horiz-adv-x="1110" d="M334 1262V801H911V678H334V0H199V1384H1010V1262H334Z" />
<glyph unicode="G" glyph-name="G" horiz-adv-x="1378" d="M1081 1073Q1054 1126 1021 1166T943 1234T843 1276T717 1290Q604 1290 523 1253T390 1140T314 953T289 692Q289 552 312 441T388 253T527 135T741 94Q783 94 822 98T899 112T976 136T1059 170V559H690V682H1194V94Q1136
64 1085 41T980 3T868 -21T737 -29Q573 -29 461 21T278 166T176 393T145 694Q145 861 176 994T276 1220T455 1363T723 1413Q821 1413 896 1394T1027 1339T1124 1254T1196 1147L1081 1073Z" />
<glyph unicode="H" glyph-name="H" horiz-adv-x="1341" d="M1008 0V655H334V0H199V1384H334V778H1008V1384H1143V0H1008Z" />
<glyph unicode="I" glyph-name="I" horiz-adv-x="719" d="M616 0H102V119H291V1266H102V1384H616V1266H426V119H616V0Z" />
<glyph unicode="J" glyph-name="J" horiz-adv-x="864" d="M666 395Q666 291 648 212T589 78T479 -3T309 -31Q278 -31 245 -27T179 -17T118 -1T66 18L117 137Q134 128 157 120T207 106T259 96T309 92Q379 92 422 113T490 179T522 292T530 453V1384H666V395Z" />
<glyph unicode="K" glyph-name="K" horiz-adv-x="1255" d="M1014 0L487 639L334 475V0H199V1384H334V645L995 1384H1165L578 735L1190 0H1014Z" />
<glyph unicode="L" glyph-name="L" horiz-adv-x="1038" d="M199 0V1384H334V123H983V0H199Z" />
<glyph unicode="M" glyph-name="M" horiz-adv-x="1556" d="M1227 0V1219L821 391H731L330 1219V0H199V1384H389L780 578L1169 1384H1358V0H1227Z" />
<glyph unicode="N" glyph-name="N" horiz-adv-x="1374" d="M1016 0L330 1235V0H199V1384H395L1042 219V1384H1176V0H1016Z" />
<glyph unicode="O" glyph-name="O" horiz-adv-x="1364" d="M1229 692Q1229 525 1200 392T1106 165T937 21T682 -29Q532 -29 428 21T259 165T165 392T135 692Q135 858 164 991T259 1218T428 1362T682 1413Q832 1413 936 1363T1106 1220T1200 994T1229 692ZM1083
692Q1083 836 1062 947T994 1135T870 1250T682 1290Q570 1290 493 1251T369 1136T300 949T279 692Q279 548 300 437T368 250T493 134T682 94Q793 94 870 133T994 249T1062 436T1083 692Z" />
<glyph unicode="P" glyph-name="P" horiz-adv-x="1153" d="M1044 952Q1044 826 1015 738T927 595T777 514T565 489H334V0H199V1384H582Q820 1384 932 1277T1044 952ZM899 948Q899 1038 877 1098T812 1195T708 1246T569 1262H334V612H543Q636 612 703 627T813 679T878
782T899 948Z" />
<glyph unicode="Q" glyph-name="Q" horiz-adv-x="1364" d="M1233 -283Q1185 -301 1131 -309T1028 -317Q941 -317 874 -298T756 -241T671 -150T614 -27Q493 -16 403 32T254 169T165 388T135 692Q135 861 165 995T261 1222T431 1364T684 1413Q828 1413 931 1366T1101
1226T1198 1000T1229 692Q1229 536 1204 410T1124 192T980 44T766 -27Q780 -66 801 -97T855 -151T930 -185T1032 -197Q1049 -197 1070 -195T1114 -189T1156 -180T1192 -170L1233 -283ZM1083 692Q1083 836 1062 947T994 1135T870 1250T682 1290Q570 1290 493 1251T369
1135T300 948T279 692Q279 548 300 437T368 250T493 134T682 94Q794 94 870 133T994 249T1062 436T1083 692Z" />
<glyph unicode="R" glyph-name="R" horiz-adv-x="1212" d="M979 0L625 586H334V0H199V1384H592Q706 1384 792 1364T938 1299T1027 1180T1057 999Q1057 907 1038 840T981 725T889 650T764 606L1141 0H979ZM913 993Q913 1066 896 1117T841 1201T742 1249T590 1264H334V707H584Q678
707 741 722T842 772T896 860T913 993Z" />
<glyph unicode="S" glyph-name="S" horiz-adv-x="1225" d="M1096 362Q1096 255 1058 181T955 60T802 -8T614 -29Q509 -29 430 -8T292 49T189 137T111 248L227 317Q247 277 279 238T357 166T464 114T606 94Q679 94 742 109T853 156T927 237T954 356Q954 420 933
464T869 541T760 598T604 645Q484 676 397 705T253 776T169 877T141 1028Q141 1114 169 1185T253 1306T395 1385T594 1413Q680 1413 750 1396T876 1346T976 1267T1055 1163L942 1087Q916 1132 883 1169T808 1234T714 1275T596 1290Q517 1290 458 1272T360 1221T302
1141T283 1036Q283 980 300 943T359 878T468 828T637 780Q744 753 829 722T973 645T1064 532T1096 362Z" />
<glyph unicode="T" glyph-name="T" horiz-adv-x="1174" d="M653 1262V0H518V1262H43V1384H1128V1262H653Z" />
<glyph unicode="U" glyph-name="U" horiz-adv-x="1378" d="M1184 578Q1184 408 1158 292T1074 104T921 1T692 -31Q551 -31 455 1T301 106T218 295T193 578V1384H328V598Q328 454 345 357T404 201T515 116T690 90Q796 90 865 115T975 200T1032 356T1049 594V1384H1184V578Z"
/>
<glyph unicode="V" glyph-name="V" horiz-adv-x="1214" d="M688 0H518L63 1384H205L606 143L1012 1384H1151L688 0Z" />
<glyph unicode="W" glyph-name="W" horiz-adv-x="1718" d="M1313 0H1137L856 1204L573 0H403L80 1384H217L494 182L772 1384H940L1227 172L1505 1384H1638L1313 0Z" />
<glyph unicode="X" glyph-name="X" horiz-adv-x="1169" d="M66 0L510 694L78 1384H233L590 799L952 1384H1104L664 698L1104 0H948L584 594L213 0H66Z" />
<glyph unicode="Y" glyph-name="Y" horiz-adv-x="1126" d="M631 537V0H494V530L51 1384H201L563 664L930 1384H1075L631 537Z" />
<glyph unicode="Z" glyph-name="Z" horiz-adv-x="1171" d="M102 0V129L881 1262H133V1384H1038V1262L254 123H1055V0H102Z" />
<glyph unicode="[" glyph-name="bracketleft" horiz-adv-x="825" d="M215 -395V1489H672V1382H334V-291H672V-395H215Z" />
<glyph unicode="\" glyph-name="backslash" horiz-adv-x="952" d="M811 -299L82 1520H207L934 -299H811Z" />
<glyph unicode="]" glyph-name="bracketright" horiz-adv-x="825" d="M154 -395V-291H489V1382H154V1489H610V-395H154Z" />
<glyph unicode="^" glyph-name="asciicircum" horiz-adv-x="1214" d="M940 594L608 1270L274 594H154L543 1384H672L1061 594H940Z" />
<glyph unicode="_" glyph-name="underscore" horiz-adv-x="1024" d="M-10 -256V-164H1034V-256H-10Z" />
<glyph unicode="`" glyph-name="grave" horiz-adv-x="1106" d="M584 1208L326 1569H502L688 1208H584Z" />
<glyph unicode="a" glyph-name="a" horiz-adv-x="1079" d="M776 0V152Q731 113 689 80T604 22T514 -17T414 -31Q340 -31 285 -9T194 56T139 159T121 295Q121 377 145 438T220 541T350 609T541 645L776 668V721Q776 787 761 833T714 910T631 953T510 967Q451 967
408 957T333 929T280 888T244 840L141 903Q163 939 193 971T268 1027T372 1065T512 1079Q618 1079 692 1059T814 996T883 883T905 713V0H776ZM776 561L588 543Q498 534 435 518T331 473T273 402T254 299Q254 185 300 134T444 82Q481 82 516 93T591 126T675 184T776
268V561Z" />
<glyph unicode="b" glyph-name="b" horiz-adv-x="1151" d="M1022 532Q1022 409 998 306T924 127T798 11T616 -31Q538 -31 459 5T311 104V0H182V1489H311V934Q342 965 378 992T455 1038T540 1068T629 1079Q736 1079 811 1037T933 920T1001 747T1022 532ZM889 528Q889
629 873 710T823 847T736 934T608 965Q530 965 455 922T311 811V225Q380 160 456 121T604 82Q666 82 718 108T809 188T868 327T889 528Z" />
<glyph unicode="c" glyph-name="c" horiz-adv-x="1016" d="M926 168Q901 121 868 84T791 22T692 -17T567 -31Q444 -31 361 11T226 126T152 301T129 520Q129 648 153 751T230 927T365 1039T565 1079Q689 1079 772 1030T913 879L807 815Q786 854 762 882T709 929T643
957T561 967Q404 967 333 853T262 516Q262 418 277 338T328 201T422 112T567 80Q616 80 653 90T721 121T775 169T821 233L926 168Z" />
<glyph unicode="d" glyph-name="d" horiz-adv-x="1151" d="M840 0V115Q808 84 771 58T692 12T607 -19T518 -31Q420 -31 347 6T226 113T153 285T129 516Q129 625 152 726T225 906T351 1032T535 1079Q625 1079 698 1046T840 958V1489H969V0H840ZM840 838Q765 898
692 931T547 965Q482 965 429 935T339 847T282 708T262 520Q262 421 277 340T324 202T408 114T532 82Q575 82 616 94T697 128T772 178T840 238V838Z" />
<glyph unicode="e" glyph-name="e" horiz-adv-x="1051" d="M262 524Q262 409 276 325T325 187T417 106T559 80Q601 80 636 87T701 112T760 157T815 225L918 158Q890 113 857 78T780 19T681 -18T553 -31Q449 -31 370 -1T238 94T157 264T129 516Q129 649 152 753T225
930T356 1041T553 1079Q655 1079 728 1047T847 955T916 807T938 608V524H262ZM811 629Q808 806 745 888T549 971Q480 971 430 951T345 889T291 783T264 629H811Z" />
<glyph unicode="f" glyph-name="f" horiz-adv-x="618" d="M664 1364Q650 1372 631 1380T590 1394T546 1403T502 1407Q456 1407 425 1394T375 1352T348 1276T340 1161V1049H584V938H340V0H211V938H47V1049H211V1165Q211 1256 226 1323T275 1434T365 1499T502 1520Q562
1520 616 1506T707 1473L664 1364Z" />
<glyph unicode="g" glyph-name="g" horiz-adv-x="1151" d="M969 23Q969 -88 945 -167T872 -297T746 -371T565 -395Q438 -395 345 -366T197 -293L252 -193Q303 -235 380 -261T565 -287Q640 -287 692 -270T777 -217T825 -123T840 16V143Q810 114 774 88T696 43T609
12T516 0Q415 0 342 36T222 140T152 308T129 535Q129 649 153 748T227 920T355 1036T541 1079Q624 1079 699 1047T840 958V1049H969V23ZM840 840Q767 897 697 931T551 965Q475 965 421 934T331 847T279 712T262 539Q262 460 271 384T309 247T392 150T535 113Q581
113 623 126T704 162T777 211T840 266V840Z" />
<glyph unicode="h" glyph-name="h" horiz-adv-x="1137" d="M834 0V651Q834 740 826 799T798 893T744 942T657 956Q588 956 497 905T311 762V0H182V1489H311V883Q355 924 400 960T491 1022T585 1064T680 1079Q764 1079 819 1054T906 981T950 862T963 700V0H834Z" />
<glyph unicode="i" glyph-name="i" horiz-adv-x="494" d="M338 1305Q338 1254 317 1236T246 1217Q195 1217 176 1240T156 1305Q156 1350 176 1370T246 1391Q297 1391 317 1371T338 1305ZM182 0V1049H311V0H182Z" />
<glyph unicode="j" glyph-name="j" horiz-adv-x="508" d="M350 1305Q350 1254 328 1236T258 1217Q205 1217 186 1240T166 1305Q166 1350 187 1370T258 1391Q309 1391 329 1371T350 1305ZM322 -55Q322 -141 309 -204T263 -310T175 -374T37 -395Q-3 -395 -49 -388T-141
-365L-109 -258Q-73 -272 -36 -279T43 -287Q86 -287 115 -273T161 -229T185 -153T193 -41V1049H322V-55Z" />
<glyph unicode="k" glyph-name="k" horiz-adv-x="1022" d="M801 0L430 489L311 358V0H182V1489H311V516L780 1049H940L514 578L963 0H801Z" />
<glyph unicode="l" glyph-name="l" horiz-adv-x="518" d="M195 0V1489H324V0H195Z" />
<glyph unicode="m" glyph-name="m" horiz-adv-x="1673" d="M1370 0V645Q1370 739 1364 799T1341 895T1295 943T1219 956Q1179 956 1142 942T1066 903T989 842T905 762V0H776V651Q776 744 769 803T745 896T698 943T621 956Q583 956 544 940T466 897T388 835T311
762V0H182V1049H311V883Q350 925 391 961T473 1023T558 1064T645 1079Q751 1079 812 1029T893 868Q937 916 978 955T1061 1021T1149 1064T1245 1079Q1325 1079 1374 1051T1452 973T1489 853T1499 700V0H1370Z" />
<glyph unicode="n" glyph-name="n" horiz-adv-x="1137" d="M834 0V651Q834 739 826 798T798 892T744 941T657 956Q588 956 497 905T311 762V0H182V1049H311V883Q356 926 401 962T493 1024T587 1064T682 1079Q766 1079 820 1054T906 981T950 862T963 700V0H834Z" />
<glyph unicode="o" glyph-name="o" horiz-adv-x="1141" d="M1012 522Q1012 397 988 296T911 121T774 9T571 -31Q452 -31 368 8T231 121T154 295T129 522Q129 644 153 746T230 923T367 1038T571 1079Q688 1079 771 1040T908 927T987 752T1012 522ZM877 522Q877
628 861 711T809 851T715 937T571 967Q485 967 426 937T331 849T278 709T262 522Q262 418 278 336T331 197T427 110T571 80Q654 80 712 109T807 196T860 335T877 522Z" />
<glyph unicode="p" glyph-name="p" horiz-adv-x="1151" d="M1022 532Q1022 409 997 306T921 127T793 11T610 -31Q533 -31 457 3T311 104V-395H182V1049H311V934Q342 965 378 992T455 1038T540 1068T629 1079Q735 1079 809 1037T931 920T1000 747T1022 532ZM889
528Q889 629 873 710T822 847T734 934T608 965Q528 965 454 923T311 811V225Q380 160 454 121T600 82Q662 82 715 108T806 188T867 327T889 528Z" />
<glyph unicode="q" glyph-name="q" horiz-adv-x="1151" d="M840 -395V115Q808 84 771 58T692 12T607 -19T518 -31Q418 -31 345 6T224 113T153 285T129 516Q129 625 151 726T222 906T347 1032T530 1079Q620 1079 696 1044T840 958V1049H969V-395H840ZM840 838Q765
898 690 931T543 965Q478 965 426 935T338 847T282 708T262 520Q262 422 276 341T323 203T406 114T532 82Q575 82 616 94T696 128T771 177T840 238V838Z" />
<glyph unicode="r" glyph-name="r" horiz-adv-x="797" d="M717 922Q682 936 641 936Q593 936 554 924T476 888T399 829T311 745V0H182V1049H311V868Q356 913 396 949T477 1011T559 1051T647 1065Q676 1065 700 1060T745 1044L717 922Z" />
<glyph unicode="s" glyph-name="s" horiz-adv-x="973" d="M856 268Q856 194 831 138T757 45T639 -12T481 -31Q400 -31 339 -14T234 31T161 90T117 154L221 219Q256 156 319 118T483 80Q535 80 580 88T658 118T710 174T729 264Q729 306 717 336T675 390T592 433T459
473Q375 495 315 520T215 580T156 665T137 786Q137 844 158 897T224 991T336 1055T494 1079Q563 1079 617 1064T714 1024T786 964T836 893L731 831Q716 859 695 884T645 927T579 956T494 967Q387 967 326 920T264 788Q264 747 275 718T312 668T382 629T494 594Q595
567 664 539T776 474T837 388T856 268Z" />
<glyph unicode="t" glyph-name="t" horiz-adv-x="723" d="M678 2Q638 -12 589 -21T489 -31Q411 -31 358 -12T273 50T227 158T213 317V938H55V1049H213V1341H342V1049H618V938H342V332Q342 259 349 210T373 132T421 91T498 78Q533 78 574 86T645 106L678 2Z" />
<glyph unicode="u" glyph-name="u" horiz-adv-x="1137" d="M825 0V166Q781 124 736 88T644 25T551 -16T457 -31Q372 -31 318 -6T231 67T187 186T174 348V1049H303V395Q303 307 310 249T337 155T391 105T477 90Q548 90 638 142T825 287V1049H954V0H825Z" />
<glyph unicode="v" glyph-name="v" horiz-adv-x="991" d="M563 0H426L57 1049H195L498 158L799 1049H932L563 0Z" />
<glyph unicode="w" glyph-name="w" horiz-adv-x="1430" d="M1104 0H979L715 870L451 0H326L82 1049H215L401 188L659 1049H776L1038 188L1219 1049H1348L1104 0Z" />
<glyph unicode="x" glyph-name="x" horiz-adv-x="965" d="M748 0L479 432L203 0H59L410 522L66 1049H217L487 618L760 1049H903L559 530L903 0H748Z" />
<glyph unicode="y" glyph-name="y" horiz-adv-x="1018" d="M41 -256Q66 -270 102 -277T172 -285Q247 -285 301 -226T399 -49L440 55L57 1049H197L508 217L823 1049H961L508 -98Q476 -179 441 -236T364 -328T275 -379T170 -395Q149 -395 126 -393T80 -387T38 -378T4
-365L41 -256Z" />
<glyph unicode="z" glyph-name="z" horiz-adv-x="936" d="M94 0V98L670 938H106V1049H825V952L248 111H842V0H94Z" />
<glyph unicode="{" glyph-name="braceleft" horiz-adv-x="975" d="M815 -395Q724 -395 653 -372T532 -302T456 -186T430 -27V143Q430 231 414 299T362 414T267 484T121 508H102V618H121Q206 618 265 640T360 708T413 822T430 981V1151Q430 1238 457 1306T535 1422T657
1495T815 1520H874V1415H827Q690 1415 621 1344T551 1133V958Q551 785 481 691T281 561Q410 529 480 434T551 166V-10Q551 -152 615 -222T827 -293H874V-395H815Z" />
<glyph unicode="|" glyph-name="bar" horiz-adv-x="850" d="M367 -395V1520H483V-395H367Z" />
<glyph unicode="}" glyph-name="braceright" horiz-adv-x="975" d="M100 -395V-293H145Q293 -293 358 -223T424 -10V166Q424 339 493 434T694 561Q565 596 495 690T424 958V1133Q424 1273 355 1344T145 1415H100V1520H160Q250 1520 321 1495T441 1421T517 1305T543
1151V981Q543 890 559 822T612 709T708 641T854 618H872V508H854Q767 508 708 484T612 414T559 300T543 143V-27Q543 -117 517 -186T442 -301T322 -371T160 -395H100Z" />
<glyph unicode="~" glyph-name="asciitilde" horiz-adv-x="1427" d="M164 756Q249 824 323 854T459 885Q520 885 586 861T720 806T853 752T975 727Q1014 727 1050 738T1122 767T1193 812T1264 868V739Q1235 717 1204 695T1137 656T1062 627T977 616Q937 616 893
627T802 657T708 695T617 733T532 762T459 774Q418 774 381 763T307 733T236 687T164 631V756Z" />
</font>
</defs>
</svg>
