<?xml version="1.0" standalone="no"?> <!DOCTYPE svg PUBLIC "-//W3C//DTD SVG 1.0//EN" "http://www.w3.org/TR/2001/REC-SVG-20010904/DTD/svg10.dtd" > <svg xmlns="http://www.w3.org/2000/svg" width="100%" height="100%">
<defs >
<font id="clearsans-regular" horiz-adv-x="1183" ><font-face
    font-family="Clear Sans"
    units-per-em="2048"
    panose-1="2 11 5 3 3 2 2 2 3 4"
    ascent="2206"
    descent="-563"
    alphabetic="0" />
<missing-glyph horiz-adv-x="1024" d="M25 1362H997V0H25V1362ZM512 768L842 1266H180L512 768ZM123 186L453 682L123 1178V186ZM569 682L901 184V1178L569 682ZM512 594L180 98H842L512 594Z" />
<glyph unicode=" " glyph-name="space" horiz-adv-x="553" />
<glyph unicode="!" glyph-name="exclam" horiz-adv-x="555" d="M352 399H207L178 1384H377L352 399ZM399 98Q399 35 370 11T276 -14Q205 -14 181 15T156 98Q156 158 183 184T276 211Q344 211 371 185T399 98Z" />
<glyph unicode="&quot;" glyph-name="quotedbl" horiz-adv-x="924" d="M709 834H582L541 1384H750L709 834ZM342 834H215L174 1384H383L342 834Z" />
<glyph unicode="#" glyph-name="numbersign" horiz-adv-x="1446" d="M1057 868L963 516H1227V393H928L823 0H694L797 393H487L383 0H254L358 393H102V516H391L487 868H219V993H520L625 1384H754L649 993H958L1065 1384H1194L1090 993H1343V868H1057ZM616 868L520
516H831L928 868H616Z" />
<glyph unicode="$" glyph-name="dollar" horiz-adv-x="1264" d="M1108 422Q1108 271 1005 178T711 76V-133H582V76Q311 89 174 313L313 395Q405 236 582 217V643Q365 692 283 767T201 977Q201 1125 306 1213T582 1309V1413H711V1309Q800 1305 870 1278T994 1207T1100
1079L958 997Q871 1154 711 1167V776Q930 724 1019 642T1108 422ZM582 1167Q375 1152 375 983Q375 907 434 868T582 807V1167ZM936 412Q936 489 883 535T711 614V217Q814 227 875 277T936 412Z" />
<glyph unicode="%" glyph-name="percent" horiz-adv-x="2089" d="M1610 -31Q1243 -31 1243 410Q1243 852 1610 852Q1804 852 1890 737T1976 412Q1976 -31 1610 -31ZM580 -51L1358 1436H1524L743 -51H580ZM479 530Q285 530 199 646T113 971Q113 1413 479 1413Q672
1413 760 1295T848 971Q848 764 759 647T479 530ZM1610 102Q1679 102 1720 133T1781 225T1800 412Q1800 537 1781 597T1720 688T1610 719Q1510 719 1465 651T1419 410Q1419 238 1464 170T1610 102ZM479 664Q580 664 625 731T670 971Q670 1145 624 1212T479 1280Q410
1280 369 1249T309 1155T291 971Q291 845 309 786T368 695T479 664Z" />
<glyph unicode="&amp;" glyph-name="ampersand" horiz-adv-x="1425" d="M1120 0L1026 111Q924 32 829 2T625 -29Q397 -29 267 77T137 360Q137 449 165 514T253 637T459 780Q391 858 344 938T297 1098Q297 1413 668 1413Q831 1413 920 1338T1010 1145Q1010 1034
938 940T709 750L1040 358Q1132 466 1171 629L1327 590Q1264 359 1147 231L1343 0H1120ZM834 1143Q834 1202 791 1241T662 1280Q568 1280 521 1235T473 1106Q473 1053 514 993T608 868Q714 927 774 998T834 1143ZM561 662Q457 594 410 551T343 465T324 356Q324
251 408 186T629 121Q745 121 817 158T928 227L561 662Z" />
<glyph unicode="&apos;" glyph-name="quotesingle" horiz-adv-x="557" d="M342 834H215L174 1384H383L342 834Z" />
<glyph unicode="(" glyph-name="parenleft" horiz-adv-x="797" d="M520 -395Q330 -177 242 53T154 561Q154 844 242 1071T520 1520H715Q520 1332 418 1087T315 561Q315 277 419 35T715 -395H520Z" />
<glyph unicode=")" glyph-name="parenright" horiz-adv-x="797" d="M82 -395Q278 -202 379 39T481 561Q481 817 388 1065T82 1520H276Q465 1302 554 1074T643 561Q643 286 558 60T276 -395H82Z" />
<glyph unicode="*" glyph-name="asterisk" horiz-adv-x="948" d="M799 905L528 1063L530 795H418L420 1063L150 903L92 1001L377 1157L92 1313L150 1409L420 1251L418 1520H530L526 1251L799 1409L856 1311L571 1157L856 1001L799 905Z" />
<glyph unicode="+" glyph-name="plus" horiz-adv-x="1427" d="M784 514V37H641V514H164V657H641V1137H784V657H1264V514H784Z" />
<glyph unicode="," glyph-name="comma" horiz-adv-x="555" d="M182 -293Q219 -247 242 -168T266 -14Q207 -14 182 12T156 98Q156 154 183 182T276 211Q342 211 370 177T399 78Q399 -45 363 -145T287 -293H182Z" />
<glyph unicode="-" glyph-name="hyphen" horiz-adv-x="827" d="M102 440V612H725V440H102Z" />
<glyph unicode="." glyph-name="period" horiz-adv-x="555" d="M399 98Q399 35 370 11T276 -14Q205 -14 181 15T156 98Q156 158 183 184T276 211Q344 211 371 185T399 98Z" />
<glyph unicode="/" glyph-name="slash" horiz-adv-x="991" d="M174 -299H8L723 1520H891L174 -299Z" />
<glyph unicode="0" glyph-name="zero" horiz-adv-x="1264" d="M1139 690Q1139 319 1015 144T631 -31Q371 -31 248 143T125 688Q125 1059 248 1233T631 1407Q893 1407 1016 1234T1139 690ZM944 690Q944 979 869 1113T631 1247Q471 1247 395 1112T319 688Q319 399
395 264T631 129Q793 129 868 264T944 690Z" />
<glyph unicode="1" glyph-name="one" horiz-adv-x="1264" d="M616 0V989H281V1118Q417 1126 486 1150T595 1223T664 1384H797V0H616Z" />
<glyph unicode="2" glyph-name="two" horiz-adv-x="1188" d="M139 0V195Q384 403 494 507T676 693T787 852T827 1022Q827 1125 759 1187T578 1249Q471 1249 404 1202T289 1079L135 1178Q207 1302 320 1357T586 1413Q787 1413 904 1314T1022 1032Q1022 940 996
860T915 706T766 539T348 168H1067V0H139Z" />
<glyph unicode="3" glyph-name="three" horiz-adv-x="1188" d="M1024 395Q1024 182 895 77T530 -29Q389 -29 273 26T102 174L256 272Q293 215 363 174T528 133Q684 133 756 199T829 408Q829 655 512 655H410V815H496Q639 815 722 876T805 1051Q805 1153 738 1202T559
1251Q369 1251 270 1098L115 1196Q177 1305 294 1359T571 1413Q705 1413 802 1372T949 1256T999 1079Q999 940 931 860T721 745Q852 735 938 647T1024 395Z" />
<glyph unicode="4" glyph-name="four" horiz-adv-x="1264" d="M956 307V0H778V307H66V485L786 1384H956V467H1147V307H956ZM778 1120L248 467H778V1120Z" />
<glyph unicode="5" glyph-name="five" horiz-adv-x="1188" d="M1044 442Q1044 225 919 98T545 -29Q385 -29 275 30T113 174L266 274Q301 219 370 176T541 133Q696 133 774 216T852 442Q852 567 772 640T543 713Q394 713 285 641H195L270 1384H995V1217H422L379
821Q422 844 481 856T598 868Q811 868 927 760T1044 442Z" />
<glyph unicode="6" glyph-name="six" horiz-adv-x="1188" d="M606 -29Q355 -29 239 147T123 666Q123 1022 267 1217T666 1413Q784 1413 870 1380T1028 1280L913 1137Q854 1194 799 1223T666 1253Q362 1253 324 780Q381 821 468 854T657 887Q848 887 962 780T1077
449Q1077 217 952 94T606 -29ZM614 131Q752 131 821 211T891 442Q891 725 610 725Q532 725 454 698T322 637Q322 371 393 251T614 131Z" />
<glyph unicode="7" glyph-name="seven" horiz-adv-x="1264" d="M578 0H373L920 1217H139V1384H1106V1212L578 0Z" />
<glyph unicode="8" glyph-name="eight" horiz-adv-x="1188" d="M1079 356Q1079 162 948 67T596 -29Q356 -29 234 69T111 356Q111 623 410 735Q294 792 247 833T172 930T143 1059Q143 1227 258 1320T596 1413Q815 1413 931 1323T1047 1061Q1047 989 1017 932T937
830T778 735Q936 666 1007 576T1079 356ZM862 1057Q862 1151 796 1208T596 1266Q455 1266 392 1209T328 1063Q328 1009 353 973T432 899T596 811Q721 862 791 919T862 1057ZM895 356Q895 418 867 467T783 558T596 659Q468 606 413 565T327 472T295 354Q295 248
368 185T596 121Q752 121 823 186T895 356Z" />
<glyph unicode="9" glyph-name="nine" horiz-adv-x="1188" d="M254 248Q313 190 374 161T514 131Q672 131 758 244T864 604Q805 563 718 531T532 498Q340 498 226 604T111 936Q111 1165 235 1289T578 1413Q838 1413 951 1240T1065 739Q1065 492 1004 323T820 62T514
-29Q286 -29 141 106L254 248ZM578 659Q655 659 734 687T866 748Q866 937 838 1036T748 1194T578 1253Q440 1253 368 1173T295 942Q295 659 578 659Z" />
<glyph unicode=":" glyph-name="colon" horiz-adv-x="555" d="M399 936Q399 872 370 848T276 823Q205 823 181 853T156 936Q156 995 183 1022T276 1049Q344 1049 371 1022T399 936ZM399 98Q399 35 370 11T276 -14Q205 -14 181 15T156 98Q156 158 183 184T276 211Q344
211 371 185T399 98Z" />
<glyph unicode=";" glyph-name="semicolon" horiz-adv-x="555" d="M399 936Q399 872 370 848T276 823Q205 823 181 853T156 936Q156 995 183 1022T276 1049Q344 1049 371 1022T399 936ZM399 78Q399 -45 363 -145T287 -293H182Q218 -247 242 -165T266 -14Q207 -14
182 12T156 98Q156 154 183 182T276 211Q344 211 371 177T399 78Z" />
<glyph unicode="&lt;" glyph-name="less" horiz-adv-x="1427" d="M164 524V649L1264 1112V956L362 586L1264 217V61L164 524Z" />
<glyph unicode="=" glyph-name="equal" horiz-adv-x="1427" d="M164 745V889H1264V745H164ZM164 283V426H1264V283H164Z" />
<glyph unicode="&gt;" glyph-name="greater" horiz-adv-x="1427" d="M164 61V217L1063 586L164 956V1112L1264 649V524L164 61Z" />
<glyph unicode="?" glyph-name="question" horiz-adv-x="1049" d="M356 379V653Q579 759 662 843T745 1030Q745 1133 679 1191T487 1249Q379 1249 317 1208T219 1108L68 1206Q119 1298 219 1355T485 1413Q693 1413 816 1319T940 1051Q940 955 900 879T785 739T530
578V379H356ZM567 98Q567 35 538 11T444 -14Q373 -14 349 15T324 98Q324 158 351 184T444 211Q512 211 539 185T567 98Z" />
<glyph unicode="@" glyph-name="at" horiz-adv-x="1935" d="M1815 569Q1815 303 1713 160T1432 16Q1325 16 1267 47T1188 158Q1042 43 891 43Q771 43 689 101T564 268T520 516Q520 756 631 889T940 1022Q1064 1022 1180 940V993H1350V270Q1350 205 1371 182T1446
158Q1543 158 1602 266T1661 561Q1661 904 1486 1088T983 1272Q782 1272 619 1179T365 919T274 551Q274 224 462 28T979 -168Q1220 -168 1407 -123L1440 -266Q1255 -309 977 -309Q721 -309 527 -204T227 98T121 553Q121 792 231 990T540 1300T981 1413Q1377 1413
1596 1189T1815 569ZM1178 791Q1055 870 967 870Q819 870 757 781T694 520Q694 203 930 203Q1031 203 1178 309V791Z" />
<glyph unicode="A" glyph-name="A" horiz-adv-x="1288" d="M51 0L524 1384H764L1237 0H1042L922 360H358L240 0H51ZM414 528H864L639 1202L414 528Z" />
<glyph unicode="B" glyph-name="B" horiz-adv-x="1272" d="M1157 406Q1157 193 1021 97T633 0H182V1384H592Q846 1384 958 1312T1071 1069Q1071 930 1010 857T856 756Q993 737 1075 655T1157 406ZM881 1028Q881 1134 815 1177T580 1221H367V809H571Q737 809 809
862T881 1028ZM965 414Q965 500 932 549T828 622T602 645H367V168H555Q731 168 810 191T927 268T965 414Z" />
<glyph unicode="C" glyph-name="C" horiz-adv-x="1321" d="M1243 242Q1177 136 1109 82T949 -1T735 -29Q424 -29 277 150T129 692Q129 1053 275 1233T727 1413Q848 1413 943 1383T1103 1301T1223 1153L1071 1053Q1027 1127 982 1165T874 1226T727 1249Q519 1249
422 1111T324 692Q324 416 420 276T729 135Q847 135 934 181T1090 342L1243 242Z" />
<glyph unicode="D" glyph-name="D" horiz-adv-x="1292" d="M1174 692Q1174 438 1109 288T907 69T522 0H170V1384H518Q760 1384 900 1315T1107 1094T1174 692ZM979 694Q979 892 935 1004T790 1166T508 1217H354V168H508Q690 168 789 218T934 380T979 694Z" />
<glyph unicode="E" glyph-name="E" horiz-adv-x="1153" d="M182 0V1384H1028V1217H367V813H932V645H367V168H1028V0H182Z" />
<glyph unicode="F" glyph-name="F" horiz-adv-x="1108" d="M367 1217V813H922V645H367V0H182V1384H1020V1217H367Z" />
<glyph unicode="G" glyph-name="G" horiz-adv-x="1391" d="M1075 1051Q1026 1141 945 1195T727 1249Q518 1249 421 1111T324 688Q324 397 429 266T741 135Q821 135 889 153T1038 207V535H702V702H1223V106Q1110 43 999 7T741 -29Q429 -29 279 150T129 690Q129
1056 279 1234T729 1413Q899 1413 1022 1353T1225 1153L1075 1051Z" />
<glyph unicode="H" glyph-name="H" horiz-adv-x="1364" d="M997 0V633H367V0H182V1384H367V801H997V1384H1182V0H997Z" />
<glyph unicode="I" glyph-name="I" horiz-adv-x="770" d="M668 0H102V160H293V1227H102V1384H668V1227H477V160H668V0Z" />
<glyph unicode="J" glyph-name="J" horiz-adv-x="885" d="M700 377Q700 174 611 72T311 -31Q252 -31 178 -17T51 20L119 178Q151 162 211 148T309 133Q390 133 434 161T497 253T516 453V1384H700V377Z" />
<glyph unicode="K" glyph-name="K" horiz-adv-x="1264" d="M975 0L498 614L367 467V0H182V1384H367V705L952 1384H1182L616 748L1210 0H975Z" />
<glyph unicode="L" glyph-name="L" horiz-adv-x="1038" d="M182 0V1384H367V168H993V0H182Z" />
<glyph unicode="M" glyph-name="M" horiz-adv-x="1593" d="M1235 0V1147L852 377H737L358 1147V0H182V1384H432L799 631L1169 1384H1411V0H1235Z" />
<glyph unicode="N" glyph-name="N" horiz-adv-x="1386" d="M985 0L360 1188V0H182V1384H453L1026 297V1384H1204V0H985Z" />
<glyph unicode="O" glyph-name="O" horiz-adv-x="1364" d="M1245 692Q1245 319 1105 145T682 -29Q396 -29 258 148T119 692Q119 1056 256 1234T682 1413Q967 1413 1106 1238T1245 692ZM1051 692Q1051 979 965 1114T682 1249Q486 1249 400 1114T313 692Q313 403
400 269T682 135Q875 135 963 268T1051 692Z" />
<glyph unicode="P" glyph-name="P" horiz-adv-x="1182" d="M1083 942Q1083 692 966 581T584 469H367V0H182V1384H592Q851 1384 967 1277T1083 942ZM889 938Q889 1083 817 1150T571 1217H367V637H545Q691 637 758 665T857 757T889 938Z" />
<glyph unicode="Q" glyph-name="Q" horiz-adv-x="1364" d="M1249 -293Q1146 -328 1024 -328Q834 -328 734 -248T592 -25Q346 2 233 180T119 692Q119 1063 258 1238T684 1413Q965 1413 1105 1238T1245 692Q1245 365 1137 190T801 -23Q821 -88 872 -127T1032 -166Q1063
-166 1110 -159T1192 -141L1249 -293ZM1051 692Q1051 965 969 1107T684 1249Q490 1249 402 1116T313 692Q313 400 402 268T684 135Q876 135 963 269T1051 692Z" />
<glyph unicode="R" glyph-name="R" horiz-adv-x="1237" d="M961 0L608 565H367V0H182V1384H612Q870 1384 982 1289T1094 995Q1094 825 1026 726T803 594L1178 0H961ZM903 981Q903 1118 834 1169T610 1221H367V729H598Q714 729 780 753T875 831T903 981Z" />
<glyph unicode="S" glyph-name="S" horiz-adv-x="1227" d="M1112 379Q1112 185 985 78T612 -29Q425 -29 300 37T96 242L246 342Q363 135 608 135Q755 135 839 196T924 365Q924 426 897 468T826 538T725 584T606 618Q504 643 416 669T264 738T162 845T125 1014Q125
1198 243 1305T598 1413Q786 1413 898 1344T1075 1165L928 1061Q874 1151 797 1200T598 1249Q463 1249 388 1190T313 1030Q313 977 335 941T400 881T504 839T647 801Q741 776 826 749T974 676T1075 560T1112 379Z" />
<glyph unicode="T" glyph-name="T" horiz-adv-x="1184" d="M684 1217V0H500V1217H41V1384H1143V1217H684Z" />
<glyph unicode="U" glyph-name="U" horiz-adv-x="1405" d="M1223 578Q1223 351 1172 220T1012 29T705 -31Q509 -31 396 30T233 223T182 578V1384H367V598Q367 416 400 318T504 176T702 133Q829 133 901 175T1005 311T1038 594V1384H1223V578Z" />
<glyph unicode="V" glyph-name="V" horiz-adv-x="1225" d="M733 0H485L51 1384H244L614 178L985 1384H1174L733 0Z" />
<glyph unicode="W" glyph-name="W" horiz-adv-x="1757" d="M1356 0H1135L874 1108L612 0H395L68 1384H252L510 266L772 1384H981L1247 258L1509 1384H1690L1356 0Z" />
<glyph unicode="X" glyph-name="X" horiz-adv-x="1208" d="M53 0L502 694L66 1384H283L610 838L948 1384H1155L713 700L1155 0H938L602 557L260 0H53Z" />
<glyph unicode="Y" glyph-name="Y" horiz-adv-x="1147" d="M666 535V0H479V526L41 1384H250L575 711L907 1384H1106L666 535Z" />
<glyph unicode="Z" glyph-name="Z" horiz-adv-x="1163" d="M92 0V176L821 1217H123V1384H1040V1219L303 168H1057V0H92Z" />
<glyph unicode="[" glyph-name="bracketleft" horiz-adv-x="805" d="M195 -395V1489H682V1356H352V-262H682V-395H195Z" />
<glyph unicode="\" glyph-name="backslash" horiz-adv-x="991" d="M817 -299L100 1520H268L983 -299H817Z" />
<glyph unicode="]" glyph-name="bracketright" horiz-adv-x="805" d="M123 -395V-262H453V1356H123V1489H610V-395H123Z" />
<glyph unicode="^" glyph-name="asciicircum" horiz-adv-x="1243" d="M948 594L623 1231L295 594H143L547 1384H696L1100 594H948Z" />
<glyph unicode="_" glyph-name="underscore" horiz-adv-x="1024" d="M-10 -256V-154H1034V-256H-10Z" />
<glyph unicode="`" glyph-name="grave" horiz-adv-x="1085" d="M541 1208L268 1569H504L682 1208H541Z" />
<glyph unicode="a" glyph-name="a" horiz-adv-x="1100" d="M766 0V131Q686 61 605 15T422 -31Q272 -31 191 60T109 295Q109 403 151 474T274 587T508 647L766 670V721Q766 842 699 886T512 930Q406 930 349 893T266 813L125 899Q173 986 271 1032T516 1079Q742
1079 840 997T938 713V0H766ZM766 532L598 516Q427 501 357 450T287 299Q287 205 334 164T475 123Q514 123 552 137T627 173T698 222T766 276V532Z" />
<glyph unicode="b" glyph-name="b" horiz-adv-x="1174" d="M1057 532Q1057 267 949 118T645 -31Q561 -31 481 3T342 86V0H170V1489H342V944Q401 1001 484 1040T662 1079Q856 1079 956 937T1057 532ZM879 528Q879 738 815 832T629 926Q549 926 474 885T342 791V236Q399
188 474 156T621 123Q737 123 808 221T879 528Z" />
<glyph unicode="c" glyph-name="c" horiz-adv-x="1030" d="M958 162Q909 78 822 24T582 -31Q351 -31 234 108T117 522Q117 796 233 937T575 1079Q834 1079 944 887L803 801Q764 862 712 896T573 930Q422 930 359 821T295 518Q295 371 325 289T418 163T580 119Q664
119 717 150T817 248L958 162Z" />
<glyph unicode="d" glyph-name="d" horiz-adv-x="1174" d="M831 0V104Q772 47 689 8T512 -31Q323 -31 220 111T117 516Q117 773 229 926T539 1079Q698 1079 831 963V1489H1004V0H831ZM831 813Q694 926 561 926Q444 926 370 828T295 520Q295 123 545 123Q627 123
701 164T831 258V813Z" />
<glyph unicode="e" glyph-name="e" horiz-adv-x="1081" d="M295 504Q295 296 366 208T594 119Q664 119 717 148T819 244L961 156Q901 66 815 18T582 -31Q348 -31 233 105T117 516Q117 804 229 941T569 1079Q773 1079 875 962T977 600V504H295ZM809 639Q807 780
750 858T563 936Q440 936 379 866T297 639H809Z" />
<glyph unicode="f" glyph-name="f" horiz-adv-x="633" d="M676 1333Q647 1348 603 1359T524 1370Q437 1370 403 1326T369 1151V1049H602V905H369V0H197V905H43V1049H197V1151Q197 1341 268 1430T520 1520Q633 1520 723 1481L676 1333Z" />
<glyph unicode="g" glyph-name="g" horiz-adv-x="1174" d="M1004 23Q1004 -188 900 -291T553 -395Q322 -395 172 -297L236 -158Q371 -252 553 -252Q700 -252 765 -191T831 12V135Q772 78 690 39T512 0Q319 0 218 137T117 535Q117 791 230 935T539 1079Q698 1079
831 963V1049H1004V23ZM831 813Q694 926 561 926Q430 926 363 824T295 539Q295 337 358 246T545 154Q689 154 831 289V813Z" />
<glyph unicode="h" glyph-name="h" horiz-adv-x="1163" d="M829 0V618Q829 768 815 817T766 890T666 913Q600 913 512 863T342 741V0H170V1489H342V893Q415 966 512 1022T707 1079Q859 1079 930 993T1001 700V0H829Z" />
<glyph unicode="i" glyph-name="i" horiz-adv-x="512" d="M369 1315Q369 1255 342 1234T256 1212Q193 1212 169 1239T145 1315Q145 1368 171 1392T256 1417Q317 1417 343 1394T369 1315ZM170 0V1049H342V0H170Z" />
<glyph unicode="j" glyph-name="j" horiz-adv-x="537" d="M385 1315Q385 1255 359 1234T272 1212Q209 1212 186 1239T162 1315Q162 1368 187 1392T272 1417Q334 1417 359 1394T385 1315ZM358 -45Q358 -235 284 -315T45 -395Q-55 -395 -143 -365L-100 -223Q-27
-252 51 -252Q135 -252 160 -194T186 -25V1049H358V-45Z" />
<glyph unicode="k" glyph-name="k" horiz-adv-x="1049" d="M788 0L455 471L342 346V0H170V1489H342V559L768 1049H979L561 590L1001 0H788Z" />
<glyph unicode="l" glyph-name="l" horiz-adv-x="528" d="M178 0V1489H350V0H178Z" />
<glyph unicode="m" glyph-name="m" horiz-adv-x="1712" d="M1378 0V618Q1378 774 1366 824T1324 893T1233 913Q1181 913 1116 876T946 741V0H774V618Q774 766 762 818T721 891T631 913Q575 913 500 869T342 741V0H170V1049H342V893Q410 967 494 1023T674 1079Q780
1079 843 1030T928 874Q1010 961 1095 1020T1284 1079Q1380 1079 1438 1039T1523 922T1550 700V0H1378Z" />
<glyph unicode="n" glyph-name="n" horiz-adv-x="1163" d="M829 0V618Q829 768 814 818T765 890T666 913Q600 913 512 863T342 741V0H170V1049H342V893Q415 966 512 1022T707 1079Q859 1079 930 993T1001 700V0H829Z" />
<glyph unicode="o" glyph-name="o" horiz-adv-x="1157" d="M1040 522Q1040 249 923 109T580 -31Q355 -31 236 107T117 522Q117 803 236 941T580 1079Q806 1079 923 939T1040 522ZM862 522Q862 736 792 833T580 930Q435 930 365 833T295 522Q295 317 362 218T580
119Q723 119 792 217T862 522Z" />
<glyph unicode="p" glyph-name="p" horiz-adv-x="1174" d="M1057 532Q1057 274 945 122T635 -31Q478 -31 342 86V-395H170V1049H342V944Q401 1001 484 1040T662 1079Q849 1079 953 938T1057 532ZM879 528Q879 926 629 926Q547 926 472 885T342 791V236Q476 123
612 123Q729 123 804 221T879 528Z" />
<glyph unicode="q" glyph-name="q" horiz-adv-x="1174" d="M831 -395V104Q772 47 689 8T512 -31Q321 -31 219 108T117 516Q117 781 225 930T528 1079Q612 1079 692 1046T831 963V1049H1004V-395H831ZM831 813Q774 860 700 893T553 926Q436 926 366 828T295 520Q295
311 358 217T545 123Q686 123 831 258V813Z" />
<glyph unicode="r" glyph-name="r" horiz-adv-x="811" d="M737 879Q709 891 657 891Q580 891 509 856T342 725V0H170V1049H342V879Q414 952 493 1008T670 1065Q735 1065 774 1044L737 879Z" />
<glyph unicode="s" glyph-name="s" horiz-adv-x="991" d="M887 283Q887 136 783 53T487 -31Q356 -31 252 18T100 158L238 242Q317 115 492 115Q606 115 662 158T719 276Q719 320 699 347T637 395T465 451Q278 494 202 570T125 772Q125 911 225 995T502 1079Q639
1079 732 1025T868 895L731 811Q649 934 498 934Q412 934 353 896T293 778Q293 707 345 675T508 616Q686 570 754 530T854 432T887 283Z" />
<glyph unicode="t" glyph-name="t" horiz-adv-x="729" d="M694 0Q594 -31 496 -31Q336 -31 267 53T197 317V905H47V1049H197V1341H369V1049H635V905H369V350Q369 223 394 168T508 113Q584 113 649 141L694 0Z" />
<glyph unicode="u" glyph-name="u" horiz-adv-x="1163" d="M821 0V156Q741 76 645 23T457 -31Q352 -31 287 8T192 127T162 348V1049H334V430Q334 280 349 230T399 158T498 135Q563 135 651 185T821 307V1049H993V0H821Z" />
<glyph unicode="v" glyph-name="v" horiz-adv-x="1008" d="M588 0H418L51 1049H236L508 225L778 1049H956L588 0Z" />
<glyph unicode="w" glyph-name="w" horiz-adv-x="1475" d="M1153 0H993L737 803L481 0H324L63 1049H242L420 250L670 1049H813L1069 250L1239 1049H1411L1153 0Z" />
<glyph unicode="x" glyph-name="x" horiz-adv-x="1012" d="M741 0L500 399L250 0H55L403 518L59 1049H270L512 651L760 1049H956L608 530L956 0H741Z" />
<glyph unicode="y" glyph-name="y" horiz-adv-x="1040" d="M39 -223Q104 -252 190 -252Q311 -252 395 -33L430 57L47 1049H233L522 281L813 1049H993L545 -80Q474 -253 393 -324T182 -395Q135 -395 82 -386T-4 -365L39 -223Z" />
<glyph unicode="z" glyph-name="z" horiz-adv-x="934" d="M82 0V131L629 905H94V1049H836V924L287 145H852V0H82Z" />
<glyph unicode="{" glyph-name="braceleft" horiz-adv-x="977" d="M805 -395Q625 -395 519 -297T412 -14V133Q412 311 338 400T121 489H102V637H121Q412 637 412 993V1139Q412 1327 519 1423T805 1520H874V1386H823Q692 1386 631 1321T569 1122V950Q569 793 496
701T289 561Q569 466 569 174V2Q569 -131 630 -196T823 -262H874V-395H805Z" />
<glyph unicode="|" glyph-name="bar" horiz-adv-x="852" d="M348 -395V1520H504V-395H348Z" />
<glyph unicode="}" glyph-name="braceright" horiz-adv-x="977" d="M102 -395V-262H154Q285 -262 346 -197T408 2V174Q408 466 688 561Q555 608 482 700T408 950V1122Q408 1255 347 1320T154 1386H102V1520H172Q365 1520 465 1422T565 1139V993Q565 637 856 637H874V489H856Q714
489 640 400T565 133V-14Q565 -199 460 -297T172 -395H102Z" />
<glyph unicode="~" glyph-name="asciitilde" horiz-adv-x="1427" d="M164 774Q264 854 342 877T469 901Q530 901 594 877T723 823T849 768T967 743Q1014 743 1058 759T1143 797T1264 887V727Q1247 715 1219 695T1152 653T1067 616T971 600Q909 600 841 624T705
679T575 733T465 758Q399 758 321 721T164 614V774Z" />
</font>
</defs>
</svg>
