<?xml version="1.0" encoding="utf-8"?>
<!DOCTYPE svg PUBLIC "-//W3C//DTD SVG 1.1//EN" "http://www.w3.org/Graphics/SVG/1.1/DTD/svg11.dtd">

<svg version="1.1"
     xmlns="http://www.w3.org/2000/svg"
     xmlns:xlink="http://www.w3.org/1999/xlink"
     width="78"
     height="100"
     viewBox="0 0 78 100">

  <path id="receipt" fill="#fff" d="M68.976,7.229 L59.42,0 L49.704,7.229 L40.448,0 L30.407,7.229 L20.15,0 L10.489,7.229 L0,0 L0,92.437 L10.679,99.666 L19.798,92.437 L30.782,99.666 L40.424,92.437 L50.065,99.666 L58.76,92.437 L68.279,99.666 L78,92.437 L78,0 L68.976,7.229 L68.976,7.229 Z M35,79 L11,79 L11,75 L35,75 L35,79 L35,79 Z M35,65 L11,65 L11,61 L35,61 L35,65 L35,65 Z M35,52 L11,52 L11,48 L35,48 L35,52 L35,52 Z M64.622,73.679 C64.104,74.839 63.4,75.802 62.507,76.568 C61.613,77.336 60.566,77.924 59.366,78.328 C58.166,78.733 56.867,78.962 55.471,79.019 L55.471,82.286 L53.67,82.286 L53.67,79.019 C52.161,78.991 50.78,78.753 49.525,78.306 C48.267,77.86 47.191,77.226 46.299,76.402 C45.404,75.579 44.713,74.566 44.225,73.365 C43.738,72.164 43.507,70.783 43.535,69.22 L48.31,69.22 C48.282,71.063 48.686,72.515 49.525,73.574 C50.362,74.636 51.743,75.194 53.67,75.251 L53.67,65.114 C52.525,64.807 51.39,64.437 50.257,64.004 C49.126,63.572 48.107,63.014 47.2,62.33 C46.292,61.647 45.558,60.787 45.002,59.755 C44.442,58.722 44.163,57.438 44.163,55.901 C44.163,54.56 44.422,53.38 44.937,52.363 C45.455,51.343 46.153,50.492 47.032,49.807 C47.913,49.123 48.924,48.6 50.069,48.237 C51.214,47.874 52.414,47.693 53.67,47.693 L53.67,44.426 L55.471,44.426 L55.471,47.693 C56.728,47.693 57.914,47.86 59.031,48.195 C60.147,48.53 61.117,49.033 61.942,49.702 C62.765,50.372 63.421,51.225 63.91,52.257 C64.397,53.29 64.641,54.49 64.641,55.86 L59.869,55.86 C59.812,54.435 59.443,53.346 58.76,52.591 C58.076,51.839 56.979,51.46 55.472,51.46 L55.472,60.297 C56.729,60.633 57.956,61.024 59.159,61.471 C60.357,61.917 61.42,62.491 62.341,63.186 C63.262,63.886 64.002,64.752 64.562,65.785 C65.12,66.817 65.399,68.088 65.399,69.595 C65.397,71.161 65.137,72.521 64.622,73.679 L64.622,73.679 L64.622,73.679 Z M67,38 L11,38 L11,34 L67,34 L67,38 L67,38 Z M67,24 L11,24 L11,20 L67,20 L67,24 L67,24 Z M48.938,55.565 C48.938,56.235 49.078,56.808 49.357,57.283 C49.636,57.759 49.992,58.162 50.425,58.497 C50.858,58.832 51.359,59.105 51.933,59.313 C52.503,59.523 53.083,59.698 53.67,59.837 L53.67,51.46 C52.161,51.46 50.997,51.774 50.173,52.403 C49.349,53.032 48.938,54.086 48.938,55.565 L48.938,55.565 Z M59.012,66.957 C58.522,66.594 57.971,66.303 57.357,66.077 C56.743,65.853 56.114,65.659 55.472,65.493 L55.472,75.25 C56.979,75.139 58.215,74.697 59.179,73.931 C60.141,73.162 60.621,71.941 60.621,70.266 C60.621,69.486 60.475,68.829 60.182,68.297 C59.891,67.767 59.499,67.32 59.012,66.957 L59.012,66.957 Z"></path>

</svg>