<?xml version="1.0" encoding="utf-8"?><svg width="40" height="182" viewBox="0 0 40 182" xmlns="http://www.w3.org/2000/svg" xmlns:xlink="http://www.w3.org/1999/xlink"><svg width="40" height="25.05" viewBox="0 0 752 471" id="amex"><title>Slice 1</title><g fill="none" fill-rule="evenodd"><rect fill="#2557D6" x="1" width="750" height="471" rx="40"/><path d="M1.003 221.185h36.024l8.123-19.51h18.185l8.1 19.51h70.88V206.27l6.328 14.98h36.796l6.325-15.203v15.138h176.15l-.08-32.026h3.407c2.386.08 3.083.3 3.083 4.224v27.8h91.106v-7.455c7.35 3.92 18.78 7.454 33.82 7.454h38.328l8.202-19.51h18.185l8.02 19.51h73.86v-18.532l11.187 18.532h59.187V98.678h-58.576v14.468l-8.202-14.468h-60.105v14.468l-7.532-14.468h-81.188c-13.59 0-25.536 1.89-35.186 7.153v-7.15h-56.025v7.153c-6.14-5.425-14.508-7.152-23.812-7.152H180.908l-13.734 31.64-14.104-31.64H88.6v14.47l-7.083-14.47H26.534L1 156.925v64.26h.003zm227.396-17.67h-21.616l-.08-68.794-30.573 68.795h-18.51l-30.652-68.854v68.855H84.084l-8.1-19.592h-43.9l-8.184 19.59H1l37.756-87.836h31.326l35.86 83.164V115.68h34.41l27.594 59.587 25.347-59.587h35.104v87.837h.003zM68.775 165.692l-14.43-35.017-14.35 35.017h28.78zm245.642 37.82h-70.434v-87.836h70.433v18.29h-49.35V149.8h48.166v18.006H265.07v17.542h49.35v18.166zm99.255-64.18c0 14.005-9.386 21.24-14.856 23.413 4.612 1.748 8.552 4.838 10.428 7.397 2.977 4.37 3.49 8.27 3.49 16.116v17.254H391.47l-.08-11.077c0-5.285.508-12.886-3.328-17.112-3.08-3.09-7.777-3.76-15.368-3.76H350.06v31.95h-21.08v-87.838h48.496c10.775 0 18.714.283 25.53 4.207 6.67 3.924 10.67 9.652 10.67 19.45zm-26.652 13.043c-2.897 1.752-6.323 1.81-10.43 1.81h-25.61v-19.51h25.962c3.674 0 7.508.164 9.998 1.584 2.735 1.28 4.427 4.002 4.427 7.764 0 3.84-1.61 6.93-4.344 8.35zm60.467 51.138h-21.514v-87.837h21.513v87.837zm249.74 0h-29.88l-39.964-65.927v65.927h-42.94l-8.204-19.592h-43.8l-7.96 19.593h-24.67c-10.25 0-23.226-2.257-30.574-9.715-7.41-7.46-11.266-17.56-11.266-33.534 0-13.027 2.304-24.936 11.366-34.347 6.816-7.01 17.49-10.243 32.02-10.243h20.412v18.82h-19.984c-7.694 0-12.04 1.14-16.224 5.204-3.594 3.7-6.06 10.692-6.06 19.898 0 9.41 1.878 16.196 5.797 20.628 3.246 3.476 9.145 4.53 14.695 4.53h9.47l29.715-69.076h31.592l35.695 83.08v-83.08h32.103l37.063 61.174V115.68h21.597v87.834zm-128.16-37.82l-14.59-35.018-14.51 35.017h29.1zm181.89 178.074c-5.12 7.458-15.1 11.24-28.61 11.24h-40.72v-18.84h40.553c4.022 0 6.837-.528 8.532-2.176 1.47-1.357 2.493-3.33 2.493-5.73 0-2.56-1.024-4.59-2.575-5.81-1.53-1.34-3.757-1.95-7.43-1.95-19.796-.67-44.494.61-44.494-27.192 0-12.743 8.125-26.157 30.25-26.157h41.998v-17.48h-39.02c-11.776 0-20.33 2.81-26.388 7.175v-7.175H627.83c-9.23 0-20.063 2.278-25.187 7.174v-7.175H499.578v7.173c-8.203-5.892-22.043-7.175-28.43-7.175h-67.984v7.174c-6.49-6.258-20.92-7.175-29.716-7.175h-76.085l-17.41 18.762-16.307-18.764H149.99v122.59h111.517l17.94-19.058 16.9 19.06 68.74.06V343.48h6.756c9.12.14 19.878-.226 29.368-4.31v33.085h56.7v-31.953h2.734c3.49 0 3.834.143 3.834 3.616v28.333H636.71c10.936 0 22.366-2.786 28.696-7.844v7.846h54.632c11.37 0 22.47-1.587 30.918-5.65v-22.84zm-341.504-47.154c0 24.406-18.286 29.445-36.716 29.445H346.43v29.47h-40.98l-25.963-29.086-26.98 29.085H168.99v-87.86h84.8l25.94 28.8 26.82-28.8h67.37c16.733 0 35.533 4.614 35.533 28.946zm-167.625 40.434h-51.84v-17.48h46.29V301.64h-46.29v-15.973h52.86l23.063 25.604-24.08 25.778zm83.526 10.06l-32.37-35.788 32.37-34.653v70.44zm47.873-39.066H345.98V285.67h27.492c7.612 0 12.896 3.09 12.896 10.773 0 7.6-5.04 11.6-13.14 11.6zm142.743-40.37h70.37v18.17h-49.372v15.973h48.167v17.926h-48.167v17.48l49.372.08v18.23h-70.37v-87.86zm-27.053 47.03c4.693 1.724 8.53 4.816 10.33 7.375 2.976 4.29 3.407 8.293 3.492 16.037v17.417h-21.17v-10.993c0-5.286.51-13.112-3.408-17.198-3.08-3.148-7.777-3.9-15.468-3.9H440.16v32.09h-21.185v-87.86h48.678c10.674 0 18.448.47 25.37 4.146 6.653 4.004 10.838 9.488 10.838 19.51-.002 14.024-9.394 21.18-14.944 23.373zM477 303.59c-2.82 1.667-6.31 1.81-10.412 1.81h-25.613v-19.733h25.962c3.754 0 7.51.08 10.062 1.587 2.73 1.423 4.364 4.144 4.364 7.903 0 3.76-1.634 6.788-4.366 8.433zm190.335 5.597c4.106 4.23 6.306 9.572 6.306 18.614 0 18.903-11.856 27.725-33.12 27.725h-41.065v-18.84h40.9c4 0 6.836-.527 8.613-2.175 1.45-1.36 2.49-3.334 2.49-5.73 0-2.56-1.125-4.593-2.573-5.81-1.612-1.342-3.836-1.95-7.508-1.95-19.717-.672-44.41.608-44.41-27.194 0-12.744 8.04-26.158 30.144-26.158h42.27v18.7H630.7c-3.834 0-6.327.143-8.447 1.587-2.31 1.422-3.166 3.534-3.166 6.32 0 3.315 1.96 5.57 4.612 6.545 2.223.77 4.612.996 8.204.996l11.35.305c11.446.28 19.303 2.25 24.078 7.068zM751 285.667h-38.427c-3.836 0-6.385.143-8.532 1.587-2.222 1.423-3.08 3.534-3.08 6.322 0 3.314 1.88 5.57 4.61 6.544 2.226.77 4.615.996 8.127.996l11.427.304c11.53.284 19.228 2.258 23.92 7.072.856.67 1.37 1.422 1.957 2.175v-25z" fill="#FFF"/></g></svg><svg width="40" height="25.12" viewBox="0 0 750 471" id="diners" y="26"><title>Rectangle-1</title><path d="M0 40.005C0 17.91 17.914 0 39.992 0h670.016C732.095 0 750 17.906 750 40.005v390.99C750 453.09 732.086 471 710.008 471H39.992C17.905 471 0 453.094 0 430.995V40.005zm584.934 197.942c0-99.415-82.98-168.133-173.895-168.1h-78.244c-92.003-.033-167.73 68.705-167.73 168.1 0 90.93 75.727 165.64 167.73 165.204h78.242c90.913.438 173.894-74.29 173.894-165.202zM333.28 83.93c-84.07.027-152.194 68.308-152.214 152.58.02 84.258 68.144 152.533 152.214 152.56 84.09-.027 152.228-68.302 152.24-152.56-.012-84.272-68.15-152.553-152.24-152.58zM237.066 236.1c.08-41.18 25.746-76.296 61.94-90.25v180.48c-36.194-13.947-61.86-49.044-61.94-90.23zm131 90.275V145.847c36.207 13.92 61.914 49.057 61.98 90.257-.066 41.212-25.773 76.322-61.98 90.27z" fill="#0079BE" fill-rule="evenodd"/></svg><svg width="40" height="25.69" viewBox="0 0 780 501" id="discover" y="52"><title>Slice 1</title><g fill="none" fill-rule="evenodd"><path d="M54.992 0C24.627 0 0 24.63 0 55.004v390.992C0 476.376 24.62 501 54.992 501h670.016C755.373 501 780 476.37 780 445.996V55.004C780 24.624 755.38 0 725.008 0H54.992zm360.14 161.213c30.94 0 56.02 23.58 56.02 52.71v.032c0 29.13-25.08 52.742-56.02 52.742-30.94 0-56.023-23.613-56.023-52.742v-.033c0-29.13 25.08-52.71 56.02-52.71zm-87.98.68c8.837 0 16.248 1.784 25.268 6.09v22.75c-8.544-7.862-15.955-11.153-25.756-11.153-19.264 0-34.414 15.015-34.414 34.05 0 20.075 14.68 34.196 35.37 34.196 9.312 0 16.586-3.12 24.8-10.857v22.76c-9.34 4.14-16.91 5.777-25.756 5.777-31.278 0-55.582-22.596-55.582-51.737 0-28.825 24.95-51.877 56.07-51.877zm-97.113.627c11.544 0 22.11 3.72 30.94 10.994l-10.747 13.248c-5.35-5.646-10.41-8.028-16.564-8.028-8.854 0-15.3 4.745-15.3 10.99 0 5.353 3.62 8.187 15.943 12.48 23.365 8.045 30.29 15.177 30.29 30.927 0 19.195-14.976 32.555-36.32 32.555-15.63 0-26.994-5.795-36.458-18.872l13.268-12.03c4.73 8.61 12.622 13.222 22.42 13.222 9.163 0 15.947-5.952 15.947-13.984 0-4.163-2.054-7.733-6.157-10.257-2.066-1.195-6.158-2.977-14.2-5.647-19.29-6.538-25.91-13.527-25.91-27.185 0-16.224 14.214-28.41 32.846-28.41zm234.72 1.728h22.44l28.083 66.592 28.446-66.592h22.265L520.5 265.934h-11.05l-44.69-101.686zm-397.347.152h30.15c33.312 0 56.534 20.382 56.534 49.64 0 14.59-7.104 28.697-19.118 38.058-10.11 7.9-21.627 11.445-37.575 11.445h-29.99V164.4zm96.135 0h20.54v99.143h-20.54V164.4zm411.733 0h58.253v16.8H595.81v22.005h36.335v16.79H595.81v26.763h37.725v16.785h-58.252V164.4zm71.86 0h30.455c23.69 0 37.265 10.71 37.265 29.272 0 15.18-8.513 25.14-23.985 28.105l33.148 41.766h-25.26l-28.43-39.828h-2.677v39.828H647.14V164.4zm20.515 15.616v30.025h6.002c13.117 0 20.07-5.36 20.07-15.326 0-9.648-6.955-14.697-19.746-14.697h-6.325zM87.94 181.2v65.558h5.51c13.274 0 21.657-2.394 28.11-7.88 7.104-5.955 11.377-15.465 11.377-24.98 0-9.5-4.273-18.725-11.376-24.68-6.783-5.78-14.835-8.02-28.11-8.02h-5.51z" fill="#4D4D4D"/><path d="M779.982 288.36c-26.05 18.332-221.077 149.34-558.754 212.624H724.99c30.365 0 54.992-24.63 54.992-55.004V288.36z" fill="#F47216"/></g></svg><svg width="40" height="25.12" viewBox="0 0 750 471" id="jcb" y="78"><title>Slice 1</title><defs><linearGradient x1=".032%" y1="50%" x2="99.974%" y2="50%" id="da"><stop stop-color="#007B40" offset="0%"/><stop stop-color="#55B330" offset="100%"/></linearGradient><linearGradient x1=".472%" y1="50%" x2="99.986%" y2="50%" id="db"><stop stop-color="#1D2970" offset="0%"/><stop stop-color="#006DBA" offset="100%"/></linearGradient><linearGradient x1=".114%" y1="50.001%" x2="99.986%" y2="50.001%" id="dc"><stop stop-color="#6E2B2F" offset="0%"/><stop stop-color="#E30138" offset="100%"/></linearGradient></defs><g fill="none" fill-rule="evenodd"><rect fill="#0E4C96" width="750" height="471" rx="40"/><path d="M617.243 346.766c0 41.615-33.728 75.36-75.36 75.36H132.757v-297.88c0-41.627 33.733-75.372 75.365-75.372h409.12v297.892z" fill="#FFF"/><path d="M483.86 242.045c11.683.253 23.436-.516 35.076.4 11.787 2.2 14.628 20.043 4.156 25.888-7.14 3.85-15.633 1.432-23.38 2.113H483.86v-28.4zm41.83-32.145c2.596 9.165-6.238 17.392-15.066 16.13H483.86c.184-8.642-.37-18.02.27-26.208 10.725.3 21.55-.616 32.21.48 4.582 1.15 8.414 4.916 9.352 9.598zm64.43-135.903c.498 17.5.07 35.927.214 53.783-.035 72.596.072 145.194-.055 217.79-.47 27.207-24.584 50.844-51.6 51.387-27.048.11-54.097.016-81.144.047v-109.75c29.47-.154 58.96.307 88.417-.232 13.667-.86 28.632-9.876 29.27-24.915 1.61-15.102-12.632-25.55-26.153-27.2-5.197-.136-5.043-1.516 0-2.118 12.893-2.79 23.02-16.135 19.227-29.5-3.236-14.06-18.773-19.5-31.697-19.473-26.35-.18-52.71-.026-79.063-.077.172-20.488-.354-41 .286-61.473 2.087-26.716 26.806-48.747 53.447-48.27h78.85z" fill="url(#da)"/><path d="M159.74 125.04c.674-27.163 24.89-50.61 51.875-51.007 26.944-.083 53.89-.012 80.837-.036-.074 90.885.148 181.777-.112 272.658-1.038 26.834-24.99 49.834-51.68 50.307-26.995.1-53.994.014-80.99.042V283.55c26.222 6.195 53.72 8.833 80.472 4.722 15.993-2.575 33.488-10.424 38.902-27.014 3.986-14.192 1.742-29.126 2.334-43.692v-33.824H235.08c-.207 22.37.427 44.78-.334 67.125-1.248 13.734-14.846 22.46-27.8 21.995-16.066.17-47.898-11.64-47.898-11.64-.08-41.917.466-94.408.692-136.182z" fill="url(#db)"/><path d="M309.72 197.39c-2.434.517-.49-8.3-1.114-11.646.166-21.15-.346-42.323.284-63.458 2.083-26.83 26.99-48.916 53.74-48.288h78.765c-.074 90.884.147 181.775-.112 272.656-1.04 26.834-24.992 49.833-51.68 50.308-26.998.1-53.998.015-80.997.043V272.708c18.44 15.128 43.5 17.484 66.472 17.525 17.317-.006 34.534-2.675 51.35-6.67V260.79c-18.953 9.447-41.233 15.446-62.243 10.018-14.656-3.65-25.294-17.81-25.056-32.936-1.7-15.728 7.522-32.335 22.98-37.01 19.19-6.01 40.107-1.414 58.095 6.397 3.855 2.016 7.765 4.52 6.222-1.923v-17.9c-30.084-7.157-62.1-9.792-92.33-2.004-8.747 2.468-17.27 6.21-24.378 11.956z" fill="url(#dc)"/></g></svg><svg width="40" height="25.12" viewBox="0 0 750 471" id="maestro" y="104"><title>Slice 1</title><g fill="none" fill-rule="evenodd"><rect fill="#000" width="750" height="471" rx="40"/><path d="M675 235.506c0 99.134-80.35 179.496-179.483 179.496-99.12 0-179.48-80.362-179.48-179.496 0-99.14 80.36-179.508 179.48-179.508C594.65 55.998 675 136.365 675 235.506" fill="#D9222A"/><path d="M356.87 349.49c-4.957-6.013-9.524-12.36-13.674-19.01h63.612c3.817-6.095 7.263-12.44 10.342-19.01h-84.292c-2.87-6.15-5.425-12.493-7.596-19h99.476c5.987-17.905 9.23-37.05 9.23-56.964 0-13.046-1.393-25.762-4.03-38.012H320.075c1.392-6.48 3.142-12.817 5.208-19.01h99.442c-2.183-6.507-4.72-12.85-7.592-19.003H332.88c3.074-6.56 6.528-12.902 10.337-19.006h63.57c-4.145-6.63-8.724-12.975-13.67-18.992h-36.225c5.57-6.765 11.63-13.115 18.112-19C343.15 73.6 300.867 56 254.487 56 155.357 55.998 75 136.365 75 235.506c0 99.134 80.358 179.496 179.487 179.496 46.388 0 88.667-17.596 120.517-46.475 6.496-5.892 12.56-12.258 18.134-19.037H356.87" fill="#0097D0"/><path d="M651.075 335.544c0-3.2 2.596-5.796 5.8-5.796 3.2 0 5.792 2.596 5.792 5.796 0 3.204-2.592 5.8-5.792 5.8-3.204 0-5.8-2.596-5.8-5.8zm5.8 4.408c2.433 0 4.404-1.967 4.404-4.408 0-2.434-1.973-4.396-4.406-4.396s-4.408 1.962-4.408 4.396c0 2.44 1.975 4.408 4.408 4.408zm-.787-1.862h-1.184v-5.092h2.15c.446 0 .904.004 1.3.258.417.284.646.775.646 1.27 0 .584-.337 1.114-.88 1.318l.934 2.246h-1.316l-.775-2.01h-.875v2.01zm0-2.88h.658c.246 0 .504.017.725-.1.198-.13.3-.366.3-.59 0-.19-.123-.418-.286-.514-.212-.125-.54-.1-.762-.1h-.632v1.304zm-283.642-51.204c-7.67 2.034-15.088 3.025-22.93 3.01-25.016-.026-38.045-11.418-38.045-33.2 0-25.46 16.59-44.185 39.1-44.185 18.42 0 30.177 10.5 30.177 26.948 0 5.458-.796 10.77-2.746 18.296h-44.487c-1.583 10.633 6.188 15.304 19.413 15.304 7.925 0 15.092-1.425 23.025-4.612l-3.503 18.44zm-11.963-44.15c0-1.608 2.475-13.033-10.4-13.283-7.108 0-12.208 4.725-14.27 13.283h24.67zm27.034-4.99c0 9.403 5.296 15.9 17.33 20.736 9.2 3.77 10.65 4.858 10.65 8.22 0 4.663-4.068 6.805-13.093 6.747-6.78-.05-12.962-.873-20.262-2.898l-3.23 17.154c6.488 1.504 15.588 2 23.65 2.188 24.026 0 35.117-7.867 35.117-24.867 0-10.217-4.627-16.233-16.035-20.713-9.538-3.808-10.658-4.637-10.658-8.083 0-4.05 3.78-6.1 11.15-6.1 4.462 0 10.58.414 16.38 1.11l3.257-17.24c-5.912-.827-14.883-1.486-20.075-1.486-25.45 0-34.26 11.46-34.184 25.23m-88.24 50.92h-18.663l.445-7.82c-5.69 6.17-13.27 9.04-23.558 9.04-12.175 0-20.517-8.323-20.517-20.294 0-18.195 14.5-28.69 39.43-28.69 2.562 0 5.82.19 9.166.56.69-2.432.877-3.478.877-4.807 0-4.98-3.92-6.813-14.412-6.813-10.342.042-17.32 1.57-23.796 3.313l3.186-16.7c11.196-2.846 18.53-3.942 26.825-3.942 19.306 0 29.5 7.57 29.5 21.798.168 3.796-1.157 11.413-1.82 14.746-.76 4.854-6.11 32.975-6.666 39.612zm-16.38-33.19c-2.367-.242-3.396-.313-5.013-.313-12.73 0-19.183 3.79-19.183 11.27 0 4.69 3.15 7.632 8.058 7.632 9.146 0 15.75-7.65 16.138-18.586zm194.108 32.012c-6.125 1.68-10.896 2.41-16.058 2.41-11.433 0-17.675-5.843-17.675-16.25-.356-2.86 2.435-16.06 3.07-19.74.632-3.69 10.536-57.49 10.536-57.49h22.213l-3.364 17.8h11.392l-3.096 18.17h-11.44s-6.28 31.53-6.28 33.934c0 3.825 2.317 5.487 7.633 5.487 2.546 0 4.51-.237 6.03-.692l-2.96 16.37m99.245-74.975c-16.28 0-29 6.7-36.387 17.893l6.412-16.596c-11.817-4.337-19.433 1.85-26.325 10.65 0 0-1.154 1.463-2.3 2.8v-13.05h-20.858c-2.825 23.03-7.82 46.38-11.73 69.446l-.94 5.02h22.436c2.125-11.708 3.875-21.212 5.617-28.787 4.767-20.787 12.788-27.14 24.83-24.333-2.78 5.98-4.305 12.892-4.305 20.554 0 18.58 10.092 33.788 35.15 33.788 25.288 0 43.596-13.51 43.596-44.31 0-18.578-12.2-33.074-35.196-33.074zm-6.53 59.318c-7.924.125-12.728-6.525-12.728-16.47 0-11.793 7.012-25.113 18.275-25.113 9.087 0 12.2 7.204 12.2 14.88 0 16.778-6.875 26.703-17.746 26.703zm-343.19 16.846h-22.343l13.28-69.954-30.57 69.954H166.53l-3.727-69.55-13.32 69.55H129.21l17.267-90.996h34.912l2.91 50.725 22.118-50.725h37.722l-17.613 90.996" fill="#000"/><path d="M613.15 274.385c0-3.195 2.596-5.795 5.796-5.795 3.204 0 5.796 2.6 5.796 5.795 0 3.21-2.592 5.805-5.796 5.805-3.2 0-5.796-2.596-5.796-5.805zm5.796 4.413c2.433 0 4.408-1.98 4.408-4.413 0-2.433-1.975-4.404-4.408-4.404-2.433 0-4.408 1.973-4.408 4.406 0 2.434 1.975 4.413 4.408 4.413zm-.783-1.867h-1.188v-5.08h2.15c.45 0 .908 0 1.304.25.407.28.644.766.644 1.27 0 .58-.337 1.116-.883 1.316l.934 2.246h-1.317l-.77-2.007h-.875v2.008zm0-2.885h.658c.244 0 .506.016.727-.096.196-.134.296-.36.296-.59 0-.194-.12-.415-.284-.51-.213-.13-.54-.097-.763-.097h-.633v1.292zm-240.11 4.353c-7.665 2.033-15.086 3.03-22.924 3.012-25.018-.025-38.048-11.42-38.048-33.208 0-25.45 16.58-44.18 39.096-44.18 18.42 0 30.174 10.497 30.174 26.943 0 5.466-.8 10.77-2.74 18.3h-44.49c-1.582 10.63 6.18 15.308 19.41 15.308 7.924 0 15.087-1.425 23.03-4.617l-3.51 18.442zm-11.96-44.15c0-1.604 2.47-13.033-10.4-13.28-7.11 0-12.205 4.73-14.27 13.28h24.67zm27.037-4.996c0 9.408 5.287 15.9 17.324 20.746 9.204 3.767 10.65 4.858 10.65 8.212 0 4.667-4.066 6.81-13.087 6.75-6.784-.045-12.967-.87-20.263-2.895l-3.237 17.145c6.49 1.517 15.596 2.013 23.654 2.2 24.027 0 35.123-7.87 35.123-24.87 0-10.217-4.63-16.238-16.042-20.713-9.536-3.808-10.653-4.637-10.653-8.083 0-4.05 3.783-6.1 11.146-6.1 4.47 0 10.583.416 16.387 1.112l3.25-17.246c-5.913-.825-14.88-1.483-20.067-1.483-25.46 0-34.263 11.454-34.184 25.225m-88.243 50.928H286.22l.45-7.82c-5.695 6.16-13.274 9.034-23.558 9.034-12.175 0-20.52-8.325-20.52-20.288 0-18.204 14.495-28.696 39.43-28.696 2.56 0 5.815.192 9.17.563.69-2.433.875-3.475.875-4.808 0-4.984-3.917-6.813-14.41-6.813-10.34.042-17.32 1.575-23.795 3.313l3.184-16.696c11.2-2.85 18.53-3.948 26.83-3.948 19.303 0 29.495 7.567 29.495 21.792.17 3.8-1.157 11.412-1.815 14.754-.762 4.85-6.112 32.97-6.666 39.61zM288.5 246.986c-2.358-.245-3.392-.312-5.012-.312-12.72 0-19.18 3.787-19.18 11.267 0 4.696 3.154 7.634 8.055 7.634 9.154 0 15.758-7.654 16.137-18.588zm194.108 32.016c-6.12 1.675-10.895 2.408-16.054 2.408-11.433 0-17.67-5.845-17.67-16.254-.363-2.854 2.433-16.058 3.062-19.737.633-3.694 10.537-57.494 10.537-57.494h22.21l-3.355 17.8h11.39l-3.095 18.17h-11.44s-6.285 31.53-6.285 33.934c0 3.826 2.32 5.48 7.634 5.48 2.54 0 4.508-.23 6.03-.69L482.607 279m110.473-42.365c0 16.775-6.88 26.71-17.755 26.71-7.92.11-12.725-6.526-12.725-16.476 0-11.794 7.008-25.115 18.27-25.115 9.093 0 12.21 7.213 12.21 14.88zm23.978.467c0-18.58-12.208-33.08-35.195-33.08-26.45 0-43.55 17.626-43.55 43.597 0 18.577 10.083 33.79 35.15 33.79 25.287 0 43.595-13.513 43.595-44.31zM502.396 205.72c-2.82 23.028-7.817 46.374-11.72 69.45l-.947 5.02h22.432c8.087-44.56 10.8-57.255 27.74-52.784l8.15-21.087c-11.815-4.34-19.424 1.852-26.307 10.656.62-3.962 1.792-7.783 1.508-11.258h-20.858M232.137 280.19H209.8l13.275-69.96-30.575 69.96h-20.363l-3.725-69.555-13.32 69.555h-20.27l17.26-91h34.922l1.846 56.333 24.575-56.333h36.325l-17.613 91" fill="#FFF"/></g></svg><svg width="40" height="25.12" viewBox="0 0 750 471" id="mastercard" y="130"><title>Slice 1</title><g fill="none" fill-rule="evenodd"><rect fill="#000" width="750" height="471" rx="40"/><path d="M434.008 235.5c0 99.142-80.37 179.504-179.508 179.504S75 334.642 75 235.5c0-99.133 80.362-179.504 179.5-179.504 99.137 0 179.508 80.37 179.508 179.504" fill="#D9222A"/><path d="M495.492 55.996c-46.38 0-88.642 17.596-120.5 46.466-6.488 5.884-12.546 12.238-18.125 18.996h36.266c4.96 6.03 9.525 12.37 13.684 19.013h-63.634c-3.812 6.106-7.275 12.448-10.34 19.01h84.31c2.88 6.158 5.422 12.496 7.6 19.004h-99.51c-2.076 6.192-3.822 12.53-5.218 19.01h109.942c2.637 12.25 4.04 24.965 4.04 38.007 0 19.934-3.253 39.114-9.253 57.02h-99.512c2.175 6.514 4.716 12.856 7.595 19.01h84.317c-3.075 6.563-6.53 12.904-10.346 19.013h-63.625c4.154 6.63 8.73 12.98 13.684 18.996h36.258c-5.57 6.77-11.633 13.132-18.13 19.01 31.86 28.868 74.118 46.455 120.497 46.455C594.63 415.005 675 334.642 675 235.5c0-99.13-80.37-179.504-179.508-179.504" fill="#EE9F2D"/><path d="M651.075 335.558c0-3.2 2.592-5.8 5.796-5.8 3.206 0 5.798 2.6 5.798 5.8 0 3.2-2.592 5.8-5.796 5.8-3.203 0-5.795-2.6-5.795-5.8zm5.796 4.41c2.435 0 4.41-1.976 4.41-4.41 0-2.437-1.975-4.404-4.41-4.404-2.436 0-4.402 1.967-4.402 4.404 0 2.434 1.966 4.41 4.404 4.41zm-.78-1.86h-1.19v-5.095h2.15c.45 0 .908 0 1.304.254.413.28.646.77.646 1.28 0 .57-.337 1.103-.883 1.31l.937 2.25h-1.316l-.78-2.015h-.87v2.016zm0-2.89h.657c.246 0 .504.02.725-.1.197-.126.297-.36.297-.585 0-.195-.12-.42-.29-.516-.21-.13-.537-.1-.76-.1h-.63v1.3zm-443.503-80.064c-2.045-.237-2.945-.3-4.35-.3-11.045 0-16.637 3.788-16.637 11.267 0 4.614 2.73 7.548 6.987 7.548 7.938 0 13.66-7.56 14-18.513zm14.17 32.996h-16.145l.37-7.675c-4.924 6.067-11.495 8.95-20.424 8.95-10.562 0-17.804-8.25-17.804-20.23 0-18.024 12.596-28.54 34.217-28.54 2.21 0 5.043.2 7.943.57.605-2.442.763-3.487.763-4.8 0-4.908-3.396-6.738-12.5-6.738-9.533-.108-17.396 2.27-20.625 3.334.205-1.227 2.7-16.656 2.7-16.656 9.713-2.846 16.118-3.917 23.326-3.917 16.733 0 25.596 7.512 25.58 21.712.032 3.804-.597 8.5-1.58 14.67-1.692 10.73-5.32 33.717-5.817 39.32zm-62.157 0h-19.488l11.163-69.996-24.925 69.996h-13.28l-1.64-69.596-11.734 69.596H86.454l15.238-91.054h28.02l1.7 50.967 17.092-50.967h31.167L164.6 288.15m354.975-32.996c-2.037-.237-2.942-.3-4.342-.3-11.04 0-16.633 3.788-16.633 11.267 0 4.614 2.725 7.548 6.983 7.548 7.938 0 13.663-7.56 13.992-18.513zm14.183 32.996h-16.145l.366-7.675c-4.927 6.067-11.5 8.95-20.423 8.95-10.566 0-17.8-8.25-17.8-20.23 0-18.024 12.588-28.54 34.213-28.54 2.21 0 5.038.2 7.934.57.604-2.442.763-3.487.763-4.8 0-4.908-3.392-6.738-12.496-6.738-9.53-.108-17.386 2.27-20.627 3.334.204-1.227 2.708-16.656 2.708-16.656 9.714-2.846 16.114-3.917 23.314-3.917 16.74 0 25.604 7.512 25.587 21.712.034 3.804-.595 8.5-1.58 14.67-1.68 10.73-5.32 33.717-5.81 39.32zm-220.39-1.125c-5.335 1.68-9.493 2.4-14 2.4-9.964 0-15.4-5.725-15.4-16.267-.143-3.27 1.432-11.88 2.67-19.737 1.124-6.915 8.45-50.527 8.45-50.527h19.37l-2.26 11.208h11.7l-2.644 17.797h-11.742c-2.25 14.083-5.454 31.625-5.49 33.95 0 3.817 2.036 5.483 6.67 5.483 2.22 0 3.94-.226 5.254-.7l-2.58 16.395m59.392-.6c-6.654 2.033-13.075 3.017-19.88 3-21.682-.02-32.986-11.346-32.986-33.033 0-25.313 14.38-43.946 33.9-43.946 15.97 0 26.17 10.433 26.17 26.796 0 5.43-.7 10.73-2.387 18.212H339c-1.304 10.742 5.57 15.217 16.837 15.217 6.934 0 13.188-1.427 20.142-4.66l-3.223 18.416zm-10.887-43.9c.11-1.542 2.056-13.217-9.01-13.217-6.17 0-10.584 4.704-12.38 13.217h21.392zm-123.424-5.017c0 9.367 4.54 15.825 14.84 20.675 7.893 3.71 9.114 4.81 9.114 8.17 0 4.618-3.48 6.7-11.192 6.7-5.812 0-11.22-.907-17.458-2.92 0 0-2.563 16.32-2.68 17.1 4.43.967 8.38 1.863 20.28 2.192 20.562 0 30.058-7.83 30.058-24.75 0-10.175-3.975-16.146-13.737-20.633-8.17-3.75-9.107-4.588-9.107-8.046 0-4.004 3.238-6.046 9.538-6.046 3.826 0 9.05.408 14 1.113l2.776-17.175c-5.046-.8-12.696-1.442-17.15-1.442-21.8 0-29.346 11.387-29.28 25.062m229.087-23.116c5.413 0 10.46 1.42 17.413 4.92l3.187-19.762c-2.854-1.12-12.904-7.7-21.416-7.7-13.042 0-24.067 6.47-31.82 17.15-11.31-3.746-15.96 3.825-21.66 11.367l-5.062 1.18c.383-2.484.73-4.95.613-7.447h-17.896c-2.446 22.917-6.78 46.13-10.17 69.075l-.885 4.975h19.496c3.254-21.142 5.038-34.68 6.12-43.842l7.343-4.083c1.096-4.08 4.53-5.458 11.416-5.292-.9 4.834-1.383 9.917-1.383 15.184 0 24.225 13.07 39.308 34.05 39.308 5.402 0 10.04-.712 17.22-2.658l3.43-20.76c-6.46 3.18-11.76 4.676-16.56 4.676-11.33 0-18.184-8.362-18.184-22.183 0-20.05 10.196-34.108 24.746-34.108" fill="#000"/><path d="M170.208 282.742h-19.49l11.17-69.988-24.926 69.988H123.68l-1.643-69.588-11.733 69.588H92.062L107.3 191.7h28.02l.788 56.363 18.904-56.363h30.267l-15.073 91.042" fill="#FFF"/><path d="M632.52 197.096l-4.32 26.308c-5.33-7.012-11.054-12.087-18.612-12.087-9.834 0-18.784 7.454-24.642 18.425-8.158-1.692-16.596-4.563-16.596-4.563l-.004.065c.658-6.133.92-9.875.862-11.146h-17.9c-2.437 22.916-6.77 46.13-10.158 69.074l-.892 4.975h19.492c2.633-17.097 4.65-31.293 6.133-42.55 6.66-6.018 9.992-11.268 16.72-10.918-2.978 7.205-4.724 15.505-4.724 24.017 0 18.512 9.365 30.724 23.532 30.724 7.14 0 12.62-2.462 17.966-8.17l-.913 6.883H636.9l14.842-91.042h-19.22zm-24.37 73.942c-6.633 0-9.983-4.91-9.983-14.596 0-14.554 6.27-24.875 15.112-24.875 6.694 0 10.32 5.104 10.32 14.508 0 14.68-6.37 24.963-15.45 24.963z" fill="#000"/><path d="M218.192 249.758c-2.042-.237-2.946-.3-4.346-.3-11.046 0-16.634 3.788-16.634 11.267 0 4.604 2.73 7.546 6.98 7.546 7.945 0 13.666-7.556 14-18.51zm14.18 32.984h-16.147l.367-7.663c-4.92 6.052-11.5 8.95-20.42 8.95-10.568 0-17.805-8.25-17.805-20.23 0-18.034 12.59-28.543 34.216-28.543 2.21 0 5.042.2 7.938.57.606-2.44.764-3.486.764-4.807 0-4.907-3.39-6.728-12.496-6.728-9.537-.11-17.395 2.27-20.63 3.32.205-1.225 2.7-16.637 2.7-16.637 9.71-2.858 16.122-3.93 23.322-3.93 16.737 0 25.603 7.518 25.587 21.705.03 3.82-.605 8.512-1.584 14.675-1.687 10.725-5.32 33.725-5.812 39.317zm261.374-88.592l-3.192 19.767c-6.95-3.496-12-4.92-17.408-4.92-14.55 0-24.75 14.057-24.75 34.107 0 13.82 6.858 22.18 18.183 22.18 4.8 0 10.094-1.492 16.552-4.676l-3.42 20.75c-7.184 1.96-11.817 2.67-17.226 2.67-20.975 0-34.05-15.082-34.05-39.307 0-32.55 18.06-55.3 43.888-55.3 8.508 0 18.563 3.61 21.42 4.73m31.444 55.608c-2.042-.237-2.942-.3-4.346-.3-11.042 0-16.634 3.788-16.634 11.267 0 4.604 2.73 7.546 6.984 7.546 7.937 0 13.662-7.556 13.996-18.51zm14.18 32.984h-16.15l.37-7.663c-4.925 6.052-11.5 8.95-20.42 8.95-10.564 0-17.805-8.25-17.805-20.23 0-18.034 12.595-28.543 34.212-28.543 2.213 0 5.042.2 7.942.57.6-2.44.762-3.486.762-4.807 0-4.907-3.393-6.728-12.498-6.728-9.533-.11-17.395 2.27-20.63 3.32.205-1.225 2.705-16.637 2.705-16.637 9.71-2.858 16.117-3.93 23.317-3.93 16.742 0 25.604 7.518 25.583 21.705.034 3.82-.595 8.512-1.58 14.675-1.682 10.725-5.324 33.725-5.81 39.317zm-220.393-1.122c-5.338 1.68-9.496 2.41-14 2.41-9.963 0-15.4-5.726-15.4-16.267-.138-3.28 1.437-11.88 2.675-19.738 1.12-6.925 8.446-50.533 8.446-50.533h19.366l-2.258 11.212h9.942l-2.646 17.788h-9.975c-2.25 14.09-5.463 31.62-5.496 33.95 0 3.83 2.04 5.483 6.67 5.483 2.22 0 3.936-.217 5.253-.692l-2.58 16.388m59.394-.59c-6.65 2.033-13.08 3.012-19.88 3-21.683-.022-32.987-11.347-32.987-33.034 0-25.32 14.38-43.95 33.9-43.95 15.97 0 26.17 10.43 26.17 26.8 0 5.433-.7 10.733-2.382 18.212h-38.575c-1.305 10.742 5.57 15.22 16.837 15.22 6.93 0 13.188-1.432 20.137-4.674l-3.22 18.425zm-10.892-43.913c.117-1.538 2.058-13.217-9.013-13.217-6.166 0-10.58 4.717-12.375 13.217h21.388zm-123.42-5.004c0 9.366 4.54 15.816 14.84 20.675 7.89 3.708 9.113 4.812 9.113 8.17 0 4.617-3.483 6.7-11.187 6.7-5.815 0-11.223-.908-17.465-2.92 0 0-2.554 16.32-2.67 17.1 4.42.966 8.374 1.85 20.274 2.19 20.566 0 30.06-7.828 30.06-24.745 0-10.18-3.973-16.15-13.74-20.637-8.167-3.758-9.11-4.583-9.11-8.046 0-4 3.243-6.058 9.54-6.058 3.82 0 9.045.42 14.003 1.125l2.77-17.18c-5.04-.8-12.69-1.44-17.145-1.44-21.804 0-29.345 11.378-29.283 25.066m398.453 50.63H624.07l.918-6.893c-5.346 5.717-10.825 8.18-17.967 8.18-14.165 0-23.527-12.213-23.527-30.726 0-24.63 14.52-45.392 31.708-45.392 7.56 0 13.28 3.088 18.605 10.096l4.325-26.308h19.22l-14.842 91.042zm-28.745-17.11c9.075 0 15.45-10.283 15.45-24.954 0-9.406-3.63-14.51-10.325-14.51-8.838 0-15.117 10.317-15.117 24.875 0 9.687 3.36 14.587 9.994 14.587zm-56.843-56.93c-2.44 22.918-6.774 46.13-10.162 69.064l-.89 4.975h19.49c6.97-45.275 8.66-54.117 19.588-53.01 1.742-9.265 4.983-17.382 7.4-21.478-8.163-1.7-12.72 2.913-18.688 11.675.47-3.79 1.334-7.47 1.163-11.227h-17.9m-160.42 0c-2.446 22.918-6.78 46.13-10.167 69.064l-.887 4.975h19.5c6.962-45.275 8.646-54.117 19.57-53.01 1.75-9.265 4.992-17.382 7.4-21.478-8.154-1.7-12.716 2.913-18.678 11.675.47-3.79 1.325-7.47 1.162-11.227h-17.9m254.567 68.243c0-3.213 2.596-5.8 5.796-5.8 3.204 0 5.795 2.587 5.795 5.8 0 3.196-2.59 5.796-5.795 5.796-3.2 0-5.796-2.6-5.796-5.796zm5.796 4.404c2.437 0 4.404-1.975 4.404-4.404 0-2.433-1.967-4.408-4.404-4.408-2.434 0-4.41 1.975-4.41 4.408 0 2.43 1.976 4.404 4.41 4.404zm-.784-1.87h-1.19v-5.084h2.155c.446 0 .908.008 1.296.254.417.283.655.767.655 1.275 0 .575-.338 1.113-.888 1.317l.942 2.237h-1.32l-.78-2.01h-.87v2.01zm0-2.88h.652c.246 0 .513.017.73-.1.195-.125.295-.362.295-.587 0-.188-.116-.413-.287-.525-.203-.117-.54-.084-.762-.084h-.63v1.296z" fill="#FFF"/></g></svg><svg width="40" height="25.12" viewBox="0 0 750 471" id="visa" y="156"><title>Slice 1</title><g fill="none" fill-rule="evenodd"><rect fill="#0E4595" width="750" height="471" rx="40"/><path d="M278.197 334.228l33.36-195.763h53.36l-33.383 195.763h-53.337zm246.11-191.54c-10.57-3.966-27.136-8.222-47.822-8.222-52.725 0-89.865 26.55-90.18 64.603-.298 28.13 26.513 43.82 46.753 53.184 20.77 9.594 27.752 15.714 27.654 24.283-.132 13.12-16.587 19.116-31.923 19.116-21.36 0-32.705-2.966-50.23-10.276l-6.874-3.11-7.49 43.823c12.464 5.465 35.51 10.2 59.438 10.445 56.09 0 92.5-26.248 92.916-66.883.202-22.268-14.014-39.216-44.798-53.188-18.65-9.055-30.074-15.1-29.952-24.268 0-8.137 9.667-16.84 30.556-16.84 17.45-.27 30.09 3.536 39.937 7.5l4.78 2.26 7.235-42.43m137.307-4.22h-41.23c-12.774 0-22.332 3.486-27.942 16.233L513.198 334.1h56.03s9.163-24.123 11.235-29.418c6.123 0 60.553.084 68.336.084 1.594 6.852 6.49 29.333 6.49 29.333H704.8l-43.188-195.637zM596.197 264.87c4.413-11.28 21.26-54.723 21.26-54.723-.316.52 4.38-11.336 7.075-18.686l3.606 16.88s10.217 46.727 12.352 56.527h-44.293zM232.903 138.465l-52.24 133.496-5.567-27.127c-9.725-31.274-40.025-65.156-73.898-82.12l47.766 171.204 56.456-.065 84.004-195.385h-56.52" fill="#FFF"/><path d="M131.92 138.465H45.88l-.683 4.073c66.94 16.204 111.232 55.363 129.618 102.414l-18.708-89.96c-3.23-12.395-12.6-16.094-24.188-16.526" fill="#F2AE14"/></g></svg></svg>