<?xml version="1.0" encoding="utf-8"?><!DOCTYPE svg PUBLIC "-//W3C//DTD SVG 1.1//EN" "http://www.w3.org/Graphics/SVG/1.1/DTD/svg11.dtd"><svg xmlns="http://www.w3.org/2000/svg" width="21.84" height="28" viewBox="0 0 78 100"><path fill="#fff" d="M68.976 7.23L59.42 0l-9.716 7.23L40.448 0l-10.04 7.23L20.15 0l-9.66 7.23L0 0v92.437l10.68 7.23 9.118-7.23 10.984 7.23 9.642-7.23 9.64 7.23 8.696-7.23 9.52 7.23 9.72-7.23V0l-9.024 7.23zM35 79H11v-4h24v4zm0-14H11v-4h24v4zm0-13H11v-4h24v4zm29.622 21.68c-.518 1.16-1.222 2.122-2.115 2.888-.894.768-1.94 1.356-3.14 1.76-1.2.405-2.5.634-3.896.69v3.268h-1.8V79.02c-1.51-.03-2.89-.267-4.145-.714-1.258-.446-2.334-1.08-3.226-1.904-.896-.823-1.587-1.836-2.075-3.037-.487-1.2-.718-2.582-.69-4.145h4.775c-.028 1.843.376 3.295 1.215 4.354.837 1.062 2.218 1.62 4.145 1.677V65.115c-1.145-.307-2.28-.677-3.413-1.11-1.13-.432-2.15-.99-3.057-1.674-.908-.683-1.642-1.543-2.198-2.575-.56-1.033-.84-2.317-.84-3.854 0-1.34.26-2.52.775-3.537.518-1.02 1.216-1.87 2.095-2.556.88-.684 1.892-1.207 3.037-1.57 1.144-.363 2.344-.544 3.6-.544v-3.267h1.8v3.267c1.258 0 2.444.167 3.56.502 1.117.335 2.087.838 2.912 1.507.823.67 1.48 1.523 1.968 2.555.487 1.033.73 2.233.73 3.603h-4.77c-.058-1.425-.427-2.514-1.11-3.27-.684-.75-1.78-1.13-3.288-1.13v8.837c1.257.336 2.484.727 3.687 1.174 1.197.447 2.26 1.02 3.18 1.716.922.7 1.662 1.566 2.222 2.6.558 1.03.837 2.302.837 3.81-.003 1.565-.263 2.925-.778 4.083zM67 38H11v-4h56v4zm0-14H11v-4h56v4zM48.938 55.565c0 .67.14 1.243.42 1.718.278.476.634.88 1.067 1.214.433.335.934.608 1.508.816.57.21 1.15.385 1.737.524V51.46c-1.51 0-2.673.314-3.497.943-.824.63-1.235 1.683-1.235 3.162zm10.074 11.392c-.49-.363-1.04-.654-1.655-.88-.614-.224-1.243-.418-1.885-.584v9.757c1.507-.11 2.743-.553 3.707-1.32.96-.768 1.44-1.99 1.44-3.664 0-.78-.145-1.437-.438-1.97-.29-.53-.683-.976-1.17-1.34z"/></svg>