<?xml version="1.0" encoding="utf-8"?><svg width="40" height="25.12" viewBox="0 0 750 471" xmlns="http://www.w3.org/2000/svg"><title>Slice 1</title><g fill="none" fill-rule="evenodd"><rect fill="#000" width="750" height="471" rx="40"/><path d="M675 235.506c0 99.134-80.35 179.496-179.483 179.496-99.12 0-179.48-80.362-179.48-179.496 0-99.14 80.36-179.508 179.48-179.508C594.65 55.998 675 136.365 675 235.506" fill="#D9222A"/><path d="M356.87 349.49c-4.957-6.013-9.524-12.36-13.674-19.01h63.612c3.817-6.095 7.263-12.44 10.342-19.01h-84.292c-2.87-6.15-5.425-12.493-7.596-19h99.476c5.987-17.905 9.23-37.05 9.23-56.964 0-13.046-1.393-25.762-4.03-38.012H320.075c1.392-6.48 3.142-12.817 5.208-19.01h99.442c-2.183-6.507-4.72-12.85-7.592-19.003H332.88c3.074-6.56 6.528-12.902 10.337-19.006h63.57c-4.145-6.63-8.724-12.975-13.67-18.992h-36.225c5.57-6.765 11.63-13.115 18.112-19C343.15 73.6 300.867 56 254.487 56 155.357 55.998 75 136.365 75 235.506c0 99.134 80.358 179.496 179.487 179.496 46.388 0 88.667-17.596 120.517-46.475 6.496-5.892 12.56-12.258 18.134-19.037H356.87" fill="#0097D0"/><path d="M651.075 335.544c0-3.2 2.596-5.796 5.8-5.796 3.2 0 5.792 2.596 5.792 5.796 0 3.204-2.592 5.8-5.792 5.8-3.204 0-5.8-2.596-5.8-5.8zm5.8 4.408c2.433 0 4.404-1.967 4.404-4.408 0-2.434-1.973-4.396-4.406-4.396s-4.408 1.962-4.408 4.396c0 2.44 1.975 4.408 4.408 4.408zm-.787-1.862h-1.184v-5.092h2.15c.446 0 .904.004 1.3.258.417.284.646.775.646 1.27 0 .584-.337 1.114-.88 1.318l.934 2.246h-1.316l-.775-2.01h-.875v2.01zm0-2.88h.658c.246 0 .504.017.725-.1.198-.13.3-.366.3-.59 0-.19-.123-.418-.286-.514-.212-.125-.54-.1-.762-.1h-.632v1.304zm-283.642-51.204c-7.67 2.034-15.088 3.025-22.93 3.01-25.016-.026-38.045-11.418-38.045-33.2 0-25.46 16.59-44.185 39.1-44.185 18.42 0 30.177 10.5 30.177 26.948 0 5.458-.796 10.77-2.746 18.296h-44.487c-1.583 10.633 6.188 15.304 19.413 15.304 7.925 0 15.092-1.425 23.025-4.612l-3.503 18.44zm-11.963-44.15c0-1.608 2.475-13.033-10.4-13.283-7.108 0-12.208 4.725-14.27 13.283h24.67zm27.034-4.99c0 9.403 5.296 15.9 17.33 20.736 9.2 3.77 10.65 4.858 10.65 8.22 0 4.663-4.068 6.805-13.093 6.747-6.78-.05-12.962-.873-20.262-2.898l-3.23 17.154c6.488 1.504 15.588 2 23.65 2.188 24.026 0 35.117-7.867 35.117-24.867 0-10.217-4.627-16.233-16.035-20.713-9.538-3.808-10.658-4.637-10.658-8.083 0-4.05 3.78-6.1 11.15-6.1 4.462 0 10.58.414 16.38 1.11l3.257-17.24c-5.912-.827-14.883-1.486-20.075-1.486-25.45 0-34.26 11.46-34.184 25.23m-88.24 50.92h-18.663l.445-7.82c-5.69 6.17-13.27 9.04-23.558 9.04-12.175 0-20.517-8.323-20.517-20.294 0-18.195 14.5-28.69 39.43-28.69 2.562 0 5.82.19 9.166.56.69-2.432.877-3.478.877-4.807 0-4.98-3.92-6.813-14.412-6.813-10.342.042-17.32 1.57-23.796 3.313l3.186-16.7c11.196-2.846 18.53-3.942 26.825-3.942 19.306 0 29.5 7.57 29.5 21.798.168 3.796-1.157 11.413-1.82 14.746-.76 4.854-6.11 32.975-6.666 39.612zm-16.38-33.19c-2.367-.242-3.396-.313-5.013-.313-12.73 0-19.183 3.79-19.183 11.27 0 4.69 3.15 7.632 8.058 7.632 9.146 0 15.75-7.65 16.138-18.586zm194.108 32.012c-6.125 1.68-10.896 2.41-16.058 2.41-11.433 0-17.675-5.843-17.675-16.25-.356-2.86 2.435-16.06 3.07-19.74.632-3.69 10.536-57.49 10.536-57.49h22.213l-3.364 17.8h11.392l-3.096 18.17h-11.44s-6.28 31.53-6.28 33.934c0 3.825 2.317 5.487 7.633 5.487 2.546 0 4.51-.237 6.03-.692l-2.96 16.37m99.245-74.975c-16.28 0-29 6.7-36.387 17.893l6.412-16.596c-11.817-4.337-19.433 1.85-26.325 10.65 0 0-1.154 1.463-2.3 2.8v-13.05h-20.858c-2.825 23.03-7.82 46.38-11.73 69.446l-.94 5.02h22.436c2.125-11.708 3.875-21.212 5.617-28.787 4.767-20.787 12.788-27.14 24.83-24.333-2.78 5.98-4.305 12.892-4.305 20.554 0 18.58 10.092 33.788 35.15 33.788 25.288 0 43.596-13.51 43.596-44.31 0-18.578-12.2-33.074-35.196-33.074zm-6.53 59.318c-7.924.125-12.728-6.525-12.728-16.47 0-11.793 7.012-25.113 18.275-25.113 9.087 0 12.2 7.204 12.2 14.88 0 16.778-6.875 26.703-17.746 26.703zm-343.19 16.846h-22.343l13.28-69.954-30.57 69.954H166.53l-3.727-69.55-13.32 69.55H129.21l17.267-90.996h34.912l2.91 50.725 22.118-50.725h37.722l-17.613 90.996" fill="#000"/><path d="M613.15 274.385c0-3.195 2.596-5.795 5.796-5.795 3.204 0 5.796 2.6 5.796 5.795 0 3.21-2.592 5.805-5.796 5.805-3.2 0-5.796-2.596-5.796-5.805zm5.796 4.413c2.433 0 4.408-1.98 4.408-4.413 0-2.433-1.975-4.404-4.408-4.404-2.433 0-4.408 1.973-4.408 4.406 0 2.434 1.975 4.413 4.408 4.413zm-.783-1.867h-1.188v-5.08h2.15c.45 0 .908 0 1.304.25.407.28.644.766.644 1.27 0 .58-.337 1.116-.883 1.316l.934 2.246h-1.317l-.77-2.007h-.875v2.008zm0-2.885h.658c.244 0 .506.016.727-.096.196-.134.296-.36.296-.59 0-.194-.12-.415-.284-.51-.213-.13-.54-.097-.763-.097h-.633v1.292zm-240.11 4.353c-7.665 2.033-15.086 3.03-22.924 3.012-25.018-.025-38.048-11.42-38.048-33.208 0-25.45 16.58-44.18 39.096-44.18 18.42 0 30.174 10.497 30.174 26.943 0 5.466-.8 10.77-2.74 18.3h-44.49c-1.582 10.63 6.18 15.308 19.41 15.308 7.924 0 15.087-1.425 23.03-4.617l-3.51 18.442zm-11.96-44.15c0-1.604 2.47-13.033-10.4-13.28-7.11 0-12.205 4.73-14.27 13.28h24.67zm27.037-4.996c0 9.408 5.287 15.9 17.324 20.746 9.204 3.767 10.65 4.858 10.65 8.212 0 4.667-4.066 6.81-13.087 6.75-6.784-.045-12.967-.87-20.263-2.895l-3.237 17.145c6.49 1.517 15.596 2.013 23.654 2.2 24.027 0 35.123-7.87 35.123-24.87 0-10.217-4.63-16.238-16.042-20.713-9.536-3.808-10.653-4.637-10.653-8.083 0-4.05 3.783-6.1 11.146-6.1 4.47 0 10.583.416 16.387 1.112l3.25-17.246c-5.913-.825-14.88-1.483-20.067-1.483-25.46 0-34.263 11.454-34.184 25.225m-88.243 50.928H286.22l.45-7.82c-5.695 6.16-13.274 9.034-23.558 9.034-12.175 0-20.52-8.325-20.52-20.288 0-18.204 14.495-28.696 39.43-28.696 2.56 0 5.815.192 9.17.563.69-2.433.875-3.475.875-4.808 0-4.984-3.917-6.813-14.41-6.813-10.34.042-17.32 1.575-23.795 3.313l3.184-16.696c11.2-2.85 18.53-3.948 26.83-3.948 19.303 0 29.495 7.567 29.495 21.792.17 3.8-1.157 11.412-1.815 14.754-.762 4.85-6.112 32.97-6.666 39.61zM288.5 246.986c-2.358-.245-3.392-.312-5.012-.312-12.72 0-19.18 3.787-19.18 11.267 0 4.696 3.154 7.634 8.055 7.634 9.154 0 15.758-7.654 16.137-18.588zm194.108 32.016c-6.12 1.675-10.895 2.408-16.054 2.408-11.433 0-17.67-5.845-17.67-16.254-.363-2.854 2.433-16.058 3.062-19.737.633-3.694 10.537-57.494 10.537-57.494h22.21l-3.355 17.8h11.39l-3.095 18.17h-11.44s-6.285 31.53-6.285 33.934c0 3.826 2.32 5.48 7.634 5.48 2.54 0 4.508-.23 6.03-.69L482.607 279m110.473-42.365c0 16.775-6.88 26.71-17.755 26.71-7.92.11-12.725-6.526-12.725-16.476 0-11.794 7.008-25.115 18.27-25.115 9.093 0 12.21 7.213 12.21 14.88zm23.978.467c0-18.58-12.208-33.08-35.195-33.08-26.45 0-43.55 17.626-43.55 43.597 0 18.577 10.083 33.79 35.15 33.79 25.287 0 43.595-13.513 43.595-44.31zM502.396 205.72c-2.82 23.028-7.817 46.374-11.72 69.45l-.947 5.02h22.432c8.087-44.56 10.8-57.255 27.74-52.784l8.15-21.087c-11.815-4.34-19.424 1.852-26.307 10.656.62-3.962 1.792-7.783 1.508-11.258h-20.858M232.137 280.19H209.8l13.275-69.96-30.575 69.96h-20.363l-3.725-69.555-13.32 69.555h-20.27l17.26-91h34.922l1.846 56.333 24.575-56.333h36.325l-17.613 91" fill="#FFF"/></g></svg>