<?xml version="1.0" encoding="utf-8"?><svg xmlns="http://www.w3.org/2000/svg" viewBox="0 0 1000 1000" width="28" height="28"><path fill="#C3CFD8" d="M500-.3c276.1 0 500 223.9 500 500s-223.9 500-500 500S0 775.8 0 499.7C0 223.5 223.9-.3 500-.3z"/><circle fill="#FFF" cx="500" cy="317" r="139.1"/><path fill="#FFF" d="M751.8 643.6c.1-2.3.2-4.6.2-6.9 0-68-55.3-127-136.2-156.3l-109.9 110c-.4 29.8-1.4 58.8-2.8 86.6-1 .1-2 .3-3.1.3s-2-.2-3.1-.3c-1.4-27.9-2.4-56.9-2.8-86.7L384.3 480.4c-81 29.3-136.3 88.3-136.3 156.3 0 2.3.1 4.6.2 6.9l7.4 49.7c57.1 72 145.4 118.2 244.4 118.2s187.3-46.2 244.4-118.2l7.4-49.7z"/></svg>