<?xml version="1.0" encoding="utf-8"?><!DOCTYPE svg PUBLIC "-//W3C//DTD SVG 1.1//EN" "http://www.w3.org/Graphics/SVG/1.1/DTD/svg11.dtd"><svg xmlns="http://www.w3.org/2000/svg" width="24.29" height="28" viewBox="0 0 72 83"><path fill="#fff" d="M33.35 60.35c-2.807-6.308-1.503-13.505 3.323-18.334 4.828-4.826 12.03-6.13 18.34-3.323.06.026.122.037.182.06l-3.092 2.426c-1.29 1.01-1.516 2.877-.503 4.168.586.746 1.457 1.137 2.338 1.137.642 0 1.287-.207 1.83-.634l7.838-6.147c.888-.696 1.304-1.836 1.074-2.942l-2.04-9.783c-.333-1.604-1.903-2.635-3.512-2.3-1.605.333-2.636 1.906-2.302 3.512l.942 4.52c-.026-.014-.048-.032-.074-.043-8.826-3.927-18.906-2.09-25.686 4.685-6.773 6.778-8.61 16.858-4.683 25.68.546 1.23 1.75 1.958 3.015 1.958.448 0 .904-.092 1.34-.286 1.664-.74 2.412-2.69 1.67-4.355zm36.004-16.023c-.74-1.665-2.69-2.414-4.353-1.675-1.664.74-2.414 2.688-1.674 4.353 2.805 6.313 1.5 13.51-3.325 18.335-4.728 4.73-11.728 6.07-17.944 3.482l3.086-2.42c1.29-1.012 1.516-2.878.503-4.17-1.012-1.29-2.88-1.515-4.17-.502l-7.838 6.15c-.888.695-1.305 1.835-1.074 2.94l2.038 9.784c.293 1.4 1.528 2.364 2.905 2.364.2 0 .404-.02.608-.062 1.605-.335 2.636-1.907 2.302-3.513l-.938-4.5c2.934 1.23 5.994 1.838 9.02 1.838 5.952 0 11.76-2.318 16.17-6.728 6.77-6.768 8.61-16.847 4.687-25.675zM53.15 20H58V9.43C58 7.54 56.45 6 54.56 6H47V3.134C47 1.412 45.727 0 44 0h-2c-2.033 0-3 1.413-3 3.134V6H19V3.134C19 1.412 18 0 16 0h-1.774C12.504 0 11.09 1.413 11 3.134V6H3.44C1.48 6-.067 7.54 0 9.43v51.178c0 1.89 1.48 3.437 3.367 3.437H20V58H5V20h48.15z"/></svg>