<?xml version="1.0" encoding="utf-8"?>
<!DOCTYPE svg PUBLIC "-//W3C//DTD SVG 1.1//EN" "http://www.w3.org/Graphics/SVG/1.1/DTD/svg11.dtd">

<svg version="1.1"
     xmlns="http://www.w3.org/2000/svg"
     xmlns:xlink="http://www.w3.org/1999/xlink"
     width="72"
     height="83"
     viewBox="0 0 72 83">

  <path fill="#fff" id="subscription" d="M33.351,60.349 C30.543,54.042 31.847,46.845 36.673,42.016 C41.501,37.19 48.702,35.885 55.013,38.693 C55.073,38.719 55.135,38.73 55.195,38.753 L52.103,41.179 C50.813,42.191 50.587,44.057 51.6,45.348 C52.186,46.094 53.057,46.485 53.938,46.485 C54.58,46.485 55.225,46.278 55.769,45.851 L63.606,39.703 C64.494,39.007 64.91,37.867 64.68,36.761 L62.641,26.977 C62.307,25.373 60.737,24.342 59.128,24.676 C57.523,25.01 56.492,26.583 56.826,28.189 L57.768,32.709 C57.742,32.696 57.72,32.678 57.694,32.667 C48.868,28.74 38.788,30.578 32.008,37.352 C25.235,44.13 23.397,54.21 27.325,63.033 C27.871,64.261 29.076,64.99 30.34,64.99 C30.788,64.99 31.244,64.898 31.679,64.704 C33.344,63.963 34.092,62.013 33.351,60.349 Z M69.354,44.327 C68.615,42.662 66.665,41.913 65.001,42.652 C63.336,43.391 62.586,45.34 63.326,47.005 C66.131,53.318 64.826,60.516 60.001,65.34 C55.272,70.069 48.272,71.409 42.056,68.822 L45.142,66.402 C46.432,65.39 46.658,63.524 45.645,62.233 C44.633,60.943 42.766,60.717 41.476,61.73 L33.637,67.879 C32.749,68.575 32.332,69.715 32.563,70.82 L34.601,80.604 C34.893,82.005 36.128,82.968 37.505,82.968 C37.705,82.968 37.909,82.947 38.113,82.906 C39.718,82.571 40.749,80.999 40.415,79.393 L39.477,74.894 C42.411,76.123 45.471,76.731 48.498,76.731 C54.449,76.731 60.257,74.412 64.666,70.002 C71.437,63.234 73.277,53.155 69.354,44.327 Z M53.15,20 L58,20 L58,9.43000031 C58,7.54000092 56.4499969,6 54.5599976,6 L47,6 L47,3.134 C47,1.412 45.727,-1.42108547e-14 44,-1.42108547e-14 L42,-1.42108547e-14 C39.967,-1.42108547e-14 39,1.413 39,3.134 L39,6 L19,6 L19,3.134 C19,1.412 18,-1.42108547e-14 16,-1.42108547e-14 L14.226,-1.42108547e-14 C12.504,-1.42108547e-14 11.091,1.413 11,3.134 L11,6 L3.44000053,6 C1.48,6 -0.067,7.54000092 -1.45661261e-13,9.43000031 L-1.45661261e-13,60.608 C-1.45661261e-13,62.499 1.479,64.045 3.367,64.045 L20,64.045 L20,58 L5,58 L5,20 L53.15,20 Z"></path>

</svg>