<?xml version="1.0" encoding="UTF-8" standalone="no"?>
<svg xmlns:sketch="http://www.bohemiancoding.com/sketch/ns" xmlns="http://www.w3.org/2000/svg" height="401px" width="62px" version="1.1" xmlns:xlink="http://www.w3.org/1999/xlink" viewBox="0 0 62 401">
 <title>credit-cards</title>
 <description>Created with Sketch (http://www.bohemiancoding.com/sketch)</description>
 <g id="Page-1" fill-rule="evenodd" sketch:type="MSPage" fill="none">
  <g id="credit-cards" transform="translate(1)" sketch:type="MSLayerGroup">
   <g id="Group" sketch:type="MSShapeGroup" transform="translate(0 60)">
    <g id="Shape">
     <path d="m59.75 35c0 2.75-2.25 5-5 5h-50c-2.75 0-5-2.25-5-5v-30c0-2.75 2.25-5 5-5h50c2.75 0 5 2.25 5 5v30z" fill="#5EC1EC"/>
     <path d="m58.281 1.469c0.906 0.906 1.469 2.156 1.469 3.531v15 15c0 1.375-0.562 2.625-1.469 3.531s-2.156 1.469-3.531 1.469h-25-25c-1.375 0-2.625-0.562-3.531-1.469l57.062-37.062z" fill="#5BBBE6"/>
     <g transform="translate(11 16)" fill="#fff">
      <path d="m6.305 8.922l-0.457-1.74h-3.015l-0.47 1.74h-2.755l3.028-9.318h3.345l3.065 9.318h-2.741zm-0.977-3.797l-0.4-1.523c-0.094-0.338-0.206-0.775-0.34-1.313-0.133-0.538-0.221-0.923-0.264-1.155-0.037 0.216-0.113 0.571-0.225 1.066s-0.361 1.471-0.746 2.926l1.975-0.001z"/>
      <path d="m14.094 8.922l-1.898-6.685h-0.057c0.089 1.138 0.133 2.022 0.133 2.654v4.03h-2.221v-9.281h3.338l1.937 6.59h0.051l1.897-6.59h3.346v9.281h-2.305v-4.069c0-0.211 0.004-0.445 0.01-0.704s0.035-0.891 0.086-1.898h-0.057l-1.873 6.672h-2.387z"/>
      <path d="m27.869 8.922h-5.51v-9.281h5.51v2.013h-3.004v1.46h2.781v2.012h-2.781v1.752h3.004v2.044z"/>
      <path d="m37.854 8.922h-2.9l-1.811-2.9-1.789 2.9h-2.838l3.078-4.748-2.895-4.533h2.781l1.676 2.869 1.611-2.869h2.863l-2.939 4.729 3.163 4.552z"/>
     </g>
     <g transform="translate(11 16)" fill="#fff">
      <path d="m6.305 8.922l-0.457-1.74h-3.015l-0.47 1.74h-2.755l3.028-9.318h3.345l3.065 9.318h-2.741zm-0.977-3.797l-0.4-1.523c-0.094-0.338-0.206-0.775-0.34-1.313-0.133-0.538-0.221-0.923-0.264-1.155-0.037 0.216-0.113 0.571-0.225 1.066s-0.361 1.471-0.746 2.926l1.975-0.001z"/>
      <path d="m14.094 8.922l-1.898-6.685h-0.057c0.089 1.138 0.133 2.022 0.133 2.654v4.03h-2.221v-9.281h3.338l1.937 6.59h0.051l1.897-6.59h3.346v9.281h-2.305v-4.069c0-0.211 0.004-0.445 0.01-0.704s0.035-0.891 0.086-1.898h-0.057l-1.873 6.672h-2.387z"/>
      <path d="m27.869 8.922h-5.51v-9.281h5.51v2.013h-3.004v1.46h2.781v2.012h-2.781v1.752h3.004v2.044z"/>
      <path d="m37.854 8.922h-2.9l-1.811-2.9-1.789 2.9h-2.838l3.078-4.748-2.895-4.533h2.781l1.676 2.869 1.611-2.869h2.863l-2.939 4.729 3.163 4.552z"/>
     </g>
    </g>
    <path id="Shape" fill="#9BCEE0" d="m54.75 1c2.206 0 4 1.794 4 4v30c0 2.206-1.794 4-4 4h-50c-2.206 0-4-1.794-4-4v-30c0-2.206 1.794-4 4-4h50zm0-1h-50c-2.75 0-5 2.25-5 5v30c0 2.75 2.25 5 5 5h50c2.75 0 5-2.25 5-5v-30c0-2.75-2.25-5-5-5z"/>
   </g>
   <g id="Group" sketch:type="MSShapeGroup" transform="translate(0 120)">
    <path id="Shape" fill="#5565AF" d="m59.75 35c0 2.75-2.25 5-5 5h-50c-2.75 0-5-2.25-5-5v-30c0-2.75 2.25-5 5-5h50c2.75 0 5 2.25 5 5v30z"/>
    <path id="Shape" opacity=".04" fill="#fff" d="m57.312 0.5c0.906 0.906 1.469 2.156 1.469 3.531v15 15c0 1.375-0.562 2.625-1.469 3.531s-2.156 1.469-3.531 1.469h-25-25c-1.375 0-2.625-0.562-3.531-1.469l57.062-37.062z"/>
    <g id="Shape" fill="#EA564B" transform="translate(12 10)">
     <path d="m17.75 3.4c-1.833-2.08-4.51-3.4-7.5-3.4-5.522 0-10 4.477-10 10 0 5.521 4.478 10 10 10 2.99 0 5.667-1.32 7.5-3.401-1.552-1.762-2.5-4.065-2.5-6.599s0.948-4.838 2.5-6.6z"/>
     <path d="m17.75 3.4c-1.552 1.762-2.5 4.067-2.5 6.6s0.948 4.837 2.5 6.599c1.552-1.762 2.5-4.065 2.5-6.599s-0.948-4.838-2.5-6.6z"/>
    </g>
    <path id="Shape" fill="#E9D419" d="m37.25 10c-2.99 0-5.667 1.32-7.5 3.4-0.433 0.492-0.812 1.03-1.144 1.6h2.288c0.364 0.625 0.647 1.299 0.871 2h-4.044c-0.203 0.643-0.35 1.309-0.419 2h4.879c0.034 0.33 0.068 0.66 0.068 1 0 0.338-0.02 0.671-0.053 1h-4.895c0.069 0.691 0.216 1.357 0.419 2h4.056c-0.223 0.704-0.522 1.372-0.886 2h-2.285c0.331 0.568 0.711 1.107 1.144 1.599 1.833 2.081 4.51 3.401 7.5 3.401 5.522 0 10-4.479 10-10 0.001-5.523-4.477-10-9.999-10z"/>
    <path id="Shape" fill="#7684B7" d="m54.75 1c2.206 0 4 1.794 4 4v30c0 2.206-1.794 4-4 4h-50c-2.206 0-4-1.794-4-4v-30c0-2.206 1.794-4 4-4h50zm0-1h-50c-2.75 0-5 2.25-5 5v30c0 2.75 2.25 5 5 5h50c2.75 0 5-2.25 5-5v-30c0-2.75-2.25-5-5-5z"/>
   </g>
   <g id="Group" sketch:type="MSShapeGroup" transform="translate(0 240)">
    <path id="Shape" fill="#F3F4F4" d="m59.75 35c0 2.75-2.25 5-5 5h-50c-2.75 0-5-2.25-5-5v-30c0-2.75 2.25-5 5-5h50c2.75 0 5 2.25 5 5v30z"/>
    <g id="Shape">
     <g transform="translate(9 10)">
      <path d="m7.75 20h-8v-15c0-2.762 3.238-5 6-5h6v15c0 2.762-1.238 5-4 5z" fill="#5565AF"/>
      <path d="m21.75 20h-8v-15c0-2.762 3.238-5 6-5h6v15c0 2.762-1.238 5-4 5z" fill="#EA564B"/>
      <path d="m35.75 20h-8v-15c0-2.762 3.238-5 6-5h6v15c0 2.762-1.238 5-4 5z" fill="#99CD76"/>
     </g>
     <path opacity=".08" d="m58.281 1.469c0.906 0.906 1.469 2.156 1.469 3.531v15 15c0 1.375-0.562 2.625-1.469 3.531s-2.156 1.469-3.531 1.469h-25-25c-1.375 0-2.625-0.562-3.531-1.469l57.062-37.062z" fill="#fff"/>
     <path d="m54.75 1c2.206 0 4 1.794 4 4v30c0 2.206-1.794 4-4 4h-50c-2.206 0-4-1.794-4-4v-30c0-2.206 1.794-4 4-4h50zm0-1h-50c-2.75 0-5 2.25-5 5v30c0 2.75 2.25 5 5 5h50c2.75 0 5-2.25 5-5v-30c0-2.75-2.25-5-5-5z" fill="#F8F8F9"/>
    </g>
   </g>
   <g id="Group" sketch:type="MSShapeGroup" transform="translate(0 180)">
    <path id="Shape" fill="#F3F4F4" d="m59.75 35c0 2.75-2.25 5-5 5h-50c-2.75 0-5-2.25-5-5v-30c0-2.75 2.25-5 5-5h50c2.75 0 5 2.25 5 5v30z"/>
    <g transform="translate(17 10)">
     <circle id="Oval" cy="10" cx="10" r="10" fill="#009FDA"/>
     <path id="Shape" fill="#009FDA" d="m8.75 0c5 0 9.999 4.478 9.999 10 0 5.521-4.999 10-9.999 10v-20z"/>
     <path id="Shape" fill="#009FDA" d="m8.75 20v-20h7.167c5 0 9.999 4.478 9.999 10 0 5.521-4.999 10-9.999 10h-7.167z"/>
     <circle id="Oval" cy="10.438" cx="9.438" r="9.438" fill="#F3F4F4"/>
     <path id="Shape" fill="#009FDA" d="m14.188 10c0-2.727-2.438-5.008-4.438-5.609v11.218c2-0.601 4.438-2.88 4.438-5.609z"/>
     <path id="Shape" fill="#009FDA" d="m2.312 10c0 2.727 2.438 5.008 4.438 5.609v-11.219c-2 0.602-4.438 2.882-4.438 5.61z"/>
    </g>
    <path id="Shape" opacity=".08" fill="#fff" d="m58.281 1.469c0.906 0.906 1.469 2.156 1.469 3.531v15 15c0 1.375-0.562 2.625-1.469 3.531s-2.156 1.469-3.531 1.469h-25-25c-1.375 0-2.625-0.562-3.531-1.469l57.062-37.062z"/>
    <path id="Shape" fill="#F8F8F9" d="m54.75 1c2.206 0 4 1.794 4 4v30c0 2.206-1.794 4-4 4h-50c-2.206 0-4-1.794-4-4v-30c0-2.206 1.794-4 4-4h50zm0-1h-50c-2.75 0-5 2.25-5 5v30c0 2.75 2.25 5 5 5h50c2.75 0 5-2.25 5-5v-30c0-2.75-2.25-5-5-5z"/>
   </g>
   <g id="Group" sketch:type="MSShapeGroup" transform="translate(0 300)">
    <path id="Shape" fill="#FFF9F0" d="m59.75 35c0 2.75-2.25 5-5 5h-50c-2.75 0-5-2.25-5-5v-30c0-2.75 2.25-5 5-5h50c2.75 0 5 2.25 5 5v30z"/>
    <g transform="translate(10 17)">
     <path id="Shape" fill="#414042" d="m4.885 2.943c0 1.002-0.285 1.769-0.854 2.302-0.571 0.532-1.395 0.799-2.472 0.799h-1.724v-6.085h1.91c0.994 0 1.765 0.263 2.313 0.787 0.552 0.524 0.827 1.257 0.827 2.197zm-1.34 0.034c0-1.307-0.578-1.96-1.73-1.96h-0.688v3.961h0.554c1.243 0.001 1.864-0.667 1.864-2.001z"/>
     <path id="Shape" fill="#414042" d="m5.976 6.044v-6.085h1.29v6.085h-1.29z"/>
     <path id="Shape" fill="#414042" d="m12.391 4.354c0 0.551-0.197 0.982-0.594 1.299-0.396 0.316-0.945 0.476-1.65 0.476-0.648 0-1.224-0.123-1.724-0.366v-1.199c0.411 0.185 0.759 0.312 1.043 0.389 0.284 0.074 0.545 0.111 0.781 0.111 0.282 0 0.5-0.055 0.651-0.162 0.148-0.107 0.227-0.27 0.227-0.482 0-0.119-0.033-0.225-0.101-0.318-0.065-0.094-0.164-0.184-0.294-0.269-0.129-0.085-0.392-0.224-0.788-0.412-0.371-0.175-0.649-0.344-0.837-0.504-0.187-0.16-0.334-0.347-0.445-0.562s-0.166-0.465-0.166-0.75c0-0.538 0.182-0.961 0.547-1.269 0.366-0.309 0.869-0.462 1.514-0.462 0.316 0 0.618 0.037 0.905 0.112 0.287 0.074 0.588 0.181 0.901 0.316l-0.416 1.003c-0.325-0.133-0.595-0.228-0.807-0.279-0.213-0.052-0.422-0.079-0.626-0.079-0.245 0-0.433 0.056-0.562 0.171-0.131 0.114-0.196 0.262-0.196 0.445 0 0.114 0.026 0.212 0.079 0.298 0.053 0.085 0.137 0.166 0.252 0.245s0.389 0.221 0.818 0.427c0.568 0.272 0.958 0.545 1.17 0.818 0.212 0.271 0.318 0.606 0.318 1.003z"/>
     <path id="Shape" fill="#414042" d="m16.078 0.945c-0.486 0-0.861 0.184-1.128 0.547-0.268 0.365-0.399 0.875-0.399 1.526 0 1.356 0.509 2.035 1.527 2.035 0.428 0 0.943-0.104 1.553-0.32v1.082c-0.5 0.209-1.058 0.312-1.674 0.312-0.885 0-1.562-0.27-2.031-0.807-0.469-0.536-0.703-1.307-0.703-2.312 0-0.633 0.116-1.187 0.347-1.662 0.229-0.478 0.561-0.841 0.992-1.095 0.433-0.254 0.938-0.381 1.518-0.381 0.591 0 1.186 0.143 1.781 0.429l-0.416 1.049c-0.229-0.108-0.456-0.202-0.688-0.283-0.231-0.081-0.457-0.12-0.679-0.12z"/>
     <path id="Shape" fill="#414042" d="m27.959-0.041h1.303l-2.067 6.085h-1.407l-2.064-6.085h1.304l1.145 3.621c0.063 0.215 0.131 0.462 0.198 0.748 0.066 0.285 0.109 0.48 0.127 0.592 0.03-0.255 0.134-0.699 0.312-1.34l1.149-3.621z"/>
     <path id="Shape" fill="#414042" d="m33.532 6.044h-3.505v-6.085h3.505v1.058h-2.215v1.336h2.062v1.057h-2.062v1.568h2.215v1.066z"/>
     <path id="Shape" fill="#414042" d="m36.092 3.709v2.335h-1.29v-6.085h1.773c0.827 0 1.438 0.15 1.836 0.452 0.396 0.301 0.595 0.757 0.595 1.371 0 0.357-0.099 0.677-0.295 0.955-0.197 0.279-0.476 0.498-0.836 0.656 0.915 1.366 1.511 2.251 1.789 2.65h-1.432l-1.453-2.335-0.687 0.001zm0-1.049h0.417c0.407 0 0.709-0.068 0.903-0.203 0.193-0.137 0.291-0.351 0.291-0.642 0-0.289-0.1-0.493-0.298-0.616s-0.505-0.183-0.921-0.183h-0.394l0.002 1.644z"/>
     <circle id="Oval" cy="3.043" cx="21.043" r="3.043" fill="#E6A124"/>
    </g>
    <path id="Shape" fill="#E6A124" d="m59.75 27.5v7.5c0 0.688-0.141 1.344-0.395 1.941-0.255 0.597-0.621 1.137-1.074 1.59s-0.992 0.819-1.59 1.074c-0.599 0.254-1.254 0.395-1.941 0.395h-22.457-22.457l49.914-12.5z"/>
    <path id="Shape" opacity=".08" fill="#fff" d="m58.281 1.469c0.906 0.906 1.469 2.156 1.469 3.531v15 15c0 1.375-0.562 2.625-1.469 3.531s-2.156 1.469-3.531 1.469h-25-25c-1.375 0-2.625-0.562-3.531-1.469l57.062-37.062z"/>
    <path id="Shape" fill="#F7F5F2" d="m54.75 1c2.206 0 4 1.794 4 4v30c0 2.206-1.794 4-4 4h-50c-2.206 0-4-1.794-4-4v-30c0-2.206 1.794-4 4-4h50zm0-1h-50c-2.75 0-5 2.25-5 5v30c0 2.75 2.25 5 5 5h50c2.75 0 5-2.25 5-5v-30c0-2.75-2.25-5-5-5z"/>
   </g>
   <g id="Group" sketch:type="MSShapeGroup">
    <path id="Shape" fill="#F3F4F4" d="m59.75 35c0 2.75-2.25 5-5 5h-50c-2.75 0-5-2.25-5-5v-30c0-2.75 2.25-5 5-5h50c2.75 0 5 2.25 5 5v30z"/>
    <path id="Shape" fill="#5565AF" d="m0.75 10v-5c0-2.75 2.25-5 5-5h48c2.75 0 5 2.25 5 5v5"/>
    <path id="Shape" fill="#E6A124" d="m58.75 30v5c0 2.75-2.25 4-5 4h-48c-2.75 0-5-1.25-5-4v-5"/>
    <g id="Shape" fill="#5565AF" transform="translate(14 14)">
     <path d="m3.137 9.379c0.406-1.15 0.691-1.887 0.859-2.211l3.375-6.875h2.469l-5.844 11.422h-2.609l-0.992-11.422h2.305l0.398 6.875c0.02 0.234 0.031 0.582 0.031 1.039-0.012 0.537-0.027 0.928-0.047 1.172h0.055z"/>
     <path d="m8.809 11.715l2.438-11.422h2.383l-2.438 11.422h-2.383z"/>
     <path d="m20.934 8.34c0 1.09-0.387 1.949-1.156 2.582-0.771 0.633-1.816 0.949-3.133 0.949-1.152 0-2.078-0.234-2.781-0.703v-2.141c1.004 0.562 1.938 0.844 2.797 0.844 0.582 0 1.039-0.109 1.367-0.332 0.328-0.221 0.492-0.523 0.492-0.91 0-0.223-0.035-0.42-0.105-0.59-0.07-0.168-0.172-0.326-0.301-0.473-0.131-0.146-0.453-0.41-0.969-0.797-0.719-0.517-1.225-1.025-1.516-1.532-0.293-0.505-0.438-1.049-0.438-1.633 0-0.672 0.16-1.271 0.484-1.801 0.322-0.528 0.781-0.939 1.379-1.234 0.596-0.294 1.281-0.441 2.059-0.441 1.129 0 2.164 0.258 3.102 0.773l-0.852 1.82c-0.812-0.385-1.562-0.578-2.25-0.578-0.434 0-0.787 0.117-1.062 0.352-0.277 0.234-0.414 0.545-0.414 0.93 0 0.318 0.086 0.596 0.258 0.832 0.172 0.237 0.557 0.551 1.156 0.941 0.629 0.417 1.102 0.877 1.414 1.379 0.312 0.505 0.469 1.091 0.469 1.763z"/>
     <path d="m28.598 8.996h-3.695l-1.344 2.719h-2.5l5.984-11.469h2.914l1.148 11.469h-2.32l-0.187-2.719zm-0.118-2.031l-0.203-2.734c-0.053-0.682-0.078-1.341-0.078-1.977v-0.281c-0.23 0.625-0.514 1.287-0.852 1.984l-1.469 3.008h2.602z"/>
    </g>
    <path id="Shape" opacity=".04" fill="#fff" d="m58.281 1.469c0.906 0.906 1.469 2.156 1.469 3.531v15 15c0 1.375-0.562 2.625-1.469 3.531s-2.156 1.469-3.531 1.469h-25-25c-1.375 0-2.625-0.562-3.531-1.469l57.062-37.062z"/>
    <path id="Shape" fill="#F8F8F9" d="m54.75 1c2.206 0 4 1.794 4 4v30c0 2.206-1.794 4-4 4h-50c-2.206 0-4-1.794-4-4v-30c0-2.206 1.794-4 4-4h50zm0-1h-50c-2.75 0-5 2.25-5 5v30c0 2.75 2.25 5 5 5h50c2.75 0 5-2.25 5-5v-30c0-2.75-2.25-5-5-5z"/>
   </g>
   <g id="Group" sketch:type="MSShapeGroup" transform="translate(0 360)">
    <path id="Shape" fill="#CDCDCD" d="m59.75 35.209c0 2.75-2.25 5-5 5h-50c-2.75 0-5-2.25-5-5v-30c0-2.75 2.25-5 5-5h50c2.75 0 5 2.25 5 5v30z"/>
    <rect id="Rectangle" height="8" width="55" y="7" x="2" fill="#424143"/>
    <rect id="Rectangle" height="8" width="36" y="19" x="8" fill="#fff"/>
    <rect id="Rectangle" height="2" width="29" y="22" x="11" fill="#424143"/>
    <path id="Shape" fill="#DFDEDD" d="m54.75 1.209c2.206 0 4 1.794 4 4v30c0 2.206-1.794 4-4 4h-50c-2.206 0-4-1.794-4-4v-30c0-2.206 1.794-4 4-4h50zm0-1h-50c-2.75 0-5 2.25-5 5v30c0 2.75 2.25 5 5 5h50c2.75 0 5-2.25 5-5v-30c0-2.75-2.25-5-5-5z"/>
    <rect id="Rectangle" height="8" width="8" y="19" x="47" fill="#fff"/>
    <rect id="Rectangle" height="2" width="6" y="22" x="48" fill="#424143"/>
    <circle id="Oval" stroke-width="2" cy="22.75" stroke="#E9564B" cx="49.75" r="7.75"/>
   </g>
  </g>
 </g>
</svg>
