<?xml version="1.0" encoding="utf-8"?><!DOCTYPE svg PUBLIC "-//W3C//DTD SVG 1.1//EN" "http://www.w3.org/Graphics/SVG/1.1/DTD/svg11.dtd"><svg width="28" height="112" viewBox="0 0 28 112" xmlns="http://www.w3.org/2000/svg" xmlns:xlink="http://www.w3.org/1999/xlink"><svg width="21.84" height="28" viewBox="0 0 78 100" id="history"><path fill="#fff" d="M68.976 7.23L59.42 0l-9.716 7.23L40.448 0l-10.04 7.23L20.15 0l-9.66 7.23L0 0v92.437l10.68 7.23 9.118-7.23 10.984 7.23 9.642-7.23 9.64 7.23 8.696-7.23 9.52 7.23 9.72-7.23V0l-9.024 7.23zM35 79H11v-4h24v4zm0-14H11v-4h24v4zm0-13H11v-4h24v4zm29.622 21.68c-.518 1.16-1.222 2.122-2.115 2.888-.894.768-1.94 1.356-3.14 1.76-1.2.405-2.5.634-3.896.69v3.268h-1.8V79.02c-1.51-.03-2.89-.267-4.145-.714-1.258-.446-2.334-1.08-3.226-1.904-.896-.823-1.587-1.836-2.075-3.037-.487-1.2-.718-2.582-.69-4.145h4.775c-.028 1.843.376 3.295 1.215 4.354.837 1.062 2.218 1.62 4.145 1.677V65.115c-1.145-.307-2.28-.677-3.413-1.11-1.13-.432-2.15-.99-3.057-1.674-.908-.683-1.642-1.543-2.198-2.575-.56-1.033-.84-2.317-.84-3.854 0-1.34.26-2.52.775-3.537.518-1.02 1.216-1.87 2.095-2.556.88-.684 1.892-1.207 3.037-1.57 1.144-.363 2.344-.544 3.6-.544v-3.267h1.8v3.267c1.258 0 2.444.167 3.56.502 1.117.335 2.087.838 2.912 1.507.823.67 1.48 1.523 1.968 2.555.487 1.033.73 2.233.73 3.603h-4.77c-.058-1.425-.427-2.514-1.11-3.27-.684-.75-1.78-1.13-3.288-1.13v8.837c1.257.336 2.484.727 3.687 1.174 1.197.447 2.26 1.02 3.18 1.716.922.7 1.662 1.566 2.222 2.6.558 1.03.837 2.302.837 3.81-.003 1.565-.263 2.925-.778 4.083zM67 38H11v-4h56v4zm0-14H11v-4h56v4zM48.938 55.565c0 .67.14 1.243.42 1.718.278.476.634.88 1.067 1.214.433.335.934.608 1.508.816.57.21 1.15.385 1.737.524V51.46c-1.51 0-2.673.314-3.497.943-.824.63-1.235 1.683-1.235 3.162zm10.074 11.392c-.49-.363-1.04-.654-1.655-.88-.614-.224-1.243-.418-1.885-.584v9.757c1.507-.11 2.743-.553 3.707-1.32.96-.768 1.44-1.99 1.44-3.664 0-.78-.145-1.437-.438-1.97-.29-.53-.683-.976-1.17-1.34z"/></svg><svg width="28" height="28" viewBox="0 0 32 32" id="pay-methods" y="28"><path d="M0 7.502C0 6.12 1.12 5 2.498 5h27.004C30.882 5 32 6.12 32 7.502v16.996C32 25.88 30.88 27 29.502 27H2.498C1.118 27 0 25.88 0 24.498V7.502zM0 10h32v3H0v-3z" fill="#fff" fill-rule="evenodd"/></svg><svg viewBox="0 0 1000 1000" width="28" height="28" id="profile" y="56"><path fill="#C3CFD8" d="M500-.3c276.1 0 500 223.9 500 500s-223.9 500-500 500S0 775.8 0 499.7C0 223.5 223.9-.3 500-.3z"/><circle fill="#FFF" cx="500" cy="317" r="139.1"/><path fill="#FFF" d="M751.8 643.6c.1-2.3.2-4.6.2-6.9 0-68-55.3-127-136.2-156.3l-109.9 110c-.4 29.8-1.4 58.8-2.8 86.6-1 .1-2 .3-3.1.3s-2-.2-3.1-.3c-1.4-27.9-2.4-56.9-2.8-86.7L384.3 480.4c-81 29.3-136.3 88.3-136.3 156.3 0 2.3.1 4.6.2 6.9l7.4 49.7c57.1 72 145.4 118.2 244.4 118.2s187.3-46.2 244.4-118.2l7.4-49.7z"/></svg><svg width="24.29" height="28" viewBox="0 0 72 83" id="subs" y="84"><path fill="#fff" d="M33.35 60.35c-2.807-6.308-1.503-13.505 3.323-18.334 4.828-4.826 12.03-6.13 18.34-3.323.06.026.122.037.182.06l-3.092 2.426c-1.29 1.01-1.516 2.877-.503 4.168.586.746 1.457 1.137 2.338 1.137.642 0 1.287-.207 1.83-.634l7.838-6.147c.888-.696 1.304-1.836 1.074-2.942l-2.04-9.783c-.333-1.604-1.903-2.635-3.512-2.3-1.605.333-2.636 1.906-2.302 3.512l.942 4.52c-.026-.014-.048-.032-.074-.043-8.826-3.927-18.906-2.09-25.686 4.685-6.773 6.778-8.61 16.858-4.683 25.68.546 1.23 1.75 1.958 3.015 1.958.448 0 .904-.092 1.34-.286 1.664-.74 2.412-2.69 1.67-4.355zm36.004-16.023c-.74-1.665-2.69-2.414-4.353-1.675-1.664.74-2.414 2.688-1.674 4.353 2.805 6.313 1.5 13.51-3.325 18.335-4.728 4.73-11.728 6.07-17.944 3.482l3.086-2.42c1.29-1.012 1.516-2.878.503-4.17-1.012-1.29-2.88-1.515-4.17-.502l-7.838 6.15c-.888.695-1.305 1.835-1.074 2.94l2.038 9.784c.293 1.4 1.528 2.364 2.905 2.364.2 0 .404-.02.608-.062 1.605-.335 2.636-1.907 2.302-3.513l-.938-4.5c2.934 1.23 5.994 1.838 9.02 1.838 5.952 0 11.76-2.318 16.17-6.728 6.77-6.768 8.61-16.847 4.687-25.675zM53.15 20H58V9.43C58 7.54 56.45 6 54.56 6H47V3.134C47 1.412 45.727 0 44 0h-2c-2.033 0-3 1.413-3 3.134V6H19V3.134C19 1.412 18 0 16 0h-1.774C12.504 0 11.09 1.413 11 3.134V6H3.44C1.48 6-.067 7.54 0 9.43v51.178c0 1.89 1.48 3.437 3.367 3.437H20V58H5V20h48.15z"/></svg></svg>