<?xml version="1.0" standalone="no"?> <!DOCTYPE svg PUBLIC "-//W3C//DTD SVG 1.0//EN" "http://www.w3.org/TR/2001/REC-SVG-20010904/DTD/svg10.dtd" > <svg xmlns="http://www.w3.org/2000/svg" width="100%" height="100%">
<defs >
<font id="clearsans-mediumitalic" horiz-adv-x="1181" ><font-face
    font-family="Clear Sans Medium"
    units-per-em="2048"
    panose-1="2 11 6 3 3 2 2 9 3 4"
    ascent="2206"
    descent="-563"
    alphabetic="0" />
<missing-glyph horiz-adv-x="1024" d="M57 1362H1030V0H57V1362ZM545 768L874 1266H213L545 768ZM156 186L485 682L156 1178V186ZM602 682L934 184V1178L602 682ZM545 594L213 98H874L545 594Z" />
<glyph unicode=" " glyph-name="space" horiz-adv-x="543" />
<glyph unicode="!" glyph-name="exclam" horiz-adv-x="557" d="M346 420H170L344 1384H578L346 420ZM338 166Q338 137 330 107T311 57Q290 19 254 3T162 -14Q99 -14 72 6T45 68Q45 92 51 116T68 166Q86 212 121 232T219 252Q281 252 309 232T338 166Z" />
<glyph unicode="&quot;" glyph-name="quotedbl" horiz-adv-x="930" d="M793 803H641L721 1384H958L793 803ZM403 803H252L332 1384H569L403 803Z" />
<glyph unicode="#" glyph-name="numbersign" horiz-adv-x="1325" d="M1022 844L948 539H1196L1159 387H909L811 0H662L758 387H500L403 0H252L350 387H104L141 539H387L465 844H213L250 997H502L600 1384H750L651 997H911L1010 1384H1159L1061 997H1305L1268 844H1022ZM614
844L537 539H797L874 844H614Z" />
<glyph unicode="$" glyph-name="dollar" horiz-adv-x="1247" d="M850 1298Q971 1278 1049 1219T1167 1077L995 967Q966 1022 920 1060T811 1114L739 786Q823 758 882 725T978 652T1033 564T1051 457Q1051 370 1019 302T926 184T780 106T588 70L547 -133H403L446
72Q377 79 321 98T223 148T151 216T106 299L289 412Q309 356 354 313T483 256L563 629Q476 658 419 690T327 761T278 846T264 950Q264 1011 287 1072T362 1183T499 1266T707 1305L729 1411H874L850 1298ZM838 426Q838 453 832 475T810 516T767 551T696 584L627
254Q726 263 782 306T838 426ZM477 971Q477 946 481 927T500 890T539 859T606 829L668 1120Q615 1115 579 1101T520 1067T487 1022T477 971Z" />
<glyph unicode="%" glyph-name="percent" horiz-adv-x="2083" d="M436 -55L1499 1434H1698L633 -55H436ZM479 514Q395 514 336 535T240 595T187 687T170 805Q170 835 174 873T186 953T206 1039T236 1126Q289 1262 385 1332T633 1403Q717 1403 776 1383T874 1324T930
1230T948 1104Q948 1059 939 1004T915 894T881 789T840 702Q777 599 688 557T479 514ZM496 670Q558 670 599 699T672 791Q703 856 723 940T743 1108Q743 1180 714 1212T618 1245Q555 1245 511 1210T436 1098Q408 1032 392 954T375 805Q375 736 404 703T496 670ZM1503
-31Q1418 -31 1359 -10T1262 50T1209 142T1192 260Q1192 290 1196 328T1208 408T1228 494T1257 582Q1311 717 1407 787T1655 858Q1739 858 1799 838T1898 779T1954 685T1972 559Q1972 514 1963 459T1939 349T1903 244T1862 158Q1831 106 1794 70T1711 12T1614 -21T1503
-31ZM1520 125Q1582 125 1623 154T1696 246Q1727 311 1746 395T1765 563Q1765 635 1737 667T1642 700Q1579 700 1534 665T1458 553Q1445 520 1434 484T1416 409T1404 333T1399 260Q1399 191 1428 158T1520 125Z" />
<glyph unicode="&amp;" glyph-name="ampersand" horiz-adv-x="1294" d="M68 307Q68 384 94 448T171 570T292 679T453 784Q427 830 411 866T384 936T369 1004T365 1079Q365 1142 389 1201T461 1307T581 1382T748 1411Q911 1411 991 1343T1071 1155Q1071 1099 1053
1049T993 948T885 846T721 735L905 406Q949 461 988 526T1065 668L1235 596Q1189 493 1131 400T1004 231L1135 0H897L842 94Q755 35 659 3T449 -29Q258 -29 163 58T68 307ZM461 154Q539 154 612 178T750 252L541 631Q466 585 416 546T336 471T294 399T281 322Q281
243 329 199T461 154ZM569 1077Q569 1042 580 1006T614 928L633 891Q700 932 745 965T816 1026T853 1082T864 1141Q864 1193 834 1219T735 1245Q694 1245 663 1231T611 1194T580 1141T569 1077Z" />
<glyph unicode="&apos;" glyph-name="quotesingle" horiz-adv-x="543" d="M403 803H252L332 1384H569L403 803Z" />
<glyph unicode="(" glyph-name="parenleft" horiz-adv-x="809" d="M319 -395Q264 -313 224 -233T157 -67T117 111T104 311Q104 476 148 641T273 962T468 1259T723 1520H961Q819 1404 699 1264T492 969T356 647T307 313Q307 103 372 -72T551 -395H319Z" />
<glyph unicode=")" glyph-name="parenright" horiz-adv-x="809" d="M506 1520Q561 1437 601 1357T668 1192T708 1014T721 813Q721 649 677 484T552 163T357 -135T102 -395H-135Q7 -279 127 -140T334 155T469 477T518 811Q518 916 501 1012T453 1197T376 1365T274
1520H506Z" />
<glyph unicode="*" glyph-name="asterisk" horiz-adv-x="911" d="M850 866L621 1032L569 764H428L494 1030L227 879L170 1008L463 1147L221 1294L311 1413L539 1255L588 1520H729L666 1255L928 1401L991 1276L692 1135L940 985L850 866Z" />
<glyph unicode="+" glyph-name="plus" horiz-adv-x="1427" d="M821 496V18H647V496H168V670H647V1149H821V670H1298V496H821Z" />
<glyph unicode="," glyph-name="comma" horiz-adv-x="557" d="M-14 -293Q16 -259 42 -219T88 -139T122 -67T141 -12Q92 -10 70 9T47 70Q47 94 52 117T68 166Q85 209 118 233T217 258Q280 258 308 232T336 156Q336 130 330 100T314 39T292 -23T266 -82Q234 -148
196 -203T123 -293H-14Z" />
<glyph unicode="-" glyph-name="hyphen" horiz-adv-x="791" d="M68 420L113 633H723L678 420H68Z" />
<glyph unicode="." glyph-name="period" horiz-adv-x="557" d="M338 170Q338 144 333 116T311 59Q290 19 254 3T162 -14Q99 -14 73 7T47 70Q47 94 53 121T70 174Q88 217 123 237T219 258Q282 258 310 237T338 170Z" />
<glyph unicode="/" glyph-name="slash" horiz-adv-x="993" d="M37 -299H-174L889 1520H1104L37 -299Z" />
<glyph unicode="0" glyph-name="zero" horiz-adv-x="1247" d="M1208 958Q1208 898 1199 824T1173 671T1131 513T1077 362Q1029 249 971 174T843 53T692 -12T516 -31Q304 -31 205 80T106 418Q106 475 114 542T137 681T173 824T219 963Q263 1080 319 1164T446 1302T605
1383T801 1409Q1208 1409 1208 958ZM866 459Q886 510 904 571T937 697T959 828T967 954Q967 1024 955 1072T918 1151T855 1194T766 1208Q704 1208 656 1189T569 1132T499 1036T440 903Q422 852 405 792T376 667T356 538T348 412Q348 280 394 225T535 170Q590 170
637 185T724 234T800 323T866 459Z" />
<glyph unicode="1" glyph-name="one" horiz-adv-x="1247" d="M477 0L680 958H350L385 1118Q483 1124 552 1139T670 1184T756 1263T827 1384H997L705 0H477Z" />
<glyph unicode="2" glyph-name="two" horiz-adv-x="1171" d="M10 0L55 215Q139 276 232 346T415 487T584 625T719 748Q752 782 783 818T838 893T876 972T891 1055Q891 1126 851 1166T719 1206Q622 1206 549 1162T414 1044L258 1186Q303 1239 353 1281T462 1352T592
1397T748 1413Q841 1413 913 1393T1035 1330T1111 1224T1137 1071Q1137 1014 1119 956T1068 842T991 734T895 633Q844 585 787 538T664 441T521 334T352 213H995L950 0H10Z" />
<glyph unicode="3" glyph-name="three" horiz-adv-x="1171" d="M455 829H549Q613 829 671 845T773 892T843 964T870 1059Q870 1130 826 1168T692 1206Q599 1206 527 1171T397 1067L242 1202Q282 1250 330 1288T436 1355T565 1398T719 1413Q819 1413 893 1391T1016
1327T1088 1225T1112 1090Q1112 1031 1092 977T1029 877T922 794T766 735Q817 727 861 704T939 645T991 558T1010 446Q1010 348 974 262T865 111T682 9T422 -29Q339 -29 271 -14T152 30T64 97T10 184L211 311Q223 283 244 259T294 216T362 188T446 178Q534 178
594 202T692 264T747 349T764 442Q764 541 703 585T522 629H412L455 829Z" />
<glyph unicode="4" glyph-name="four" horiz-adv-x="1247" d="M918 268L862 0H641L696 268H6L53 487L930 1384H1155L961 469H1137L1094 268H918ZM866 1057L285 469H739L866 1057Z" />
<glyph unicode="5" glyph-name="five" horiz-adv-x="1171" d="M1049 535Q1049 404 1002 301T877 123Q798 48 683 10T422 -29Q339 -29 273 -14T155 30T67 98T8 186L209 313Q231 255 291 217T446 178Q528 178 598 201T713 270Q734 291 751 319T780 378T798 441T805
502Q805 596 755 645T590 694Q508 694 438 674T319 621H180L418 1384H1169L1124 1171H559L455 852Q501 871 558 883T682 895Q766 895 834 874T950 809T1023 696T1049 535Z" />
<glyph unicode="6" glyph-name="six" horiz-adv-x="1171" d="M514 -29Q305 -29 206 77T106 389Q106 505 132 628T201 874Q289 1143 439 1278T819 1413Q884 1413 937 1405T1034 1379T1114 1337T1182 1278L1024 1110Q981 1161 932 1186T807 1212Q731 1212 671 1182T564
1097T482 966T418 799Q564 899 721 899Q900 899 989 812T1079 553Q1079 481 1064 410T1018 274T940 154T831 58T689 -6T514 -29ZM537 172Q610 172 667 201T763 279T822 390T842 520Q842 604 794 651T655 698Q613 698 573 691T496 672T429 646T375 616Q362 559 353
503T344 395Q344 283 388 228T537 172Z" />
<glyph unicode="7" glyph-name="seven" horiz-adv-x="1247" d="M498 0H225L977 1171H260L305 1384H1288L1251 1212L498 0Z" />
<glyph unicode="8" glyph-name="eight" horiz-adv-x="1171" d="M831 733Q883 705 924 675T993 607T1037 522T1053 412Q1053 319 1014 239T901 99T723 5T487 -29Q269 -29 159 50T49 305Q49 372 74 434T146 552T261 654T416 737Q371 761 337 788T279 849T243 924T231
1016Q231 1096 263 1168T359 1294T522 1381T754 1413Q1167 1413 1167 1094Q1167 983 1084 895T831 733ZM649 823Q691 839 741 861T835 914T907 985T936 1079Q936 1154 887 1191T729 1229Q661 1229 611 1213T527 1169T478 1105T461 1030Q461 1004 468 980T497 930T554
879T649 823ZM612 645Q535 614 474 582T371 510T306 424T283 315Q283 243 337 201T508 158Q570 158 626 174T725 221T793 299T819 408Q819 448 804 481T762 542T697 596T612 645Z" />
<glyph unicode="9" glyph-name="nine" horiz-adv-x="1171" d="M731 1413Q940 1413 1039 1307T1139 995Q1139 878 1112 755T1044 510Q955 241 805 106T426 -29Q361 -29 308 -21T211 5T131 47T63 106L221 272Q264 223 313 198T438 172Q514 172 574 202T681 287T764
418T827 586Q753 533 678 508T524 483Q345 483 256 570T166 831Q166 939 200 1043T305 1229T481 1362T731 1413ZM709 1212Q635 1212 578 1183T482 1105T423 993T403 862Q403 781 451 733T590 684Q632 684 672 691T749 711T816 737T870 766Q883 825 892 881T901
987Q901 1102 857 1157T709 1212Z" />
<glyph unicode=":" glyph-name="colon" horiz-adv-x="557" d="M338 170Q338 144 333 116T311 59Q290 19 254 3T162 -14Q99 -14 73 7T47 70Q47 94 53 121T70 174Q88 217 123 237T219 258Q282 258 310 237T338 170ZM506 961Q506 935 501 907T479 850Q458 810 422
793T330 776Q267 776 241 798T215 860Q215 885 221 912T238 965Q256 1008 291 1028T387 1049Q450 1049 478 1028T506 961Z" />
<glyph unicode=";" glyph-name="semicolon" horiz-adv-x="557" d="M506 961Q506 935 501 907T479 850Q458 810 422 793T330 776Q267 776 241 798T215 860Q215 885 221 912T238 965Q256 1008 291 1028T387 1049Q450 1049 478 1028T506 961ZM-14 -293Q16 -259 42
-219T88 -139T122 -67T141 -12Q92 -10 70 9T47 70Q47 94 52 117T68 166Q85 209 118 233T217 258Q280 258 308 232T336 156Q336 130 330 100T314 39T292 -23T266 -82Q234 -148 196 -203T123 -293H-14Z" />
<glyph unicode="&lt;" glyph-name="less" horiz-adv-x="1427" d="M168 502V666L1298 1137V946L416 584L1298 223V33L168 502Z" />
<glyph unicode="=" glyph-name="equal" horiz-adv-x="1427" d="M176 735V909H1307V735H176ZM176 258V432H1307V258H176Z" />
<glyph unicode="&gt;" glyph-name="greater" horiz-adv-x="1427" d="M172 33V223L1055 584L172 946V1137L1305 666V502L172 33Z" />
<glyph unicode="?" glyph-name="question" horiz-adv-x="1038" d="M309 393L371 676Q488 729 573 774T714 864T796 960T823 1073Q823 1141 778 1175T635 1210Q540 1210 474 1170T356 1063L190 1188Q270 1297 381 1355T649 1413Q851 1413 960 1336T1069 1100Q1069
1012 1034 939T934 803T776 683T565 571L526 393H309ZM510 166Q510 137 502 107T483 57Q462 19 426 3T334 -14Q269 -14 243 6T217 68Q217 92 222 116T238 166Q256 212 291 232T389 252Q452 252 481 232T510 166Z" />
<glyph unicode="@" glyph-name="at" horiz-adv-x="1903" d="M1823 721Q1823 631 1807 544T1759 379T1681 234T1576 119T1446 44T1294 16Q1192 16 1141 58T1081 176Q1001 114 927 79T770 43Q689 43 633 69T543 141T493 250T477 389Q477 420 483 462T500 551T528
645T567 735Q603 802 648 855T748 945T871 1002T1018 1022Q1084 1022 1137 1000T1233 946L1241 993H1432L1280 283Q1274 251 1274 231Q1276 199 1293 189T1341 178Q1382 178 1420 198T1492 255T1554 342T1603 453T1635 582T1647 721Q1647 848 1614 946T1510 1112T1332
1215T1073 1251Q947 1251 838 1218T639 1124T479 980T360 798T287 589T262 362Q262 242 299 147T408 -13T582 -112T815 -147Q876 -147 931 -145T1040 -138T1147 -124T1255 -102V-264Q1143 -290 1021 -299T778 -309Q620 -309 492 -266T274 -138T135 73T86 365Q86
494 115 622T203 866T346 1082T541 1256T788 1371T1083 1413Q1255 1413 1392 1371T1625 1243T1772 1027T1823 721ZM1194 774Q1146 811 1099 829T1001 848Q914 848 851 807T741 670Q725 635 713 599T692 527T679 459T674 401Q674 354 680 321T702 265T743 233T805
223Q849 223 888 232T963 259T1034 299T1104 350L1194 774Z" />
<glyph unicode="A" glyph-name="A" horiz-adv-x="1286" d="M-66 0L678 1384H977L1143 0H911L874 319H346L172 0H-66ZM453 528H852L782 1151L453 528Z" />
<glyph unicode="B" glyph-name="B" horiz-adv-x="1260" d="M897 750Q954 742 1002 720T1085 662T1139 576T1159 463Q1159 368 1125 284T1021 136T843 37T590 0H51L344 1384H768Q892 1384 976 1367T1111 1314T1184 1226T1206 1100Q1206 1039 1188 985T1132 885T1036
805T897 750ZM639 825Q706 825 764 837T865 877T933 946T958 1049Q958 1124 904 1152T737 1180H530L455 825H639ZM547 209Q615 209 680 218T796 255T878 330T909 457Q909 508 892 540T838 590T748 614T621 621H412L324 209H547Z" />
<glyph unicode="C" glyph-name="C" horiz-adv-x="1282" d="M1159 231Q1111 174 1055 127T931 45T780 -9T594 -29Q345 -29 224 98T102 477Q102 532 109 597T130 731T166 870T221 1008Q261 1091 318 1164T452 1293T625 1381T840 1413Q938 1413 1014 1394T1149 1341T1248
1256T1319 1145L1116 1024Q1095 1072 1069 1106T1007 1162T926 1195T821 1206Q753 1206 696 1186T591 1129T507 1042T444 932Q419 874 400 815T369 697T350 584T344 479Q344 401 363 344T415 250T496 196T600 178Q666 178 721 190T823 227T913 289T997 375L1159
231Z" />
<glyph unicode="D" glyph-name="D" horiz-adv-x="1276" d="M1243 924Q1243 872 1237 809T1219 678T1186 540T1137 403T1071 278T985 174Q934 126 872 93T740 39T591 9T428 0H39L332 1384H700Q835 1384 936 1361T1106 1285T1208 1143T1243 924ZM440 213Q505 213
560 218T663 236T748 270T817 322Q859 364 893 434T951 585T988 752T1001 909Q1001 984 983 1034T925 1114T821 1158T664 1171H516L313 213H440Z" />
<glyph unicode="E" glyph-name="E" horiz-adv-x="1128" d="M51 0L344 1384H1200L1155 1176H528L455 825H987L944 616H412L324 213H950L907 0H51Z" />
<glyph unicode="F" glyph-name="F" horiz-adv-x="1083" d="M528 1171L453 819H975L932 610H410L281 0H51L344 1384H1192L1147 1171H528Z" />
<glyph unicode="G" glyph-name="G" horiz-adv-x="1374" d="M1147 1024Q1105 1120 1033 1163T858 1206Q771 1206 706 1181T590 1110T503 1004T436 870Q414 816 399 761T373 655T359 557T354 473Q354 395 369 339T420 247T513 195T653 178Q728 178 797 197T938 250L995
514H698L741 723H1268L1141 119Q1023 51 900 11T633 -29Q502 -29 405 -1T243 87T146 241T113 467Q113 573 136 695T211 936Q253 1032 310 1118T446 1270T631 1374T874 1413Q1055 1413 1171 1348T1356 1151L1147 1024Z" />
<glyph unicode="H" glyph-name="H" horiz-adv-x="1358" d="M856 0L985 610H410L281 0H51L344 1384H573L455 823H1030L1149 1384H1378L1085 0H856Z" />
<glyph unicode="I" glyph-name="I" horiz-adv-x="803" d="M592 0H-10L29 188H215L430 1196H244L283 1384H885L846 1196H659L444 188H631L592 0Z" />
<glyph unicode="J" glyph-name="J" horiz-adv-x="885" d="M688 377Q666 269 629 192T536 66T400 -7T215 -31Q141 -31 72 -17T-49 20L41 221Q75 201 124 189T225 176Q283 176 323 190T392 236T440 322T477 453L674 1384H901L688 377Z" />
<glyph unicode="K" glyph-name="K" horiz-adv-x="1247" d="M823 0L526 608L381 473L281 0H51L344 1384H573L451 805L1059 1384H1352L696 762L1096 0H823Z" />
<glyph unicode="L" glyph-name="L" horiz-adv-x="1018" d="M51 0L344 1384H573L324 213H915L872 0H51Z" />
<glyph unicode="M" glyph-name="M" horiz-adv-x="1597" d="M1104 0L1325 1038L831 365H694L492 1038L272 0H51L344 1384H614L821 678L1331 1384H1616L1323 0H1104Z" />
<glyph unicode="N" glyph-name="N" horiz-adv-x="1370" d="M840 0L504 1087L274 0H51L344 1384H641L952 373L1167 1384H1391L1098 0H840Z" />
<glyph unicode="O" glyph-name="O" horiz-adv-x="1337" d="M588 -29Q453 -29 360 7T210 109T127 265T102 465Q102 519 107 580T125 704T157 831T203 958Q243 1054 297 1137T427 1281T599 1378T825 1413Q939 1413 1028 1381T1179 1286T1273 1129T1305 909Q1305
873 1302 829T1290 734T1270 630T1239 520Q1201 399 1145 298T1010 125T827 12T588 -29ZM342 475Q342 394 356 337T402 245T482 194T598 178Q749 178 847 277T1006 565Q1035 655 1049 745T1063 903Q1063 1060 1002 1133T805 1206Q734 1206 678 1185T576 1124T494
1025T426 893Q405 840 389 785T363 675T347 569T342 475Z" />
<glyph unicode="P" glyph-name="P" horiz-adv-x="1186" d="M1202 1053Q1202 979 1190 906T1152 765T1082 641T976 541T829 474T637 449H375L281 0H51L344 1384H803Q898 1384 972 1367T1098 1310T1175 1208T1202 1053ZM633 655Q731 655 794 686T893 768T944 886T958
1022Q958 1062 948 1091T913 1139T850 1168T754 1178H530L420 655H633Z" />
<glyph unicode="Q" glyph-name="Q" horiz-adv-x="1337" d="M809 -338Q710 -338 641 -316T529 -253T464 -151T440 -14Q347 4 283 46T179 150T120 292T102 465Q102 519 107 580T125 704T157 831T203 958Q242 1052 297 1134T427 1279T600 1377T825 1413Q939 1413
1028 1381T1179 1286T1273 1129T1305 909Q1305 873 1302 829T1290 734T1270 630T1239 520Q1208 422 1162 332T1049 169T894 48T692 -18Q695 -50 704 -73T732 -111T781 -133T858 -141Q877 -141 901 -139T950 -134T999 -125T1044 -115L1063 -303Q1035 -312 1001 -319T933
-330T866 -336T809 -338ZM342 475Q342 394 356 337T402 245T482 194T598 178Q676 178 739 205T852 284T941 407T1008 567Q1037 657 1050 744T1063 903Q1063 1060 1002 1133T805 1206Q733 1206 675 1183T571 1119T488 1020T424 893Q403 840 388 785T362 675T347
569T342 475Z" />
<glyph unicode="R" glyph-name="R" horiz-adv-x="1235" d="M821 0L596 545H395L281 0H51L344 1384H791Q900 1384 980 1368T1114 1314T1194 1212T1221 1053Q1221 1013 1212 964T1183 865T1136 767T1069 682Q1020 634 957 607T831 567L1079 0H821ZM653 750Q743 750
801 765T897 817Q917 837 932 863T957 920T972 980T977 1038Q977 1118 927 1149T766 1180H530L438 750H653Z" />
<glyph unicode="S" glyph-name="S" horiz-adv-x="1202" d="M225 365Q241 326 264 292T323 233T410 193T535 178Q598 178 654 192T752 233T819 297T844 379Q844 419 837 449T803 505T726 555T586 608Q479 641 405 675T286 751T220 850T199 983Q199 1062 232 1139T332
1277T502 1375T743 1413Q917 1413 1029 1349T1210 1161L1006 1032Q970 1112 900 1159T713 1206Q646 1206 596 1190T511 1147T460 1084T442 1008Q442 973 452 948T491 901T570 859T700 813Q810 778 884 740T1005 654T1070 547T1090 412Q1090 305 1046 223T924 85T742
0T518 -29Q407 -29 323 -9T178 46T77 132T14 242L225 365Z" />
<glyph unicode="T" glyph-name="T" horiz-adv-x="1169" d="M836 1171L588 0H360L608 1171H174L219 1384H1315L1270 1171H836Z" />
<glyph unicode="U" glyph-name="U" horiz-adv-x="1393" d="M1239 563Q1202 389 1148 275T1016 92T836 -3T598 -31Q366 -31 257 66T147 358Q147 405 155 466T178 600L344 1384H573L408 598Q394 536 387 479T379 367Q379 265 437 221T614 176Q698 176 761 195T872
262T954 392T1016 602L1184 1384H1411L1239 563Z" />
<glyph unicode="V" glyph-name="V" horiz-adv-x="1208" d="M633 0H348L221 1384H442L539 258L1110 1384H1354L633 0Z" />
<glyph unicode="W" glyph-name="W" horiz-adv-x="1759" d="M1255 0H1006L977 1012L520 0H274L236 1384H459L479 369L932 1384H1171L1200 369L1655 1384H1888L1255 0Z" />
<glyph unicode="X" glyph-name="X" horiz-adv-x="1221" d="M-70 0L528 717L240 1384H487L690 887L1096 1384H1364L776 694L1071 0H823L612 524L197 0H-70Z" />
<glyph unicode="Y" glyph-name="Y" horiz-adv-x="1143" d="M688 530L575 0H344L455 524L211 1384H449L608 752L1036 1384H1296L688 530Z" />
<glyph unicode="Z" glyph-name="Z" horiz-adv-x="1133" d="M-31 0L12 207L872 1171H248L293 1384H1204L1163 1188L293 213H971L928 0H-31Z" />
<glyph unicode="[" glyph-name="bracketleft" horiz-adv-x="768" d="M-25 -395L375 1489H883L846 1319H535L205 -225H518L483 -395H-25Z" />
<glyph unicode="\" glyph-name="backslash" horiz-adv-x="993" d="M623 -299L309 1520H510L821 -299H623Z" />
<glyph unicode="]" glyph-name="bracketright" horiz-adv-x="768" d="M-102 -395L-68 -225H244L571 1319H258L295 1489H803L403 -395H-102Z" />
<glyph unicode="^" glyph-name="asciicircum" horiz-adv-x="1157" d="M911 649L739 1204L332 649H156L694 1384H846L1071 649H911Z" />
<glyph unicode="_" glyph-name="underscore" horiz-adv-x="1024" d="M-180 -256L-158 -154H895L872 -256H-180Z" />
<glyph unicode="`" glyph-name="grave" horiz-adv-x="1042" d="M666 1208L446 1569H705L821 1208H666Z" />
<glyph unicode="a" glyph-name="a" horiz-adv-x="1171" d="M78 342Q78 416 92 499T136 665T210 822T315 954T452 1045T621 1079Q715 1079 783 1050T899 967L918 1049H1126L907 0H717L733 127Q688 89 647 60T565 11T482 -20T391 -31Q233 -31 156 60T78 342ZM862
784Q820 831 765 860T635 889Q578 889 531 864T447 798T383 702T337 589T310 470T301 358Q301 253 337 207T451 160Q493 160 534 172T616 204T692 249T760 301L862 784Z" />
<glyph unicode="b" glyph-name="b" horiz-adv-x="1171" d="M227 0H43L358 1489H569L457 954Q528 1010 608 1044T772 1079Q936 1079 1016 988T1096 705Q1096 639 1084 567T1049 422T993 282T915 156Q846 65 751 17T535 -31Q445 -31 379 1T262 90L227 0ZM309 262Q351
217 406 189T530 160Q589 160 646 190T752 289Q779 327 800 374T837 474T861 580T870 688Q870 794 833 841T711 889Q672 889 633 880T557 854T485 816T420 770L309 262Z" />
<glyph unicode="c" glyph-name="c" horiz-adv-x="1024" d="M887 156Q815 71 711 20T473 -31Q367 -31 292 -4T170 76T100 204T78 377Q78 440 91 516T133 671T208 822T319 953T469 1044T664 1079Q803 1079 891 1032T1028 891L846 782Q820 838 774 864T649 891Q587
891 537 866T448 800T381 706T335 594T308 478T299 371Q299 322 308 282T340 214T401 171T496 156Q570 156 629 188T743 279L887 156Z" />
<glyph unicode="d" glyph-name="d" horiz-adv-x="1171" d="M76 342Q76 408 87 480T122 624T178 764T256 891Q325 982 420 1030T637 1079Q718 1079 784 1050T899 967L1010 1489H1221L907 0H707L727 102Q652 44 571 7T399 -31Q235 -31 156 60T76 342ZM420 760Q393
721 371 674T334 574T310 466T301 358Q301 253 338 207T461 160Q499 160 538 169T616 195T689 233T754 279L862 784Q820 831 765 860T641 889Q582 889 525 859T420 760Z" />
<glyph unicode="e" glyph-name="e" horiz-adv-x="1090" d="M311 479Q303 445 300 414T297 354Q297 245 348 201T504 156Q584 156 648 186T770 274L895 143Q857 102 815 70T724 15T615 -19T483 -31Q378 -31 302 -4T175 73T100 194T76 354Q76 418 86 484T116 617T167
746T236 866Q269 914 311 953T406 1021T523 1064T662 1079Q755 1079 824 1055T938 987T1006 878T1028 733Q1028 722 1027 706T1024 670T1020 630T1014 594L989 479H311ZM811 637Q816 663 818 687T821 733Q821 818 781 861T645 905Q574 905 523 881T434 809Q408
777 386 733T346 637H811Z" />
<glyph unicode="f" glyph-name="f" horiz-adv-x="633" d="M842 1296Q813 1312 780 1321T709 1331Q670 1331 640 1322T588 1293T550 1241T524 1161L500 1049H719L682 874H463L279 0H68L252 874H113L150 1049H289L311 1151Q331 1242 361 1311T439 1427T555 1496T719
1520Q778 1520 828 1509T920 1479L842 1296Z" />
<glyph unicode="g" glyph-name="g" horiz-adv-x="1171" d="M907 6Q884 -101 844 -177T739 -301T580 -372T356 -395Q228 -395 129 -370T-33 -301L68 -131Q130 -168 203 -189T367 -211Q445 -211 501 -199T597 -159T661 -85T700 31L721 125Q686 98 648 75T570 36T490
10T412 0Q323 0 260 25T157 100T99 221T80 387Q80 466 96 548T145 708T225 852T336 970T476 1050T645 1079Q680 1079 717 1070T789 1045T855 1007T909 956L946 1049H1126L907 6ZM860 784Q815 835 761 862T637 889Q581 889 535 866T452 803T388 713T342 607T314
496T305 391Q305 284 340 237T465 190Q540 190 614 222T760 309L860 784Z" />
<glyph unicode="h" glyph-name="h" horiz-adv-x="1165" d="M698 0L825 598Q836 654 843 698T850 786Q850 836 827 861T750 887Q713 887 671 875T585 840T496 787T408 721L254 0H43L358 1489H569L444 903Q486 940 531 972T623 1028T720 1065T821 1079Q890 1079
937 1060T1013 1007T1054 930T1067 834Q1067 792 1060 741T1042 639L907 0H698Z" />
<glyph unicode="i" glyph-name="i" horiz-adv-x="520" d="M43 0L264 1049H475L254 0H43ZM295 1288Q295 1316 302 1344T327 1393T374 1428T446 1442Q505 1442 530 1420T555 1360Q555 1332 548 1305T523 1257T477 1222T406 1208Q341 1208 318 1229T295 1288Z" />
<glyph unicode="j" glyph-name="j" horiz-adv-x="539" d="M260 -45Q241 -136 210 -202T130 -311T16 -374T-141 -395Q-159 -395 -183 -393T-233 -388T-286 -379T-336 -365L-250 -182Q-218 -196 -183 -203T-106 -211Q-68 -211 -42 -198T2 -158T33 -90T57 6L279 1049H492L260
-45ZM315 1290Q315 1318 323 1345T349 1393T396 1428T467 1442Q526 1442 550 1419T575 1358Q575 1329 567 1302T542 1254T496 1221T426 1208Q394 1208 373 1213T338 1229T320 1255T315 1290Z" />
<glyph unicode="k" glyph-name="k" horiz-adv-x="1053" d="M672 0L461 459L326 336L254 0H43L358 1489H569L385 614L842 1049H1106L618 594L907 0H672Z" />
<glyph unicode="l" glyph-name="l" horiz-adv-x="528" d="M47 0L362 1489H573L258 0H47Z" />
<glyph unicode="m" glyph-name="m" horiz-adv-x="1716" d="M1247 0L1378 618Q1391 675 1398 717T1405 791Q1405 887 1315 887Q1280 887 1242 873T1164 836T1085 782T1010 721L856 0H645L776 618Q789 677 795 719T801 784Q801 835 782 861T709 887Q674 887 635
872T556 832T478 779T408 721L254 0H43L264 1049H475L444 903Q486 943 530 975T618 1031T704 1066T786 1079Q907 1079 963 1028T1022 883Q1127 976 1216 1027T1386 1079Q1455 1079 1501 1062T1574 1013T1613 940T1624 848Q1624 811 1619 769T1602 678L1458 0H1247Z"
/>
<glyph unicode="n" glyph-name="n" horiz-adv-x="1165" d="M698 0L825 598Q836 654 843 699T850 791Q850 837 826 862T752 887Q713 887 670 875T583 840T495 787T408 721L254 0H43L264 1049H475L444 903Q486 940 531 972T623 1028T719 1065T819 1079Q889 1079
936 1060T1013 1007T1054 930T1067 834Q1067 792 1060 741T1042 639L907 0H698Z" />
<glyph unicode="o" glyph-name="o" horiz-adv-x="1149" d="M80 379Q80 433 90 501T122 640T181 782T272 911Q343 988 440 1033T672 1079Q765 1079 838 1053T963 975T1042 844T1069 659Q1069 604 1058 534T1022 390T957 245T858 115Q821 78 781 51T694 5T595 -22T479
-31Q370 -31 294 -4T171 76T102 205T80 379ZM299 373Q299 318 309 278T343 210T405 170T498 156Q566 156 619 184T715 260Q746 296 771 345T814 447T840 555T850 657Q850 891 649 891Q577 891 521 859T422 772Q393 735 371 687T332 586T308 478T299 373Z" />
<glyph unicode="p" glyph-name="p" horiz-adv-x="1171" d="M170 -395H-39L264 1049H465L444 944Q520 1004 601 1041T772 1079Q936 1079 1016 988T1096 705Q1096 639 1083 559T1043 398T972 239T867 102T725 6T543 -31Q455 -31 388 -2T272 82L170 -395ZM309 262Q351
217 406 189T530 160Q587 160 634 184T719 250T785 346T832 459T860 577T870 688Q870 794 833 841T711 889Q672 889 633 880T556 854T483 816T418 770L309 262Z" />
<glyph unicode="q" glyph-name="q" horiz-adv-x="1171" d="M713 94Q632 32 558 1T399 -31Q236 -31 156 62T76 352Q76 421 90 501T133 662T205 818T309 951T445 1044T614 1079Q713 1079 785 1049T909 956L946 1049H1128L823 -395H612L713 94ZM862 784Q820 831 765
860T637 889Q574 889 525 862T438 791T375 690T332 574T309 459T301 358Q301 253 338 207T461 160Q499 160 538 169T616 195T689 233T754 279L862 784Z" />
<glyph unicode="r" glyph-name="r" horiz-adv-x="809" d="M809 836Q795 842 771 848T721 854Q677 854 637 842T557 810T480 761T403 702L254 0H43L264 1049H475L442 889Q536 977 614 1021T768 1065Q806 1065 840 1059T893 1042L809 836Z" />
<glyph unicode="s" glyph-name="s" horiz-adv-x="987" d="M188 262Q219 202 272 175T408 147Q457 147 500 155T574 182T624 226T643 289Q643 312 637 331T610 367T550 402T444 440Q359 465 303 494T213 557T166 634T152 731Q152 802 180 865T262 975T398 1051T584
1079Q728 1079 817 1032T958 897L778 786Q768 808 751 828T707 865T645 891T563 901Q515 901 478 890T416 859T378 816T365 766Q365 744 371 725T395 688T445 656T528 625Q622 599 685 570T787 505T842 423T858 317Q858 244 828 181T740 70T595 -4T395 -31Q308
-31 244 -17T133 21T56 80T6 154L188 262Z" />
<glyph unicode="t" glyph-name="t" horiz-adv-x="719" d="M582 0Q534 -15 480 -23T381 -31Q311 -31 262 -15T182 32T136 105T121 201Q121 232 125 269T137 344L250 874H113L150 1049H287L350 1341H561L498 1049H748L713 874H461L350 350Q342 318 338 291T334 242Q334
191 357 169T426 147Q461 147 504 154T582 174V0Z" />
<glyph unicode="u" glyph-name="u" horiz-adv-x="1165" d="M467 1049L342 451Q330 395 323 350T315 270Q315 210 339 186T414 162Q453 162 495 174T582 209T670 261T758 328L911 1049H1122L901 0H690L721 145Q679 107 634 75T543 20T448 -17T352 -31Q280 -31 232
-12T153 41T111 118T98 213Q98 255 105 306T123 408L258 1049H467Z" />
<glyph unicode="v" glyph-name="v" horiz-adv-x="1004" d="M489 0H289L150 1049H358L449 287L848 1049H1075L489 0Z" />
<glyph unicode="w" glyph-name="w" horiz-adv-x="1489" d="M1071 0H874L791 735L393 0H201L154 1049H362L375 311L766 1049H932L1020 313L1335 1049H1554L1071 0Z" />
<glyph unicode="x" glyph-name="x" horiz-adv-x="1024" d="M637 0L479 367L188 0H-68L391 541L158 1049H389L543 692L836 1049H1092L631 518L872 0H637Z" />
<glyph unicode="y" glyph-name="y" horiz-adv-x="1040" d="M-119 -184Q-88 -198 -54 -204T12 -211Q45 -211 75 -200T135 -165T197 -99T266 2L311 78L147 1049H358L469 319L887 1049H1116L436 -76Q385 -162 338 -222T241 -321T131 -377T-6 -395Q-53 -395 -103 -386T-195
-362L-119 -184Z" />
<glyph unicode="z" glyph-name="z" horiz-adv-x="913" d="M-43 0L-10 160L639 874H154L190 1049H940L907 893L256 174H770L733 0H-43Z" />
<glyph unicode="{" glyph-name="braceleft" horiz-adv-x="926" d="M584 -395Q420 -395 338 -327T256 -125Q256 -90 261 -57T272 8L301 141Q307 173 313 208T319 285Q319 326 308 360T271 419T208 457T117 471H88L129 655H158Q228 655 281 675T372 737T437 839T481
983L510 1126Q531 1223 567 1296T657 1419T787 1494T961 1520H1057L1022 1350H967Q853 1350 791 1292T702 1110L666 942Q647 855 620 789T552 677T456 601T326 557Q417 525 466 458T516 297Q516 268 512 236T502 176L469 12Q464 -12 460 -37T455 -96Q455 -162 497
-193T625 -225H686L651 -395H584Z" />
<glyph unicode="|" glyph-name="bar" horiz-adv-x="825" d="M358 -395V1520H555V-395H358Z" />
<glyph unicode="}" glyph-name="braceright" horiz-adv-x="926" d="M354 1520Q518 1520 600 1450T682 1247Q682 1213 677 1181T666 1114L637 981Q631 949 625 915T618 838Q618 797 630 763T666 705T729 667T821 653H850L809 469H780Q709 469 657 449T566 387T501
284T457 139L428 -2Q407 -99 371 -172T281 -295T151 -370T-23 -395H-119L-84 -225H-29Q85 -225 147 -169T236 12L272 182Q291 269 318 334T386 445T482 521T612 565Q521 599 472 665T422 827Q422 855 426 887T436 948L469 1110Q474 1136 478 1161T483 1219Q483
1287 441 1318T313 1350H252L287 1520H354Z" />
<glyph unicode="~" glyph-name="asciitilde" horiz-adv-x="1378" d="M207 791Q257 829 301 853T384 891T455 910T514 915Q586 915 648 891T767 837T876 783T981 758Q1055 758 1137 796T1309 903L1268 713Q1236 689 1200 666T1125 625T1044 595T963 584Q893 584
829 608T707 662T596 716T498 741Q410 741 331 703T166 596L207 791Z" />
</font>
</defs>
</svg>
