<?xml version="1.0" standalone="no"?> <!DOCTYPE svg PUBLIC "-//W3C//DTD SVG 1.0//EN" "http://www.w3.org/TR/2001/REC-SVG-20010904/DTD/svg10.dtd" > <svg xmlns="http://www.w3.org/2000/svg" width="100%" height="100%">
<defs >
<font id="clearsans-thin" horiz-adv-x="1149" ><font-face
    font-family="Clear Sans Thin"
    units-per-em="2048"
    panose-1="2 11 2 3 3 2 2 2 3 4"
    ascent="2206"
    descent="-563"
    alphabetic="0" />
<missing-glyph horiz-adv-x="1026" d="M25 1362H997V0H25V1362ZM512 768L842 1266H180L512 768ZM123 186Q123 186 137 207T174 262T227 341T288 433Q360 542 453 682L123 1178V186ZM569 682L901 184V1178L569 682ZM512 594L180 98H842L512 594Z" />
<glyph unicode=" " glyph-name="space" horiz-adv-x="526" />
<glyph unicode="!" glyph-name="exclam" horiz-adv-x="526" d="M299 358H231L213 1384H313L299 358ZM344 57Q344 17 323 2T262 -14Q215 -14 199 6T182 57Q182 96 200 112T262 129Q307 129 325 112T344 57Z" />
<glyph unicode="&quot;" glyph-name="quotedbl" horiz-adv-x="870" d="M313 1030H252L221 1520H344L313 1030ZM618 1030H557L526 1520H649L618 1030Z" />
<glyph unicode="#" glyph-name="numbersign" horiz-adv-x="1487" d="M1061 915L942 469H1235V401H920L811 0H737L842 401H479L373 0H299L406 401H135V469H424L547 915H252V983H563L668 1384H741L637 983H999L1108 1384H1182L1077 983H1352V915H1061ZM621 915L498
469H864L987 915H621Z" />
<glyph unicode="$" glyph-name="dollar" horiz-adv-x="1247" d="M1047 412Q1047 336 1019 277T942 178T826 115T680 90V-133H602V90Q521 95 460 120T354 180T278 256T225 334L299 375Q316 340 341 305T403 240T489 191T602 164V688Q502 707 436 739T329 811T271
899T254 997Q254 1054 272 1108T331 1206T438 1278T602 1311V1413H680V1311Q807 1305 895 1252T1042 1083L969 1049Q927 1137 857 1184T680 1237V754Q753 739 819 714T936 650T1017 552T1047 412ZM602 1237Q524 1234 474 1215T394 1164T352 1090T340 997Q340 940
364 901T425 837T510 796T602 770V1237ZM961 416Q961 519 894 580T680 672V164Q731 167 781 181T871 225T936 301T961 416Z" />
<glyph unicode="%" glyph-name="percent" horiz-adv-x="2015" d="M1536 -31Q1449 -31 1385 -7T1278 69T1215 204T1194 406Q1194 524 1217 606T1285 741T1392 816T1536 840Q1706 840 1793 732T1880 406Q1880 293 1858 211T1791 75T1683 -5T1536 -31ZM551 -51L1370
1436H1454L633 -51H551ZM477 543Q390 543 326 567T219 643T156 778T135 979Q135 1097 158 1179T226 1314T333 1389T477 1413Q647 1413 734 1305T821 979Q821 866 799 784T732 649T624 569T477 543ZM1536 43Q1603 43 1652 63T1732 127T1779 240T1794 406Q1794 467
1785 531T1749 647T1671 732T1536 766Q1465 766 1416 745T1337 679T1294 567T1280 406Q1280 308 1293 239T1337 127T1416 63T1536 43ZM477 616Q544 616 593 636T673 701T720 813T735 979Q735 1020 732 1062T718 1145T690 1220T643 1282T574 1323T477 1339Q406 1339
357 1318T278 1252T235 1140T221 979Q221 881 234 813T278 700T357 636T477 616Z" />
<glyph unicode="&amp;" glyph-name="ampersand" horiz-adv-x="1434" d="M1192 0L1077 137Q989 62 884 17T645 -29Q531 -29 444 -1T299 77T212 196T182 346Q182 410 198 462T256 562T367 660T543 772Q488 836 452 885T395 975T365 1050T356 1118Q356 1261 439 1337T688
1413Q768 1413 826 1392T921 1336T977 1254T995 1157Q995 1100 977 1047T919 944T818 847T672 752L1081 266Q1131 329 1170 408T1235 590L1319 565Q1308 514 1289 462T1244 360T1192 270T1139 199L1311 0H1192ZM905 1157Q905 1196 892 1228T851 1284T781 1321T682
1335Q601 1335 554 1313T483 1258T453 1187T446 1118Q446 1086 455 1055T485 988T539 910T621 813Q696 854 749 894T837 976T888 1062T905 1157ZM594 711Q489 653 426 609T329 523T283 441T272 348Q272 280 297 225T371 131T490 71T649 49Q748 49 843 86T1020 205L594
711Z" />
<glyph unicode="&apos;" glyph-name="quotesingle" horiz-adv-x="565" d="M313 1030H252L221 1520H344L313 1030Z" />
<glyph unicode="(" glyph-name="parenleft" horiz-adv-x="737" d="M518 -395Q430 -281 367 -171T264 54T205 293T186 561Q186 848 267 1084T518 1518H614Q535 1436 472 1332T364 1107T296 848T272 561Q272 418 293 294T358 55T465 -170T614 -395H518Z" />
<glyph unicode=")" glyph-name="parenright" horiz-adv-x="797" d="M182 -395Q269 -285 333 -176T440 50T503 292T524 561Q524 853 436 1092T182 1518H279Q448 1321 529 1085T610 561Q610 417 590 291T529 49T426 -177T279 -395H182Z" />
<glyph unicode="*" glyph-name="asterisk" horiz-adv-x="985" d="M799 973L522 1133L526 856H455L461 1133L186 973L154 1030L440 1188L154 1343L186 1401L461 1243L457 1520H528L522 1243L799 1401L831 1343L545 1188L831 1030L799 973Z" />
<glyph unicode="+" glyph-name="plus" horiz-adv-x="1427" d="M750 545V66H672V545H195V623H672V1104H750V623H1233V545H750Z" />
<glyph unicode="," glyph-name="comma" horiz-adv-x="526" d="M193 -252Q209 -236 223 -211T248 -156T265 -89T272 -14Q246 -14 230 -9T204 5T192 27T188 57Q188 129 262 129Q297 129 317 108T338 33Q338 -18 328 -65T302 -150T270 -214T240 -252H193Z" />
<glyph unicode="-" glyph-name="hyphen" horiz-adv-x="868" d="M123 485V567H745V485H123Z" />
<glyph unicode="." glyph-name="period" horiz-adv-x="526" d="M338 57Q338 15 319 1T262 -14Q222 -14 205 4T188 57Q188 129 262 129Q302 129 320 113T338 57Z" />
<glyph unicode="/" glyph-name="slash" horiz-adv-x="913" d="M106 -299H29L768 1520H848L106 -299Z" />
<glyph unicode="0" glyph-name="zero" horiz-adv-x="1247" d="M1098 688Q1098 504 1070 369T983 145T835 13T623 -31Q501 -31 412 11T265 142T179 366T150 686Q150 870 178 1005T265 1228T412 1358T623 1401Q745 1401 834 1359T982 1228T1069 1006T1098 688ZM1004
688Q1004 857 981 977T910 1174T792 1287T623 1323Q521 1323 450 1286T332 1171T265 973T244 686Q244 517 267 396T337 198T456 84T623 47Q720 47 791 83T910 198T980 397T1004 688Z" />
<glyph unicode="1" glyph-name="one" horiz-adv-x="1247" d="M645 0V1196Q589 1125 504 1088T313 1051V1116Q387 1118 445 1140T548 1200T623 1284T670 1384H731V0H645Z" />
<glyph unicode="2" glyph-name="two" horiz-adv-x="1171" d="M172 0V92Q224 136 281 188T395 296T508 409T616 523T711 631T788 727Q835 789 865 860T895 1022Q895 1100 872 1159T807 1257T706 1315T575 1335Q455 1335 372 1286T246 1141L168 1178Q180 1206 207
1246T283 1324T404 1387T578 1413Q661 1413 735 1392T866 1324T956 1203T989 1022Q989 921 945 824T805 618Q764 572 711 513T592 385T445 239T270 78H1034V0H172Z" />
<glyph unicode="3" glyph-name="three" horiz-adv-x="1171" d="M993 401Q993 189 873 80T528 -29Q474 -29 417 -17T307 18T210 75T139 154L201 201Q223 168 258 140T337 92T427 61T522 49Q617 49 688 69T806 131T876 242T899 406Q899 478 879 534T814 629T696
688T514 709H432V786H498Q582 786 651 804T771 859T849 950T877 1077Q877 1208 796 1271T561 1335Q439 1335 355 1287T217 1153L150 1196Q177 1239 215 1278T304 1348T419 1395T565 1413Q673 1413 749 1388T874 1318T946 1214T969 1085Q969 1017 951 964T897 871T812
801T698 754Q760 747 814 722T907 654T970 547T993 401Z" />
<glyph unicode="4" glyph-name="four" horiz-adv-x="1247" d="M885 385V0H799V385H68V475L834 1384H885V463H1096V385H885ZM799 1225L158 463H799V1225Z" />
<glyph unicode="5" glyph-name="five" horiz-adv-x="1171" d="M989 430Q989 322 960 237T874 92T736 2T551 -29Q481 -29 421 -14T312 26T229 83T176 150L242 201Q262 170 293 143T364 94T450 61T547 49Q642 49 708 79T816 160T876 280T895 424Q895 510 872 571T805
673T700 731T563 750Q488 750 426 732T309 676H258L328 1384H969V1307H399L346 772Q370 785 400 795T462 813T523 823T575 827Q678 827 755 799T885 718T963 593T989 430Z" />
<glyph unicode="6" glyph-name="six" horiz-adv-x="1171" d="M602 -29Q474 -29 387 17T246 152T169 372T145 674Q145 837 176 973T271 1207T430 1359T655 1413Q755 1413 836 1378T985 1260L922 1204Q896 1235 868 1259T806 1301T734 1326T647 1335Q553 1335 480
1294T355 1177T274 991T240 743Q267 762 306 782T395 820T500 848T618 860Q712 860 788 838T919 767T1004 640T1034 449Q1034 335 1007 246T925 96T789 3T602 -29ZM604 49Q694 49 757 78T861 159T921 284T940 442Q940 547 915 613T844 717T736 768T600 782Q561
782 515 774T421 752T327 717T240 672Q240 544 252 448T286 282T341 168T413 97T502 60T604 49Z" />
<glyph unicode="7" glyph-name="seven" horiz-adv-x="1247" d="M524 0H430L971 1307H166V1384H1059V1300L524 0Z" />
<glyph unicode="8" glyph-name="eight" horiz-adv-x="1171" d="M1044 338Q1044 156 926 64T590 -29Q358 -29 246 66T133 338Q133 411 155 470T223 578T334 666T489 739Q402 781 341 816T242 889T187 972T170 1079Q170 1148 194 1209T269 1315T399 1387T590 1413Q795
1413 901 1328T1008 1081Q1008 1003 979 948T905 852T805 785T698 737Q779 699 843 662T951 580T1020 477T1044 338ZM918 1077Q918 1135 899 1183T841 1264T739 1316T590 1335Q503 1335 441 1318T338 1267T279 1188T260 1083Q260 1038 275 1001T329 930T433 860T600
782Q684 813 744 842T843 906T900 981T918 1077ZM954 338Q954 396 939 441T884 526T773 607T592 696Q480 658 409 620T296 538T239 446T223 336Q223 202 313 126T590 49Q774 49 864 123T954 338Z" />
<glyph unicode="9" glyph-name="nine" horiz-adv-x="1171" d="M233 195Q259 163 288 137T351 91T428 60T524 49Q618 49 691 90T816 207T897 393T932 641Q904 623 865 602T776 564T671 536T553 524Q459 524 383 546T252 618T167 745T137 936Q137 1050 165 1138T247
1288T382 1381T569 1413Q696 1413 783 1367T925 1232T1002 1012T1026 711Q1026 547 995 411T900 177T741 25T516 -29Q456 -29 406 -17T313 18T235 72T170 139L233 195ZM571 602Q610 602 656 610T751 632T845 667T932 713Q932 906 906 1027T831 1216T716 1310T567
1335Q477 1335 414 1306T310 1225T250 1100T231 942Q231 837 257 771T328 667T436 616T571 602Z" />
<glyph unicode=":" glyph-name="colon" horiz-adv-x="526" d="M338 979Q338 937 319 922T262 907Q222 907 205 926T188 979Q188 1051 262 1051Q302 1051 320 1034T338 979ZM338 57Q338 15 319 1T262 -14Q222 -14 205 4T188 57Q188 129 262 129Q302 129 320 113T338 57Z" />
<glyph unicode=";" glyph-name="semicolon" horiz-adv-x="526" d="M338 979Q338 937 319 922T262 907Q222 907 205 926T188 979Q188 1051 262 1051Q302 1051 320 1034T338 979ZM338 33Q338 -18 328 -65T302 -150T270 -214T240 -252H193Q209 -236 223 -211T248
-156T265 -89T272 -14Q246 -14 230 -9T204 5T192 27T188 57Q188 129 262 129Q297 129 317 108T338 33Z" />
<glyph unicode="&lt;" glyph-name="less" horiz-adv-x="1427" d="M197 563V612L1233 1059V973L338 588L1233 203V117L197 563Z" />
<glyph unicode="=" glyph-name="equal" horiz-adv-x="1427" d="M195 768V846H1233V768H195ZM195 330V408H1233V330H195Z" />
<glyph unicode="&gt;" glyph-name="greater" horiz-adv-x="1427" d="M197 117V203L1092 588L197 973V1059L1233 612V563L197 117Z" />
<glyph unicode="?" glyph-name="question" horiz-adv-x="1026" d="M377 328V592Q495 656 574 710T700 819T768 931T788 1063Q788 1124 768 1174T706 1260T605 1315T463 1335Q400 1335 352 1323T267 1291T207 1247T170 1200L104 1245Q122 1277 155 1307T233 1361T336
1399T461 1413Q551 1413 628 1391T760 1326T847 1217T879 1065Q879 985 855 919T779 793T649 675T459 553V328H377ZM500 57Q500 17 479 2T418 -14Q370 -14 354 6T338 57Q338 96 356 112T418 129Q463 129 481 113T500 57Z" />
<glyph unicode="@" glyph-name="at" horiz-adv-x="1921" d="M1815 590Q1815 520 1807 450T1780 317T1734 198T1665 103T1573 39T1454 16Q1400 16 1363 26T1300 59T1261 115T1241 195Q1200 160 1158 132T1075 84T994 54T920 43Q818 43 749 84T638 191T579 341T561
512Q561 627 585 721T658 881T783 984T963 1020Q1009 1020 1052 1008T1131 978T1196 941T1239 909V989H1325V233Q1325 192 1332 165T1356 121T1396 97T1452 90Q1518 90 1569 125T1656 225T1710 383T1729 590Q1729 765 1684 904T1547 1139T1317 1287T991 1339Q817
1339 676 1279T435 1113T280 863T225 551Q225 363 279 217T432 -30T672 -183T987 -236Q1103 -236 1207 -225T1393 -195L1411 -272Q1370 -281 1321 -287T1216 -299T1102 -306T985 -309Q796 -309 640 -252T373 -85T201 185T139 553Q139 677 168 789T250 996T380 1169T551
1300T756 1383T989 1413Q1189 1413 1343 1358T1602 1197T1761 938T1815 590ZM1237 834Q1213 852 1181 871T1113 905T1038 931T963 942Q874 942 815 912T719 827T667 693T651 518Q651 450 662 380T704 252T788 158T924 121Q966 121 1008 135T1091 170T1169 217T1237
266V834Z" />
<glyph unicode="A" glyph-name="A" horiz-adv-x="1239" d="M76 0L563 1384H670L1163 0H1063L913 440H322L172 0H76ZM348 518H885L614 1305L348 518Z" />
<glyph unicode="B" glyph-name="B" horiz-adv-x="1245" d="M1104 410Q1104 302 1071 225T974 97T815 24T596 0H215V1384H598Q714 1384 792 1365T919 1306T987 1210T1008 1077Q1008 951 958 874T795 758Q858 749 914 724T1012 657T1079 553T1104 410ZM913 1057Q913
1124 898 1171T843 1249T731 1293T547 1307H301V774H539Q726 774 819 840T913 1057ZM1010 401Q1010 500 978 558T888 647T753 687T582 696H301V78H553Q667 78 752 92T895 144T981 243T1010 401Z" />
<glyph unicode="C" glyph-name="C" horiz-adv-x="1309" d="M1206 250Q1174 189 1133 138T1035 50T905 -8T731 -29Q584 -29 477 16T299 152T196 378T162 692Q162 862 193 996T293 1222T468 1364T725 1413Q812 1413 883 1396T1011 1345T1112 1259T1190 1141L1110
1096Q1080 1155 1044 1199T961 1272T856 1316T723 1331Q596 1331 508 1290T363 1169T282 969T256 692Q256 543 280 425T361 224T508 97T733 53Q824 53 889 75T1001 133T1078 211T1130 295L1206 250Z" />
<glyph unicode="D" glyph-name="D" horiz-adv-x="1272" d="M1120 692Q1120 490 1078 357T957 145T762 33T502 0H203V1384H502Q661 1384 777 1349T970 1233T1083 1020T1120 692ZM1026 694Q1026 859 998 975T907 1165T740 1273T487 1307H289V78H487Q629 78 731 109T898
212T995 402T1026 694Z" />
<glyph unicode="E" glyph-name="E" horiz-adv-x="1157" d="M215 0V1384H1008V1307H301V778H911V700H301V78H1008V0H215Z" />
<glyph unicode="F" glyph-name="F" horiz-adv-x="1112" d="M301 1307V791H901V713H301V0H215V1384H999V1307H301Z" />
<glyph unicode="G" glyph-name="G" horiz-adv-x="1366" d="M1087 1098Q1058 1159 1023 1203T941 1275T838 1317T709 1331Q587 1331 501 1291T361 1171T281 972T256 696Q256 543 281 423T364 221T515 96T743 53Q787 53 828 58T909 73T992 98T1079 135V584H678V662H1165V82Q1107
54 1059 34T963 -1T860 -22T735 -29Q571 -29 461 24T285 175T190 405T162 700Q162 865 191 997T285 1222T457 1363T717 1413Q806 1413 875 1395T999 1343T1094 1257T1167 1141L1087 1098Z" />
<glyph unicode="H" glyph-name="H" horiz-adv-x="1319" d="M1018 0V678H301V0H215V1384H301V756H1018V1384H1104V0H1018Z" />
<glyph unicode="I" glyph-name="I" horiz-adv-x="668" d="M565 0H102V78H291V1307H102V1384H565V1307H377V78H565V0Z" />
<glyph unicode="J" glyph-name="J" horiz-adv-x="846" d="M631 416Q631 308 617 225T566 84T467 -2T309 -31Q277 -31 245 -27T182 -16T126 0T82 18L117 96Q152 78 204 65T311 51Q386 51 432 76T503 152T536 278T545 453V1384H631V416Z" />
<glyph unicode="K" glyph-name="K" horiz-adv-x="1247" d="M1053 0L479 666L301 483V0H215V1384H301V588L1038 1384H1149L539 725L1169 0H1053Z" />
<glyph unicode="L" glyph-name="L" horiz-adv-x="1038" d="M215 0V1384H301V78H973V0H215Z" />
<glyph unicode="M" glyph-name="M" horiz-adv-x="1520" d="M1219 0V1292L791 408H725L301 1292V0H215V1384H348L762 524L1171 1384H1305V0H1219Z" />
<glyph unicode="N" glyph-name="N" horiz-adv-x="1362" d="M1049 0L301 1284V0H215V1384H338L1061 143V1384H1147V0H1049Z" />
<glyph unicode="O" glyph-name="O" horiz-adv-x="1364" d="M1212 692Q1212 526 1184 393T1094 166T930 22T682 -29Q536 -29 435 22T271 166T180 393T152 692Q152 856 180 989T271 1217T435 1362T682 1413Q829 1413 930 1363T1093 1219T1184 992T1212 692ZM1118
692Q1118 845 1096 964T1022 1164T887 1288T682 1331Q560 1331 477 1290T343 1167T269 967T246 692Q246 541 268 422T342 221T476 96T682 53Q803 53 886 95T1021 220T1095 420T1118 692Z" />
<glyph unicode="P" glyph-name="P" horiz-adv-x="1124" d="M1006 965Q1006 837 977 750T889 610T745 534T547 510H301V0H215V1384H571Q692 1384 775 1353T909 1267T983 1134T1006 965ZM911 958Q911 1056 887 1122T819 1230T712 1289T569 1307H301V588H543Q640
588 710 606T824 668T890 782T911 958Z" />
<glyph unicode="Q" glyph-name="Q" horiz-adv-x="1364" d="M1217 -272Q1175 -289 1127 -298T1034 -307Q953 -307 890 -289T778 -234T695 -147T637 -29Q517 -20 426 25T275 159T183 379T152 692Q152 863 182 997T277 1223T442 1364T684 1413Q956 1413 1084 1233T1212
692Q1212 533 1187 405T1104 185T956 38T731 -29Q749 -75 774 -111T837 -173T922 -211T1034 -225Q1052 -225 1075 -223T1120 -216T1161 -207T1192 -197L1217 -272ZM1118 692Q1118 845 1096 964T1022 1164T887 1288T682 1331Q560 1331 477 1289T343 1165T269 964T246
692Q246 541 268 422T342 221T476 96T682 53Q803 53 886 95T1021 220T1095 420T1118 692Z" />
<glyph unicode="R" glyph-name="R" horiz-adv-x="1190" d="M997 0L641 606H301V0H215V1384H571Q683 1384 767 1364T907 1298T992 1181T1020 1006Q1020 917 1002 852T948 741T856 665T727 621L1104 0H997ZM926 1008Q926 1084 909 1140T851 1234T742 1289T569 1307H301V684H569Q672
684 740 702T850 759T909 859T926 1008Z" />
<glyph unicode="S" glyph-name="S" horiz-adv-x="1225" d="M1079 348Q1079 247 1044 176T946 59T799 -8T618 -29Q516 -29 439 -8T304 50T204 140T127 254L209 295Q227 254 259 211T340 133T454 76T604 53Q694 53 765 71T885 127T961 219T987 348Q987 413 971 460T912
545T794 613T602 674Q465 709 379 742T244 816T176 911T158 1044Q158 1125 184 1193T264 1309T399 1385T590 1413Q747 1413 855 1349T1036 1163L956 1116Q931 1161 898 1200T821 1269T721 1314T594 1331Q504 1331 440 1311T333 1253T272 1162T252 1044Q252 985
264 945T317 875T431 818T627 760Q745 729 830 696T971 616T1052 505T1079 348Z" />
<glyph unicode="T" glyph-name="T" horiz-adv-x="1163" d="M625 1307V0H539V1307H47V1384H1116V1307H625Z" />
<glyph unicode="U" glyph-name="U" horiz-adv-x="1352" d="M1147 578Q1147 406 1122 290T1042 102T897 0T680 -31Q541 -31 450 1T304 106T227 295T205 578V1384H291V598Q291 436 309 330T371 161T490 73T678 47Q789 47 863 71T981 158T1043 326T1061 594V1384H1147V578Z" />
<glyph unicode="V" glyph-name="V" horiz-adv-x="1206" d="M645 0H553L76 1384H168L600 111L1038 1384H1130L645 0Z" />
<glyph unicode="W" glyph-name="W" horiz-adv-x="1681" d="M1270 0H1141L838 1300L537 0H412L92 1384H182L477 98L774 1384H901L1208 88L1503 1384H1589L1270 0Z" />
<glyph unicode="X" glyph-name="X" horiz-adv-x="1130" d="M78 0L520 696L90 1384H184L569 760L958 1384H1053L614 696L1055 0H958L565 633L168 0H78Z" />
<glyph unicode="Y" glyph-name="Y" horiz-adv-x="1106" d="M596 541V0H510V537L61 1384H154L553 616L952 1384H1044L596 541Z" />
<glyph unicode="Z" glyph-name="Z" horiz-adv-x="1180" d="M113 0V82L942 1307H143V1384H1036V1305L205 78H1053V0H113Z" />
<glyph unicode="[" glyph-name="bracketleft" horiz-adv-x="846" d="M236 -395V1489H662V1411H317V-317H662V-395H236Z" />
<glyph unicode="\" glyph-name="backslash" horiz-adv-x="913" d="M807 -299L66 1520H145L885 -299H807Z" />
<glyph unicode="]" glyph-name="bracketright" horiz-adv-x="846" d="M184 -395V-317H528V1411H184V1489H610V-395H184Z" />
<glyph unicode="^" glyph-name="asciicircum" horiz-adv-x="1186" d="M932 594L594 1311L254 594H164L539 1384H649L1022 594H932Z" />
<glyph unicode="_" glyph-name="underscore" horiz-adv-x="1024" d="M-10 -256V-174H1034V-256H-10Z" />
<glyph unicode="`" glyph-name="grave" horiz-adv-x="1126" d="M629 1208L383 1569H502L696 1208H629Z" />
<glyph unicode="a" glyph-name="a" horiz-adv-x="1061" d="M788 0V174Q739 129 694 92T604 27T511 -15T408 -31Q334 -31 282 -10T197 53T149 156T133 295Q133 363 149 421T212 525T346 601T573 645L788 666V721Q788 793 775 846T730 935T643 988T508 1006Q443
1006 397 995T317 965T262 921T223 866L160 907Q184 947 214 979T286 1033T381 1067T508 1079Q610 1079 680 1058T793 991T855 877T874 713V0H788ZM788 592L578 571Q468 560 399 539T291 485T238 406T223 299Q223 165 267 104T414 43Q449 43 482 50T557 81T654
147T788 260V592Z" />
<glyph unicode="b" glyph-name="b" horiz-adv-x="1130" d="M989 532Q989 394 963 289T885 113T760 5T588 -31Q516 -31 436 8T281 125V0H195V1489H281V924Q346 995 427 1037T596 1079Q706 1079 781 1035T902 915T969 741T989 532ZM899 528Q899 650 878 740T817
889T720 977T590 1006Q511 1006 436 961T281 831V217Q364 132 442 88T588 43Q655 43 712 70T810 156T875 307T899 528Z" />
<glyph unicode="c" glyph-name="c" horiz-adv-x="1001" d="M895 176Q844 71 762 20T555 -31Q437 -31 358 11T230 128T162 303T141 520Q141 648 163 751T235 927T364 1039T555 1079Q670 1079 748 1029T883 870L811 831Q788 876 763 909T707 963T638 995T551 1006Q388
1006 310 887T231 514Q231 404 249 317T306 169T406 76T555 43Q612 43 654 56T727 94T782 150T825 219L895 176Z" />
<glyph unicode="d" glyph-name="d" horiz-adv-x="1130" d="M850 0V125Q816 92 777 64T696 14T611 -19T524 -31Q336 -31 239 104T141 516Q141 627 164 728T235 908T357 1032T532 1079Q581 1079 622 1070T702 1044T776 1004T850 954V1489H936V0H850ZM850 862Q759
937 683 971T535 1006Q462 1006 406 970T310 870T251 716T231 520Q231 284 303 164T520 43Q566 43 609 56T694 93T773 148T850 217V862Z" />
<glyph unicode="e" glyph-name="e" horiz-adv-x="1020" d="M231 545Q231 404 246 308T296 153T387 69T526 43Q574 43 613 51T687 78T752 128T811 207L877 162Q850 117 819 82T746 21T651 -17T526 -31Q428 -31 356 -2T236 92T165 261T141 516Q141 657 163 763T234
939T357 1044T537 1079Q723 1079 811 962T899 616V545H231ZM813 618Q811 726 793 800T741 919T655 985T537 1006Q459 1006 403 983T311 913T255 792T231 618H813Z" />
<glyph unicode="f" glyph-name="f" horiz-adv-x="606" d="M653 1397Q639 1407 619 1415T576 1431T529 1442T481 1446Q436 1446 404 1433T351 1389T321 1305T311 1174V1049H565V971H311V0H225V971H51V1049H225V1180Q225 1268 238 1332T283 1438T363 1500T485 1520Q516
1520 545 1516T602 1504T651 1486T690 1466L653 1397Z" />
<glyph unicode="g" glyph-name="g" horiz-adv-x="1130" d="M936 25Q936 -94 914 -174T846 -303T734 -374T578 -395Q513 -395 458 -386T359 -363T280 -329T223 -289L270 -227Q314 -271 391 -296T578 -322Q654 -322 706 -303T790 -242T836 -135T850 23V154Q819 123
782 95T702 46T614 13T520 0Q327 0 234 131T141 535Q141 658 166 758T242 929T367 1040T543 1079Q626 1079 702 1045T850 954V1049H936V25ZM850 868Q761 934 689 970T541 1006Q388 1006 310 886T231 539Q231 486 233 431T246 325T275 228T326 148T407 94T524 74Q576
74 623 90T712 132T787 188T850 246V868Z" />
<glyph unicode="h" glyph-name="h" horiz-adv-x="1110" d="M838 0V686Q838 783 827 844T793 941T735 988T651 1001Q576 1001 484 948T281 782V0H195V1489H281V872Q384 967 475 1023T653 1079Q736 1079 788 1054T871 981T912 862T924 700V0H838Z" />
<glyph unicode="i" glyph-name="i" horiz-adv-x="475" d="M309 1294Q309 1252 293 1238T238 1223Q197 1223 182 1241T166 1294Q166 1331 182 1348T238 1366Q278 1366 293 1350T309 1294ZM195 0V1049H281V0H195Z" />
<glyph unicode="j" glyph-name="j" horiz-adv-x="481" d="M315 1294Q315 1252 299 1238T244 1223Q203 1223 188 1241T172 1294Q172 1331 189 1348T244 1366Q284 1366 299 1350T315 1294ZM287 -63Q287 -147 275 -209T233 -313T154 -374T29 -395Q-15 -395 -54 -388T-137
-365L-115 -293Q-80 -307 -43 -314T37 -322Q81 -322 112 -309T163 -264T192 -181T201 -55V1049H287V-63Z" />
<glyph unicode="k" glyph-name="k" horiz-adv-x="997" d="M815 0L408 510L281 371V0H195V1489H281V473L795 1049H903L467 567L926 0H815Z" />
<glyph unicode="l" glyph-name="l" horiz-adv-x="508" d="M211 0V1489H297V0H211Z" />
<glyph unicode="m" glyph-name="m" horiz-adv-x="1634" d="M1362 0V672Q1362 780 1353 845T1324 944T1275 990T1204 1001Q1159 1001 1121 988T1045 948T963 880T864 782V0H778V686Q778 786 769 847T739 943T687 989T610 1001Q571 1001 532 985T453 939T370 870T281
782V0H195V1049H281V872Q372 969 454 1024T618 1079Q723 1079 783 1028T858 862Q906 916 947 956T1030 1024T1114 1065T1208 1079Q1286 1079 1333 1051T1405 972T1439 852T1448 700V0H1362Z" />
<glyph unicode="n" glyph-name="n" horiz-adv-x="1110" d="M838 0V686Q838 783 827 844T793 941T735 988T651 1001Q576 1001 484 948T281 782V0H195V1049H281V872Q335 923 384 961T478 1026T568 1066T659 1079Q740 1079 791 1054T872 981T913 862T924 700V0H838Z" />
<glyph unicode="o" glyph-name="o" horiz-adv-x="1124" d="M983 522Q983 397 961 296T888 121T758 9T563 -31Q449 -31 369 8T238 120T164 295T141 522Q141 641 163 743T236 919T366 1036T563 1079Q674 1079 753 1041T884 930T959 754T983 522ZM893 522Q893 766
815 886T563 1006Q474 1006 411 975T308 882T250 730T231 522Q231 280 311 162T563 43Q730 43 811 160T893 522Z" />
<glyph unicode="p" glyph-name="p" horiz-adv-x="1130" d="M989 532Q989 394 963 289T885 113T760 5T588 -31Q516 -31 436 8T281 125V-395H195V1049H281V924Q346 995 427 1037T596 1079Q706 1079 781 1035T902 915T969 741T989 532ZM899 528Q899 650 878 740T817
889T720 977T590 1006Q511 1006 436 962T281 831V217Q364 132 442 88T588 43Q655 43 712 70T810 156T875 307T899 528Z" />
<glyph unicode="q" glyph-name="q" horiz-adv-x="1130" d="M850 -395V125Q816 92 777 64T696 14T611 -19T524 -31Q336 -31 239 104T141 516Q141 627 164 728T235 908T357 1032T532 1079Q581 1079 622 1070T702 1044T776 1004T850 954V1049H936V-395H850ZM850 862Q759
937 683 971T535 1006Q462 1006 406 970T310 870T251 716T231 520Q231 284 303 164T520 43Q566 43 609 56T694 93T773 148T850 217V862Z" />
<glyph unicode="r" glyph-name="r" horiz-adv-x="782" d="M696 967Q675 976 660 979T625 983Q583 983 548 974T475 940T391 874T281 768V0H195V1049H281V858Q335 913 379 952T463 1016T542 1053T625 1065Q651 1065 673 1060T719 1044L696 967Z" />
<glyph unicode="s" glyph-name="s" horiz-adv-x="956" d="M827 256Q827 190 807 137T745 47T637 -11T477 -31Q395 -31 336 -13T236 34T171 94T135 152L207 197Q222 165 245 138T300 90T376 59T475 47Q539 47 589 57T672 90T723 154T741 254Q741 302 730 337T688
399T600 450T453 498Q363 522 305 548T213 608T166 689T152 803Q152 855 171 904T231 993T335 1055T485 1079Q556 1079 608 1064T698 1023T761 963T805 891L731 852Q693 930 637 965T489 1001Q425 1001 378 987T300 946T254 883T238 801Q238 754 246 721T281 662T355
616T481 573Q592 543 659 512T764 444T814 362T827 256Z" />
<glyph unicode="t" glyph-name="t" horiz-adv-x="719" d="M662 4Q627 -10 582 -20T485 -31Q408 -31 359 -13T281 45T241 152T229 317V971H63V1049H229V1341H315V1049H604V971H315V315Q315 232 323 179T351 96T404 55T487 43Q505 43 526 45T567 52T607 62T641 74L662 4Z" />
<glyph unicode="u" glyph-name="u" horiz-adv-x="1110" d="M829 0V176Q726 81 635 25T457 -31Q374 -31 322 -6T239 67T198 186T186 348V1049H272V362Q272 264 283 203T317 107T375 60T459 47Q610 47 829 266V1049H915V0H829Z" />
<glyph unicode="v" glyph-name="v" horiz-adv-x="975" d="M539 0H436L66 1049H156L489 90L819 1049H909L539 0Z" />
<glyph unicode="w" glyph-name="w" horiz-adv-x="1384" d="M1055 0H965L694 938L422 0H330L100 1049H188L383 127L649 1049H741L1010 127L1200 1049H1284L1055 0Z" />
<glyph unicode="x" glyph-name="x" horiz-adv-x="918" d="M754 0L461 465L158 0H66L416 526L74 1049H166L465 588L760 1049H852L510 530L850 0H754Z" />
<glyph unicode="y" glyph-name="y" horiz-adv-x="995" d="M43 -289Q65 -303 96 -310T156 -317Q200 -317 235 -301T301 -254T356 -175T406 -63L451 55L68 1049H160L496 156L836 1049H928L471 -115Q441 -192 408 -245T336 -331T254 -380T160 -395Q141 -395 120 -393T79
-387T41 -376T12 -362L43 -289Z" />
<glyph unicode="z" glyph-name="z" horiz-adv-x="938" d="M106 0V66L713 971H119V1049H815V983L209 78H831V0H106Z" />
<glyph unicode="{" glyph-name="braceleft" horiz-adv-x="973" d="M825 -395Q642 -395 547 -308T451 -39V154Q451 254 435 324T381 440T280 505T121 526H102V600H121Q212 600 275 619T377 683T433 797T451 969V1163Q451 1243 478 1308T554 1421T672 1494T825 1520H874V1446H834Q688
1446 610 1370T532 1145V967Q532 872 515 801T465 681T384 603T272 561Q336 552 384 525T466 448T515 327T532 158V-20Q532 -96 548 -153T600 -247T693 -303T834 -322H874V-395H825Z" />
<glyph unicode="|" glyph-name="bar" horiz-adv-x="848" d="M385 -395V1520H463V-395H385Z" />
<glyph unicode="}" glyph-name="braceright" horiz-adv-x="973" d="M98 -395V-322H139Q221 -322 278 -304T372 -248T424 -153T440 -20V158Q440 255 456 327T506 448T587 524T700 561Q637 573 589 602T507 681T457 801T440 967V1145Q440 1293 363 1369T139 1446H98V1520H147Q232
1520 301 1494T419 1421T495 1309T522 1163V969Q522 867 539 797T595 683T697 620T852 600H870V526H852Q757 526 694 506T592 440T538 325T522 154V-39Q522 -220 427 -307T147 -395H98Z" />
<glyph unicode="~" glyph-name="asciitilde" horiz-adv-x="1427" d="M164 739Q235 795 305 831T451 868Q511 868 579 844T717 790T856 736T985 711Q1016 711 1046 717T1109 740T1179 784T1264 852V754Q1222 721 1188 698T1121 661T1056 640T985 633Q946 633 901
644T808 674T712 712T617 750T529 779T453 791Q418 791 387 784T323 760T252 716T164 649V739Z" />
</font>
</defs>
</svg>
